EncodeSans-Thin.ufo
<glyph name="quotedbl" format="2">
  <advance width="666.0"/>
  <unicode hex="0022"/>
  <outline>
    <contour>
      <point x="173.0" y="956.0" type="line"/>
      <point x="213.0" y="956.0" type="line"/>
      <point x="233.0" y="1616.0" type="line"/>
      <point x="153.0" y="1616.0" type="line"/>
    </contour>
    <contour>
      <point x="453.0" y="956.0" type="line"/>
      <point x="493.0" y="956.0" type="line"/>
      <point x="513.0" y="1616.0" type="line"/>
      <point x="433.0" y="1616.0" type="line"/>
    </contour>
  </outline>
</glyph>
<glyph name="parenleft" format="2">
  <advance width="626.0"/>
  <unicode hex="0028"/>
  <outline>
    <contour>
      <point x="479.0" y="-440.0" type="curve"/>
      <point x="558.0" y="-440.0" type="line"/>
      <point x="312.0" y="-128.0"/>
      <point x="210.0" y="218.0"/>
      <point x="210.0" y="588.0" type="curve" smooth="yes"/>
      <point x="210.0" y="958.0"/>
      <point x="312.0" y="1304.0"/>
      <point x="558.0" y="1616.0" type="curve"/>
      <point x="479.0" y="1616.0" type="line"/>
      <point x="242.0" y="1314.0"/>
      <point x="138.0" y="964.0"/>
      <point x="138.0" y="588.0" type="curve" smooth="yes"/>
      <point x="138.0" y="212.0"/>
      <point x="242.0" y="-138.0"/>
    </contour>
  </outline>
</glyph>
<glyph name="parenright" format="2">
  <advance width="626.0"/>
  <unicode hex="0029"/>
  <outline>
    <contour>
      <point x="68.0" y="-440.0" type="curve"/>
      <point x="147.0" y="-440.0" type="line"/>
      <point x="384.0" y="-138.0"/>
      <point x="488.0" y="212.0"/>
      <point x="488.0" y="588.0" type="curve" smooth="yes"/>
      <point x="488.0" y="964.0"/>
      <point x="384.0" y="1314.0"/>
      <point x="147.0" y="1616.0" type="curve"/>
      <point x="68.0" y="1616.0" type="line"/>
      <point x="314.0" y="1304.0"/>
      <point x="416.0" y="958.0"/>
      <point x="416.0" y="588.0" type="curve" smooth="yes"/>
      <point x="416.0" y="218.0"/>
      <point x="314.0" y="-128.0"/>
    </contour>
  </outline>
</glyph>
<glyph name="one" format="2">
  <advance width="673.0"/>
  <unicode hex="0031"/>
  <outline>
    <contour>
      <point x="405.0" y="0.0" type="line"/>
      <point x="473.0" y="0.0" type="line"/>
      <point x="473.0" y="1484.0" type="line"/>
      <point x="431.0" y="1484.0" type="line"/>
      <point x="23.0" y="1183.0" type="line"/>
      <point x="23.0" y="1106.0" type="line"/>
      <point x="431.0" y="1405.0" type="line"/>
      <point x="405.0" y="1402.0" type="line"/>
    </contour>
  </outline>
</glyph>
<glyph name="five" format="2">
  <advance width="978.0"/>
  <unicode hex="0035"/>
  <outline>
    <contour>
      <point x="425.0" y="-18.0" type="curve" smooth="yes"/>
      <point x="746.0" y="-18.0"/>
      <point x="917.0" y="130.0"/>
      <point x="917.0" y="405.0" type="curve" smooth="yes"/>
      <point x="917.0" y="669.0"/>
      <point x="746.0" y="803.0"/>
      <point x="345.0" y="827.0" type="curve" smooth="yes"/>
      <point x="160.0" y="838.0" type="line"/>
      <point x="212.0" y="792.0" type="line"/>
      <point x="257.0" y="1440.0" type="line"/>
      <point x="222.0" y="1416.0" type="line"/>
      <point x="855.0" y="1416.0" type="line"/>
      <point x="855.0" y="1480.0" type="line"/>
      <point x="192.0" y="1480.0" type="line"/>
      <point x="143.0" y="772.0" type="line"/>
      <point x="328.0" y="761.0" type="line" smooth="yes"/>
      <point x="704.0" y="739.0"/>
      <point x="847.0" y="632.0"/>
      <point x="847.0" y="404.0" type="curve" smooth="yes"/>
      <point x="847.0" y="167.0"/>
      <point x="705.0" y="48.0"/>
      <point x="427.0" y="48.0" type="curve" smooth="yes"/>
      <point x="314.0" y="48.0"/>
      <point x="195.0" y="69.0"/>
      <point x="83.0" y="109.0" type="curve"/>
      <point x="83.0" y="41.0" type="line"/>
      <point x="185.0" y="3.0"/>
      <point x="307.0" y="-18.0"/>
    </contour>
  </outline>
</glyph>
<glyph name="six" format="2">
  <advance width="1093.0"/>
  <unicode hex="0036"/>
  <outline>
    <contour>
      <point x="618.0" y="-18.0" type="curve" smooth="yes"/>
      <point x="851.0" y="-18.0"/>
      <point x="1029.0" y="119.0"/>
      <point x="1029.0" y="405.0" type="curve" smooth="yes"/>
      <point x="1029.0" y="689.0"/>
      <point x="849.0" y="828.0"/>
      <point x="582.0" y="828.0" type="curve" smooth="yes"/>
      <point x="429.0" y="828.0"/>
      <point x="275.0" y="772.0"/>
      <point x="187.0" y="680.0" type="curve"/>
      <point x="187.0" y="597.0" type="line"/>
      <point x="280.0" y="715.0"/>
      <point x="446.0" y="762.0"/>
      <point x="578.0" y="762.0" type="curve" smooth="yes"/>
      <point x="809.0" y="762.0"/>
      <point x="959.0" y="653.0"/>
      <point x="959.0" y="402.0" type="curve" smooth="yes"/>
      <point x="959.0" y="153.0"/>
      <point x="812.0" y="48.0"/>
      <point x="619.0" y="48.0" type="curve" smooth="yes"/>
      <point x="372.0" y="48.0"/>
      <point x="209.0" y="202.0"/>
      <point x="209.0" y="692.0" type="curve" smooth="yes"/>
      <point x="209.0" y="704.0" type="line" smooth="yes"/>
      <point x="209.0" y="1223.0"/>
      <point x="384.0" y="1432.0"/>
      <point x="713.0" y="1432.0" type="curve" smooth="yes"/>
      <point x="795.0" y="1432.0"/>
      <point x="890.0" y="1419.0"/>
      <point x="965.0" y="1387.0" type="curve"/>
      <point x="965.0" y="1455.0" type="line"/>
      <point x="891.0" y="1486.0"/>
      <point x="799.0" y="1498.0"/>
      <point x="714.0" y="1498.0" type="curve" smooth="yes"/>
      <point x="342.0" y="1498.0"/>
      <point x="139.0" y="1258.0"/>
      <point x="139.0" y="692.0" type="curve" smooth="yes"/>
      <point x="139.0" y="164.0"/>
      <point x="332.0" y="-18.0"/>
    </contour>
  </outline>
</glyph>
<glyph name="seven" format="2">
  <advance width="892.0"/>
  <unicode hex="0037"/>
  <outline>
    <contour>
      <point x="180.0" y="0.0" type="line"/>
      <point x="253.0" y="0.0" type="line"/>
      <point x="833.0" y="1440.0" type="line"/>
      <point x="833.0" y="1480.0" type="line"/>
      <point x="12.0" y="1480.0" type="line"/>
      <point x="12.0" y="1416.0" type="line"/>
      <point x="775.0" y="1416.0" type="line"/>
      <point x="762.0" y="1442.0" type="line"/>
    </contour>
  </outline>
</glyph>
<glyph name="eight" format="2">
  <advance width="1198.0"/>
  <unicode hex="0038"/>
  <outline>
    <contour>
      <point x="610.0" y="-18.0" type="curve" smooth="yes"/>
      <point x="912.0" y="-18.0"/>
      <point x="1088.0" y="132.0"/>
      <point x="1088.0" y="367.0" type="curve" smooth="yes"/>
      <point x="1088.0" y="578.0"/>
      <point x="961.0" y="697.0"/>
      <point x="631.0" y="774.0" type="curve" smooth="yes"/>
      <point x="331.0" y="843.0"/>
      <point x="233.0" y="943.0"/>
      <point x="233.0" y="1129.0" type="curve" smooth="yes"/>
      <point x="233.0" y="1317.0"/>
      <point x="358.0" y="1432.0"/>
      <point x="593.0" y="1432.0" type="curve" smooth="yes"/>
      <point x="828.0" y="1432.0"/>
      <point x="968.0" y="1325.0"/>
      <point x="968.0" y="1125.0" type="curve" smooth="yes"/>
      <point x="968.0" y="946.0"/>
      <point x="879.0" y="841.0"/>
      <point x="673.0" y="758.0" type="curve"/>
      <point x="741.0" y="727.0" type="line"/>
      <point x="929.0" y="802.0"/>
      <point x="1036.0" y="937.0"/>
      <point x="1036.0" y="1126.0" type="curve" smooth="yes"/>
      <point x="1036.0" y="1356.0"/>
      <point x="869.0" y="1498.0"/>
      <point x="594.0" y="1498.0" type="curve" smooth="yes"/>
      <point x="326.0" y="1498.0"/>
      <point x="161.0" y="1356.0"/>
      <point x="161.0" y="1127.0" type="curve" smooth="yes"/>
      <point x="161.0" y="910.0"/>
      <point x="289.0" y="784.0"/>
      <point x="620.0" y="707.0" type="curve" smooth="yes"/>
      <point x="912.0" y="638.0"/>
      <point x="1016.0" y="550.0"/>
      <point x="1016.0" y="362.0" type="curve" smooth="yes"/>
      <point x="1016.0" y="161.0"/>
      <point x="869.0" y="48.0"/>
      <point x="611.0" y="48.0" type="curve" smooth="yes"/>
      <point x="328.0" y="48.0"/>
      <point x="181.0" y="163.0"/>
      <point x="181.0" y="374.0" type="curve" smooth="yes"/>
      <point x="181.0" y="557.0"/>
      <point x="296.0" y="696.0"/>
      <point x="500.0" y="753.0" type="curve"/>
      <point x="429.0" y="786.0" type="line"/>
      <point x="232.0" y="720.0"/>
      <point x="110.0" y="572.0"/>
      <point x="110.0" y="372.0" type="curve" smooth="yes"/>
      <point x="110.0" y="121.0"/>
      <point x="290.0" y="-18.0"/>
    </contour>
  </outline>
</glyph>
<glyph name="nine" format="2">
  <advance width="1093.0"/>
  <unicode hex="0039"/>
  <outline>
    <contour>
      <point x="475.0" y="1498.0" type="curve" smooth="yes"/>
      <point x="242.0" y="1498.0"/>
      <point x="64.0" y="1361.0"/>
      <point x="64.0" y="1075.0" type="curve" smooth="yes"/>
      <point x="64.0" y="791.0"/>
      <point x="244.0" y="652.0"/>
      <point x="511.0" y="652.0" type="curve" smooth="yes"/>
      <point x="664.0" y="652.0"/>
      <point x="818.0" y="708.0"/>
      <point x="906.0" y="800.0" type="curve"/>
      <point x="906.0" y="883.0" type="line"/>
      <point x="813.0" y="765.0"/>
      <point x="647.0" y="718.0"/>
      <point x="515.0" y="718.0" type="curve" smooth="yes"/>
      <point x="284.0" y="718.0"/>
      <point x="134.0" y="827.0"/>
      <point x="134.0" y="1078.0" type="curve" smooth="yes"/>
      <point x="134.0" y="1327.0"/>
      <point x="281.0" y="1432.0"/>
      <point x="474.0" y="1432.0" type="curve" smooth="yes"/>
      <point x="721.0" y="1432.0"/>
      <point x="884.0" y="1278.0"/>
      <point x="884.0" y="788.0" type="curve" smooth="yes"/>
      <point x="884.0" y="776.0" type="line" smooth="yes"/>
      <point x="884.0" y="257.0"/>
      <point x="709.0" y="48.0"/>
      <point x="380.0" y="48.0" type="curve" smooth="yes"/>
      <point x="298.0" y="48.0"/>
      <point x="203.0" y="61.0"/>
      <point x="128.0" y="93.0" type="curve"/>
      <point x="128.0" y="25.0" type="line"/>
      <point x="202.0" y="-6.0"/>
      <point x="294.0" y="-18.0"/>
      <point x="379.0" y="-18.0" type="curve" smooth="yes"/>
      <point x="751.0" y="-18.0"/>
      <point x="954.0" y="222.0"/>
      <point x="954.0" y="788.0" type="curve" smooth="yes"/>
      <point x="954.0" y="1316.0"/>
      <point x="761.0" y="1498.0"/>
    </contour>
  </outline>
</glyph>
<glyph name="colon" format="2">
  <advance width="406.0"/>
  <unicode hex="003A"/>
  <outline>
    <contour>
      <point x="203.0" y="-10.0" type="curve" smooth="yes"/>
      <point x="239.0" y="-10.0"/>
      <point x="265.0" y="14.0"/>
      <point x="265.0" y="52.0" type="curve" smooth="yes"/>
      <point x="265.0" y="90.0"/>
      <point x="239.0" y="116.0"/>
      <point x="203.0" y="116.0" type="curve" smooth="yes"/>
      <point x="167.0" y="116.0"/>
      <point x="141.0" y="90.0"/>
      <point x="141.0" y="52.0" type="curve" smooth="yes"/>
      <point x="141.0" y="14.0"/>
      <point x="167.0" y="-10.0"/>
    </contour>
    <contour>
      <point x="203.0" y="964.0" type="curve" smooth="yes"/>
      <point x="239.0" y="964.0"/>
      <point x="265.0" y="988.0"/>
      <point x="265.0" y="1026.0" type="curve" smooth="yes"/>
      <point x="265.0" y="1064.0"/>
      <point x="239.0" y="1090.0"/>
      <point x="203.0" y="1090.0" type="curve" smooth="yes"/>
      <point x="167.0" y="1090.0"/>
      <point x="141.0" y="1064.0"/>
      <point x="141.0" y="1026.0" type="curve" smooth="yes"/>
      <point x="141.0" y="988.0"/>
      <point x="167.0" y="964.0"/>
    </contour>
  </outline>
</glyph>
<glyph name="semicolon" format="2">
  <advance width="406.0"/>
  <unicode hex="003B"/>
  <outline>
    <contour>
      <point x="153.0" y="-300.0" type="curve"/>
      <point x="197.0" y="-300.0" type="line"/>
      <point x="235.0" y="-206.0"/>
      <point x="265.0" y="-92.0"/>
      <point x="265.0" y="32.0" type="curve" smooth="yes"/>
      <point x="265.0" y="92.0"/>
      <point x="239.0" y="116.0"/>
      <point x="201.0" y="116.0" type="curve" smooth="yes"/>
      <point x="165.0" y="116.0"/>
      <point x="141.0" y="90.0"/>
      <point x="141.0" y="54.0" type="curve" smooth="yes"/>
      <point x="141.0" y="16.0"/>
      <point x="167.0" y="-10.0"/>
      <point x="203.0" y="-10.0" type="curve" smooth="yes"/>
      <point x="215.0" y="-10.0" type="line"/>
      <point x="211.0" y="12.0" type="line"/>
      <point x="211.0" y="-90.0"/>
      <point x="189.0" y="-186.0"/>
    </contour>
    <contour>
      <point x="203.0" y="964.0" type="curve" smooth="yes"/>
      <point x="239.0" y="964.0"/>
      <point x="265.0" y="988.0"/>
      <point x="265.0" y="1026.0" type="curve" smooth="yes"/>
      <point x="265.0" y="1064.0"/>
      <point x="239.0" y="1090.0"/>
      <point x="203.0" y="1090.0" type="curve" smooth="yes"/>
      <point x="167.0" y="1090.0"/>
      <point x="141.0" y="1064.0"/>
      <point x="141.0" y="1026.0" type="curve" smooth="yes"/>
      <point x="141.0" y="988.0"/>
      <point x="167.0" y="964.0"/>
    </contour>
  </outline>
</glyph>
<glyph name="greater" format="2">
  <advance width="1062.0"/>
  <unicode hex="003E"/>
  <outline>
    <contour>
      <point x="167.0" y="406.0" type="line"/>
      <point x="895.0" y="734.0" type="line"/>
      <point x="895.0" y="786.0" type="line"/>
      <point x="167.0" y="1114.0" type="line"/>
      <point x="167.0" y="1042.0" type="line"/>
      <point x="831.0" y="748.0" type="line"/>
      <point x="831.0" y="772.0" type="line"/>
      <point x="167.0" y="478.0" type="line"/>
    </contour>
  </outline>
</glyph>
<glyph name="question" format="2">
  <advance width="853.0"/>
  <unicode hex="003F"/>
  <outline>
    <contour>
      <point x="360.0" y="300.0" type="line"/>
      <point x="408.0" y="300.0" type="line"/>
      <point x="418.0" y="685.0" type="line"/>
      <point x="699.0" y="800.0"/>
      <point x="789.0" y="925.0"/>
      <point x="789.0" y="1135.0" type="curve" smooth="yes"/>
      <point x="789.0" y="1365.0"/>
      <point x="636.0" y="1498.0"/>
      <point x="363.0" y="1498.0" type="curve" smooth="yes"/>
      <point x="250.0" y="1498.0"/>
      <point x="136.0" y="1479.0"/>
      <point x="44.0" y="1444.0" type="curve"/>
      <point x="44.0" y="1376.0" type="line"/>
      <point x="150.0" y="1415.0"/>
      <point x="253.0" y="1432.0"/>
      <point x="362.0" y="1432.0" type="curve" smooth="yes"/>
      <point x="594.0" y="1432.0"/>
      <point x="719.0" y="1328.0"/>
      <point x="719.0" y="1135.0" type="curve" smooth="yes"/>
      <point x="719.0" y="944.0"/>
      <point x="626.0" y="831.0"/>
      <point x="348.0" y="730.0" type="curve"/>
    </contour>
    <contour>
      <point x="384.0" y="-10.0" type="curve" smooth="yes"/>
      <point x="422.0" y="-10.0"/>
      <point x="446.0" y="16.0"/>
      <point x="446.0" y="52.0" type="curve" smooth="yes"/>
      <point x="446.0" y="90.0"/>
      <point x="420.0" y="116.0"/>
      <point x="384.0" y="116.0" type="curve" smooth="yes"/>
      <point x="348.0" y="116.0"/>
      <point x="322.0" y="90.0"/>
      <point x="322.0" y="52.0" type="curve" smooth="yes"/>
      <point x="322.0" y="16.0"/>
      <point x="348.0" y="-10.0"/>
    </contour>
  </outline>
</glyph>
<glyph name="F" format="2">
  <advance width="1074.0"/>
  <unicode hex="0046"/>
  <outline>
    <contour>
      <point x="190.0" y="0.0" type="line"/>
      <point x="258.0" y="0.0" type="line"/>
      <point x="258.0" y="1414.0" type="line"/>
      <point x="1024.0" y="1414.0" type="line"/>
      <point x="1024.0" y="1480.0" type="line"/>
      <point x="190.0" y="1480.0" type="line"/>
    </contour>
    <contour>
      <point x="250.0" y="728.0" type="line"/>
      <point x="929.0" y="728.0" type="line"/>
      <point x="929.0" y="794.0" type="line"/>
      <point x="250.0" y="794.0" type="line"/>
    </contour>
  </outline>
</glyph>
<glyph name="H" format="2">
  <advance width="1398.0"/>
  <unicode hex="0048"/>
  <anchor x="699.0" y="0.0" name="bottom"/>
  <anchor x="699.0" y="1140.0" name="center"/>
  <anchor x="699.0" y="1520.0" name="top"/>
  <anchor x="41.0" y="1480.0" name="topleft"/>
  <outline>
    <contour>
      <point x="190.0" y="0.0" type="line"/>
      <point x="258.0" y="0.0" type="line"/>
      <point x="258.0" y="728.0" type="line"/>
      <point x="1140.0" y="728.0" type="line"/>
      <point x="1140.0" y="0.0" type="line"/>
      <point x="1208.0" y="0.0" type="line"/>
      <point x="1208.0" y="1480.0" type="line"/>
      <point x="1140.0" y="1480.0" type="line"/>
      <point x="1140.0" y="794.0" type="line"/>
      <point x="258.0" y="794.0" type="line"/>
      <point x="258.0" y="1480.0" type="line"/>
      <point x="190.0" y="1480.0" type="line"/>
    </contour>
  </outline>
</glyph>
<glyph name="I" format="2">
  <advance width="448.0"/>
  <unicode hex="0049"/>
  <anchor x="224.0" y="0.0" name="bottom"/>
  <anchor x="258.0" y="0.0" name="ogonek"/>
  <anchor x="224.0" y="1520.0" name="top"/>
  <outline>
    <contour>
      <point x="190.0" y="0.0" type="line"/>
      <point x="258.0" y="0.0" type="line"/>
      <point x="258.0" y="1480.0" type="line"/>
      <point x="190.0" y="1480.0" type="line"/>
    </contour>
  </outline>
</glyph>
<glyph name="K" format="2">
  <advance width="1183.0"/>
  <unicode hex="004B"/>
  <anchor x="616.0" y="0.0" name="bottom"/>
  <anchor x="616.0" y="1480.0" name="top"/>
  <outline>
    <contour>
      <point x="1108.0" y="0.0" type="line"/>
      <point x="1193.0" y="0.0" type="line"/>
      <point x="561.0" y="774.0" type="line"/>
      <point x="561.0" y="750.0" type="line"/>
      <point x="1151.0" y="1480.0" type="line"/>
      <point x="1068.0" y="1480.0" type="line"/>
      <point x="488.0" y="758.0" type="line"/>
    </contour>
    <contour>
      <point x="190.0" y="0.0" type="line"/>
      <point x="258.0" y="0.0" type="line"/>
      <point x="258.0" y="1480.0" type="line"/>
      <point x="190.0" y="1480.0" type="line"/>
    </contour>
    <contour>
      <point x="242.0" y="728.0" type="line"/>
      <point x="532.0" y="728.0" type="line"/>
      <point x="532.0" y="793.0" type="line"/>
      <point x="242.0" y="793.0" type="line"/>
    </contour>
  </outline>
</glyph>
<glyph name="M" format="2">
  <advance width="1692.0"/>
  <unicode hex="004D"/>
  <anchor x="846.0" y="0.0" name="bottom"/>
  <anchor x="846.0" y="1480.0" name="top"/>
  <outline>
    <contour>
      <point x="194.0" y="0.0" type="line"/>
      <point x="260.0" y="0.0" type="line"/>
      <point x="260.0" y="1422.0" type="line"/>
      <point x="222.0" y="1422.0" type="line"/>
      <point x="808.0" y="200.0" type="line"/>
      <point x="884.0" y="200.0" type="line"/>
      <point x="1468.0" y="1422.0" type="line"/>
      <point x="1432.0" y="1422.0" type="line"/>
      <point x="1432.0" y="0.0" type="line"/>
      <point x="1498.0" y="0.0" type="line"/>
      <point x="1498.0" y="1480.0" type="line"/>
      <point x="1423.0" y="1480.0" type="line"/>
      <point x="832.0" y="232.0" type="line"/>
      <point x="864.0" y="232.0" type="line"/>
      <point x="269.0" y="1480.0" type="line"/>
      <point x="194.0" y="1480.0" type="line"/>
    </contour>
  </outline>
</glyph>
<glyph name="P" format="2">
  <advance width="1184.0"/>
  <unicode hex="0050"/>
  <outline>
    <contour>
      <point x="190.0" y="0.0" type="line"/>
      <point x="258.0" y="0.0" type="line"/>
      <point x="258.0" y="529.0" type="line"/>
      <point x="337.0" y="521.0"/>
      <point x="403.0" y="518.0"/>
      <point x="482.0" y="518.0" type="curve" smooth="yes"/>
      <point x="904.0" y="518.0"/>
      <point x="1085.0" y="691.0"/>
      <point x="1085.0" y="1007.0" type="curve" smooth="yes"/>
      <point x="1085.0" y="1343.0"/>
      <point x="892.0" y="1494.0"/>
      <point x="530.0" y="1494.0" type="curve" smooth="yes"/>
      <point x="408.0" y="1494.0"/>
      <point x="303.0" y="1482.0"/>
      <point x="190.0" y="1461.0" type="curve"/>
    </contour>
    <contour>
      <point x="485.0" y="584.0" type="curve" smooth="yes"/>
      <point x="402.0" y="584.0"/>
      <point x="331.0" y="588.0"/>
      <point x="258.0" y="598.0" type="curve"/>
      <point x="258.0" y="1406.0" type="line"/>
      <point x="341.0" y="1420.0"/>
      <point x="428.0" y="1428.0"/>
      <point x="530.0" y="1428.0" type="curve" smooth="yes"/>
      <point x="854.0" y="1428.0"/>
      <point x="1013.0" y="1300.0"/>
      <point x="1013.0" y="1004.0" type="curve" smooth="yes"/>
      <point x="1013.0" y="724.0"/>
      <point x="858.0" y="584.0"/>
    </contour>
  </outline>
</glyph>
<glyph name="X" format="2">
  <advance width="1222.0"/>
  <unicode hex="0058"/>
  <outline>
    <contour>
      <point x="1100.0" y="0.0" type="line"/>
      <point x="1186.0" y="0.0" type="line"/>
      <point x="652.0" y="748.0" type="line"/>
      <point x="611.0" y="806.0" type="line"/>
      <point x="130.0" y="1480.0" type="line"/>
      <point x="45.0" y="1480.0" type="line"/>
      <point x="569.0" y="747.0" type="line"/>
      <point x="610.0" y="688.0" type="line"/>
    </contour>
    <contour>
      <point x="35.0" y="0.0" type="line"/>
      <point x="119.0" y="0.0" type="line"/>
      <point x="610.0" y="688.0" type="line"/>
      <point x="652.0" y="748.0" type="line"/>
      <point x="1176.0" y="1480.0" type="line"/>
      <point x="1093.0" y="1480.0" type="line"/>
      <point x="611.0" y="806.0" type="line"/>
      <point x="569.0" y="747.0" type="line"/>
    </contour>
  </outline>
</glyph>
<glyph name="Z" format="2">
  <advance width="1103.0"/>
  <unicode hex="005A"/>
  <anchor x="552.0" y="0.0" name="bottom"/>
  <anchor x="552.0" y="1520.0" name="top"/>
  <outline>
    <contour>
      <point x="63.0" y="0.0" type="line"/>
      <point x="1040.0" y="0.0" type="line"/>
      <point x="1040.0" y="64.0" type="line"/>
      <point x="127.0" y="64.0" type="line"/>
      <point x="141.0" y="39.0" type="line"/>
      <point x="1028.0" y="1440.0" type="line"/>
      <point x="1028.0" y="1480.0" type="line"/>
      <point x="75.0" y="1480.0" type="line"/>
      <point x="75.0" y="1416.0" type="line"/>
      <point x="964.0" y="1416.0" type="line"/>
      <point x="950.0" y="1441.0" type="line"/>
      <point x="63.0" y="40.0" type="line"/>
    </contour>
  </outline>
</glyph>
<glyph name="backslash" format="2">
  <advance width="521.0"/>
  <unicode hex="005C"/>
  <outline>
    <contour>
      <point x="450.0" y="-240.0" type="line"/>
      <point x="521.0" y="-240.0" type="line"/>
      <point x="71.0" y="1616.0" type="line"/>
      <point x="0.0" y="1616.0" type="line"/>
    </contour>
  </outline>
</glyph>
<glyph name="b" format="2">
  <advance width="1071.0"/>
  <unicode hex="0062"/>
  <anchor x="538.0" y="0.0" name="bottom"/>
  <anchor x="204.0" y="1616.0" name="top"/>
  <outline>
    <contour>
      <point x="454.0" y="-18.0" type="curve" smooth="yes"/>
      <point x="782.0" y="-18.0"/>
      <point x="963.0" y="163.0"/>
      <point x="963.0" y="560.0" type="curve" smooth="yes"/>
      <point x="963.0" y="962.0"/>
      <point x="779.0" y="1096.0"/>
      <point x="554.0" y="1096.0" type="curve" smooth="yes"/>
      <point x="418.0" y="1096.0"/>
      <point x="311.0" y="1039.0"/>
      <point x="244.0" y="965.0" type="curve"/>
      <point x="238.0" y="965.0" type="line"/>
      <point x="238.0" y="1616.0" type="line"/>
      <point x="170.0" y="1616.0" type="line"/>
      <point x="170.0" y="24.0" type="line"/>
      <point x="256.0" y="-3.0"/>
      <point x="357.0" y="-18.0"/>
    </contour>
    <contour>
      <point x="458.0" y="48.0" type="curve" smooth="yes"/>
      <point x="375.0" y="48.0"/>
      <point x="294.0" y="61.0"/>
      <point x="238.0" y="78.0" type="curve"/>
      <point x="238.0" y="869.0" type="line"/>
      <point x="312.0" y="979.0"/>
      <point x="431.0" y="1030.0"/>
      <point x="550.0" y="1030.0" type="curve" smooth="yes"/>
      <point x="742.0" y="1030.0"/>
      <point x="891.0" y="925.0"/>
      <point x="891.0" y="552.0" type="curve" smooth="yes"/>
      <point x="891.0" y="196.0"/>
      <point x="740.0" y="48.0"/>
    </contour>
  </outline>
</glyph>
<glyph name="j" format="2">
  <advance width="408.0"/>
  <unicode hex="006A"/>
  <anchor x="204.0" y="1206.0" name="_top"/>
  <anchor x="204.0" y="1206.0" name="top"/>
  <outline>
    <contour>
      <point x="28.0" y="-460.0" type="line"/>
      <point x="173.0" y="-262.0"/>
      <point x="238.0" y="-88.0"/>
      <point x="238.0" y="173.0" type="curve" smooth="yes"/>
      <point x="238.0" y="1080.0" type="line"/>
      <point x="170.0" y="1080.0" type="line"/>
      <point x="170.0" y="166.0" type="line" smooth="yes"/>
      <point x="170.0" y="-74.0"/>
      <point x="112.0" y="-242.0"/>
      <point x="-21.0" y="-425.0" type="curve"/>
    </contour>
    <contour>
      <point x="204.0" y="1366.0" type="curve" smooth="yes"/>
      <point x="240.0" y="1366.0"/>
      <point x="266.0" y="1390.0"/>
      <point x="266.0" y="1428.0" type="curve" smooth="yes"/>
      <point x="266.0" y="1466.0"/>
      <point x="240.0" y="1492.0"/>
      <point x="204.0" y="1492.0" type="curve" smooth="yes"/>
      <point x="168.0" y="1492.0"/>
      <point x="142.0" y="1466.0"/>
      <point x="142.0" y="1428.0" type="curve" smooth="yes"/>
      <point x="142.0" y="1390.0"/>
      <point x="168.0" y="1366.0"/>
    </contour>
  </outline>
</glyph>
<glyph name="k" format="2">
  <advance width="957.0"/>
  <unicode hex="006B"/>
  <anchor x="519.0" y="0.0" name="bottom"/>
  <anchor x="204.0" y="1616.0" name="top"/>
  <outline>
    <contour>
      <point x="887.0" y="0.0" type="line"/>
      <point x="972.0" y="0.0" type="line"/>
      <point x="500.0" y="563.0" type="line"/>
      <point x="500.0" y="541.0" type="line"/>
      <point x="940.0" y="1080.0" type="line"/>
      <point x="856.0" y="1080.0" type="line"/>
      <point x="423.0" y="552.0" type="line"/>
    </contour>
    <contour>
      <point x="222.0" y="520.0" type="line"/>
      <point x="466.0" y="520.0" type="line"/>
      <point x="466.0" y="584.0" type="line"/>
      <point x="222.0" y="584.0" type="line"/>
    </contour>
    <contour>
      <point x="170.0" y="0.0" type="line"/>
      <point x="238.0" y="0.0" type="line"/>
      <point x="238.0" y="1616.0" type="line"/>
      <point x="170.0" y="1616.0" type="line"/>
    </contour>
  </outline>
</glyph>
<glyph name="x" format="2">
  <advance width="941.0"/>
  <unicode hex="0078"/>
  <anchor x="472.0" y="0.0" name="bottom"/>
  <anchor x="472.0" y="1200.0" name="top"/>
  <outline>
    <contour>
      <point x="829.0" y="0.0" type="line"/>
      <point x="915.0" y="0.0" type="line"/>
      <point x="513.0" y="546.0" type="line"/>
      <point x="472.0" y="601.0" type="line"/>
      <point x="122.0" y="1080.0" type="line"/>
      <point x="36.0" y="1080.0" type="line"/>
      <point x="429.0" y="544.0" type="line"/>
      <point x="470.0" y="490.0" type="line"/>
    </contour>
    <contour>
      <point x="29.0" y="0.0" type="line"/>
      <point x="114.0" y="0.0" type="line"/>
      <point x="470.0" y="490.0" type="line"/>
      <point x="513.0" y="546.0" type="line"/>
      <point x="906.0" y="1080.0" type="line"/>
      <point x="823.0" y="1080.0" type="line"/>
      <point x="472.0" y="601.0" type="line"/>
      <point x="429.0" y="544.0" type="line"/>
    </contour>
  </outline>
</glyph>
<glyph name="z" format="2">
  <advance width="865.0"/>
  <unicode hex="007A"/>
  <anchor x="435.0" y="0.0" name="bottom"/>
  <anchor x="435.0" y="1200.0" name="top"/>
  <outline>
    <contour>
      <point x="61.0" y="0.0" type="line"/>
      <point x="808.0" y="0.0" type="line"/>
      <point x="808.0" y="64.0" type="line"/>
      <point x="138.0" y="64.0" type="line"/>
      <point x="138.0" y="39.0" type="line"/>
      <point x="796.0" y="1040.0" type="line"/>
      <point x="796.0" y="1080.0" type="line"/>
      <point x="73.0" y="1080.0" type="line"/>
      <point x="73.0" y="1016.0" type="line"/>
      <point x="719.0" y="1016.0" type="line"/>
      <point x="719.0" y="1041.0" type="line"/>
      <point x="61.0" y="40.0" type="line"/>
    </contour>
  </outline>
</glyph>
<glyph name="braceleft" format="2">
  <advance width="666.0"/>
  <unicode hex="007B"/>
  <outline>
    <contour>
      <point x="586.0" y="-460.0" type="curve" smooth="yes"/>
      <point x="630.0" y="-460.0"/>
      <point x="676.0" y="-456.0"/>
      <point x="706.0" y="-450.0" type="curve"/>
      <point x="706.0" y="-394.0" type="line"/>
      <point x="582.0" y="-394.0" type="line" smooth="yes"/>
      <point x="405.0" y="-394.0"/>
      <point x="318.0" y="-319.0"/>
      <point x="318.0" y="-141.0" type="curve" smooth="yes"/>
      <point x="318.0" y="394.0" type="line" smooth="yes"/>
      <point x="318.0" y="530.0"/>
      <point x="272.0" y="602.0"/>
      <point x="174.0" y="628.0" type="curve"/>
      <point x="174.0" y="616.0" type="line"/>
      <point x="272.0" y="642.0"/>
      <point x="318.0" y="714.0"/>
      <point x="318.0" y="850.0" type="curve" smooth="yes"/>
      <point x="318.0" y="1317.0" type="line" smooth="yes"/>
      <point x="318.0" y="1495.0"/>
      <point x="405.0" y="1570.0"/>
      <point x="582.0" y="1570.0" type="curve" smooth="yes"/>
      <point x="706.0" y="1570.0" type="line"/>
      <point x="706.0" y="1626.0" type="line"/>
      <point x="676.0" y="1632.0"/>
      <point x="630.0" y="1636.0"/>
      <point x="586.0" y="1636.0" type="curve" smooth="yes"/>
      <point x="364.0" y="1636.0"/>
      <point x="250.0" y="1529.0"/>
      <point x="250.0" y="1310.0" type="curve" smooth="yes"/>
      <point x="250.0" y="840.0" type="line" smooth="yes"/>
      <point x="250.0" y="708.0"/>
      <point x="188.0" y="654.0"/>
      <point x="66.0" y="654.0" type="curve" smooth="yes"/>
      <point x="51.0" y="654.0" type="line"/>
      <point x="51.0" y="590.0" type="line"/>
      <point x="66.0" y="590.0" type="line" smooth="yes"/>
      <point x="188.0" y="590.0"/>
      <point x="250.0" y="536.0"/>
      <point x="250.0" y="404.0" type="curve" smooth="yes"/>
      <point x="250.0" y="-134.0" type="line" smooth="yes"/>
      <point x="250.0" y="-353.0"/>
      <point x="364.0" y="-460.0"/>
    </contour>
  </outline>
</glyph>
<glyph name="asciitilde" format="2">
  <advance width="1062.0"/>
  <unicode hex="007E"/>
  <outline>
    <contour>
      <point x="703.0" y="664.0" type="curve" smooth="yes"/>
      <point x="781.0" y="664.0"/>
      <point x="851.0" y="696.0"/>
      <point x="895.0" y="754.0" type="curve"/>
      <point x="895.0" y="836.0" type="line"/>
      <point x="841.0" y="764.0"/>
      <point x="777.0" y="728.0"/>
      <point x="701.0" y="728.0" type="curve" smooth="yes"/>
      <point x="597.0" y="728.0"/>
      <point x="491.0" y="844.0"/>
      <point x="359.0" y="844.0" type="curve" smooth="yes"/>
      <point x="281.0" y="844.0"/>
      <point x="211.0" y="812.0"/>
      <point x="167.0" y="754.0" type="curve"/>
      <point x="167.0" y="672.0" type="line"/>
      <point x="221.0" y="744.0"/>
      <point x="285.0" y="780.0"/>
      <point x="361.0" y="780.0" type="curve" smooth="yes"/>
      <point x="465.0" y="780.0"/>
      <point x="571.0" y="664.0"/>
    </contour>
  </outline>
</glyph>
<glyph name="currency" format="2">
  <advance width="1100.0"/>
  <unicode hex="00A4"/>
  <outline>
    <contour>
      <point x="326.0" y="940.0" type="line"/>
      <point x="350.0" y="962.0" type="line"/>
      <point x="260.0" y="1080.0" type="line"/>
      <point x="164.0" y="1180.0" type="line"/>
      <point x="108.0" y="1124.0" type="line"/>
      <point x="210.0" y="1028.0" type="line"/>
    </contour>
    <contour>
      <point x="774.0" y="940.0" type="line"/>
      <point x="890.0" y="1028.0" type="line"/>
      <point x="992.0" y="1124.0" type="line"/>
      <point x="936.0" y="1180.0" type="line"/>
      <point x="840.0" y="1080.0" type="line"/>
      <point x="750.0" y="962.0" type="line"/>
    </contour>
    <contour>
      <point x="934.0" y="300.0" type="line"/>
      <point x="990.0" y="356.0" type="line"/>
      <point x="890.0" y="452.0" type="line"/>
      <point x="784.0" y="530.0" type="line"/>
      <point x="760.0" y="504.0" type="line"/>
      <point x="838.0" y="400.0" type="line"/>
    </contour>
    <contour>
      <point x="166.0" y="300.0" type="line"/>
      <point x="262.0" y="400.0" type="line"/>
      <point x="340.0" y="504.0" type="line"/>
      <point x="316.0" y="530.0" type="line"/>
      <point x="210.0" y="452.0" type="line"/>
      <point x="110.0" y="356.0" type="line"/>
    </contour>
    <contour>
      <point x="550.0" y="411.0" type="curve" smooth="yes"/>
      <point x="736.0" y="411.0"/>
      <point x="861.0" y="542.0"/>
      <point x="861.0" y="740.0" type="curve" smooth="yes"/>
      <point x="861.0" y="936.0"/>
      <point x="736.0" y="1067.0"/>
      <point x="550.0" y="1067.0" type="curve" smooth="yes"/>
      <point x="362.0" y="1067.0"/>
      <point x="239.0" y="936.0"/>
      <point x="239.0" y="740.0" type="curve" smooth="yes"/>
      <point x="239.0" y="542.0"/>
      <point x="362.0" y="411.0"/>
    </contour>
    <contour>
      <point x="550.0" y="473.0" type="curve" smooth="yes"/>
      <point x="402.0" y="473.0"/>
      <point x="301.0" y="572.0"/>
      <point x="301.0" y="740.0" type="curve" smooth="yes"/>
      <point x="301.0" y="908.0"/>
      <point x="402.0" y="1007.0"/>
      <point x="552.0" y="1007.0" type="curve" smooth="yes"/>
      <point x="712.0" y="1007.0"/>
      <point x="799.0" y="896.0"/>
      <point x="799.0" y="740.0" type="curve" smooth="yes"/>
      <point x="799.0" y="570.0"/>
      <point x="698.0" y="473.0"/>
    </contour>
  </outline>
</glyph>
<glyph name="section" format="2">
  <advance width="960.0"/>
  <unicode hex="00A7"/>
  <outline>
    <contour>
      <point x="422.0" y="-18.0" type="curve" smooth="yes"/>
      <point x="678.0" y="-18.0"/>
      <point x="806.0" y="96.0"/>
      <point x="806.0" y="280.0" type="curve" smooth="yes"/>
      <point x="806.0" y="426.0"/>
      <point x="736.0" y="516.0"/>
      <point x="533.0" y="562.0" type="curve" smooth="yes"/>
      <point x="404.0" y="590.0" type="line" smooth="yes"/>
      <point x="256.0" y="623.0"/>
      <point x="201.0" y="697.0"/>
      <point x="201.0" y="806.0" type="curve" smooth="yes"/>
      <point x="201.0" y="880.0"/>
      <point x="235.0" y="944.0"/>
      <point x="305.0" y="985.0" type="curve"/>
      <point x="254.0" y="1028.0" type="line"/>
      <point x="177.0" y="975.0"/>
      <point x="134.0" y="895.0"/>
      <point x="134.0" y="803.0" type="curve" smooth="yes"/>
      <point x="134.0" y="659.0"/>
      <point x="205.0" y="564.0"/>
      <point x="399.0" y="520.0" type="curve" smooth="yes"/>
      <point x="528.0" y="492.0" type="line" smooth="yes"/>
      <point x="676.0" y="459.0"/>
      <point x="735.0" y="399.0"/>
      <point x="735.0" y="274.0" type="curve" smooth="yes"/>
      <point x="735.0" y="130.0"/>
      <point x="638.0" y="48.0"/>
      <point x="425.0" y="48.0" type="curve" smooth="yes"/>
      <point x="336.0" y="48.0"/>
      <point x="256.0" y="59.0"/>
      <point x="150.0" y="91.0" type="curve"/>
      <point x="150.0" y="23.0" type="line"/>
      <point x="236.0" y="-5.0"/>
      <point x="323.0" y="-18.0"/>
    </contour>
    <contour>
      <point x="712.0" y="453.0" type="line"/>
      <point x="784.0" y="505.0"/>
      <point x="826.0" y="582.0"/>
      <point x="826.0" y="680.0" type="curve" smooth="yes"/>
      <point x="826.0" y="826.0"/>
      <point x="756.0" y="918.0"/>
      <point x="553.0" y="964.0" type="curve" smooth="yes"/>
      <point x="424.0" y="992.0" type="line" smooth="yes"/>
      <point x="276.0" y="1025.0"/>
      <point x="225.0" y="1097.0"/>
      <point x="225.0" y="1206.0" type="curve" smooth="yes"/>
      <point x="225.0" y="1333.0"/>
      <point x="313.0" y="1430.0"/>
      <point x="535.0" y="1430.0" type="curve" smooth="yes"/>
      <point x="616.0" y="1430.0"/>
      <point x="681.0" y="1422.0"/>
      <point x="770.0" y="1398.0" type="curve"/>
      <point x="770.0" y="1466.0" type="line"/>
      <point x="694.0" y="1486.0"/>
      <point x="620.0" y="1496.0"/>
      <point x="535.0" y="1496.0" type="curve" smooth="yes"/>
      <point x="276.0" y="1496.0"/>
      <point x="154.0" y="1370.0"/>
      <point x="154.0" y="1203.0" type="curve" smooth="yes"/>
      <point x="154.0" y="1059.0"/>
      <point x="225.0" y="966.0"/>
      <point x="419.0" y="922.0" type="curve" smooth="yes"/>
      <point x="548.0" y="894.0" type="line" smooth="yes"/>
      <point x="696.0" y="861.0"/>
      <point x="759.0" y="799.0"/>
      <point x="759.0" y="674.0" type="curve" smooth="yes"/>
      <point x="759.0" y="593.0"/>
      <point x="725.0" y="532.0"/>
      <point x="659.0" y="494.0" type="curve"/>
    </contour>
  </outline>
</glyph>
<glyph name="copyright" format="2">
  <advance width="1724.0"/>
  <unicode hex="00A9"/>
  <outline>
    <contour>
      <point x="862.0" y="-22.0" type="curve" smooth="yes"/>
      <point x="1308.0" y="-22.0"/>
      <point x="1606.0" y="282.0"/>
      <point x="1606.0" y="740.0" type="curve" smooth="yes"/>
      <point x="1606.0" y="1198.0"/>
      <point x="1308.0" y="1502.0"/>
      <point x="862.0" y="1502.0" type="curve" smooth="yes"/>
      <point x="416.0" y="1502.0"/>
      <point x="118.0" y="1198.0"/>
      <point x="118.0" y="740.0" type="curve" smooth="yes"/>
      <point x="118.0" y="282.0"/>
      <point x="416.0" y="-22.0"/>
    </contour>
    <contour>
      <point x="896.0" y="324.0" type="curve" smooth="yes"/>
      <point x="974.0" y="324.0"/>
      <point x="1046.0" y="336.0"/>
      <point x="1114.0" y="366.0" type="curve"/>
      <point x="1114.0" y="432.0" type="line"/>
      <point x="1032.0" y="400.0"/>
      <point x="960.0" y="390.0"/>
      <point x="902.0" y="390.0" type="curve" smooth="yes"/>
      <point x="706.0" y="390.0"/>
      <point x="584.0" y="500.0"/>
      <point x="584.0" y="738.0" type="curve" smooth="yes"/>
      <point x="584.0" y="970.0"/>
      <point x="706.0" y="1078.0"/>
      <point x="924.0" y="1078.0" type="curve" smooth="yes"/>
      <point x="994.0" y="1078.0"/>
      <point x="1052.0" y="1068.0"/>
      <point x="1114.0" y="1050.0" type="curve"/>
      <point x="1114.0" y="1116.0" type="line"/>
      <point x="1050.0" y="1136.0"/>
      <point x="990.0" y="1144.0"/>
      <point x="922.0" y="1144.0" type="curve" smooth="yes"/>
      <point x="658.0" y="1144.0"/>
      <point x="512.0" y="996.0"/>
      <point x="512.0" y="734.0" type="curve" smooth="yes"/>
      <point x="512.0" y="462.0"/>
      <point x="666.0" y="324.0"/>
    </contour>
    <contour>
      <point x="862.0" y="46.0" type="curve" smooth="yes"/>
      <point x="456.0" y="46.0"/>
      <point x="186.0" y="322.0"/>
      <point x="186.0" y="740.0" type="curve" smooth="yes"/>
      <point x="186.0" y="1158.0"/>
      <point x="456.0" y="1434.0"/>
      <point x="862.0" y="1434.0" type="curve" smooth="yes"/>
      <point x="1268.0" y="1434.0"/>
      <point x="1538.0" y="1158.0"/>
      <point x="1538.0" y="740.0" type="curve" smooth="yes"/>
      <point x="1538.0" y="322.0"/>
      <point x="1268.0" y="46.0"/>
    </contour>
  </outline>
</glyph>
<glyph name="guillemetleft" format="2">
  <advance width="881.0"/>
  <unicode hex="00AB"/>
  <outline>
    <contour>
      <point x="384.0" y="140.0" type="line"/>
      <point x="458.0" y="140.0" type="line"/>
      <point x="202.0" y="560.0" type="line"/>
      <point x="458.0" y="980.0" type="line"/>
      <point x="384.0" y="980.0" type="line"/>
      <point x="128.0" y="560.0" type="line"/>
    </contour>
    <contour>
      <point x="719.0" y="140.0" type="line"/>
      <point x="793.0" y="140.0" type="line"/>
      <point x="537.0" y="560.0" type="line"/>
      <point x="793.0" y="980.0" type="line"/>
      <point x="719.0" y="980.0" type="line"/>
      <point x="463.0" y="560.0" type="line"/>
    </contour>
  </outline>
</glyph>
<glyph name="registered" format="2">
  <advance width="1540.0"/>
  <unicode hex="00AE"/>
  <outline>
    <contour>
      <point x="770.0" y="268.0" type="curve" smooth="yes"/>
      <point x="1132.0" y="268.0"/>
      <point x="1380.0" y="518.0"/>
      <point x="1380.0" y="882.0" type="curve" smooth="yes"/>
      <point x="1380.0" y="1246.0"/>
      <point x="1132.0" y="1498.0"/>
      <point x="770.0" y="1498.0" type="curve" smooth="yes"/>
      <point x="408.0" y="1498.0"/>
      <point x="160.0" y="1246.0"/>
      <point x="160.0" y="882.0" type="curve" smooth="yes"/>
      <point x="160.0" y="518.0"/>
      <point x="408.0" y="268.0"/>
    </contour>
    <contour>
      <point x="948.0" y="600.0" type="line"/>
      <point x="1024.0" y="600.0" type="line"/>
      <point x="848.0" y="860.0" type="line"/>
      <point x="788.0" y="834.0" type="line"/>
    </contour>
    <contour>
      <point x="770.0" y="334.0" type="curve" smooth="yes"/>
      <point x="442.0" y="334.0"/>
      <point x="228.0" y="550.0"/>
      <point x="228.0" y="882.0" type="curve" smooth="yes"/>
      <point x="228.0" y="1214.0"/>
      <point x="442.0" y="1432.0"/>
      <point x="770.0" y="1432.0" type="curve" smooth="yes"/>
      <point x="1098.0" y="1432.0"/>
      <point x="1312.0" y="1214.0"/>
      <point x="1312.0" y="882.0" type="curve" smooth="yes"/>
      <point x="1312.0" y="550.0"/>
      <point x="1098.0" y="334.0"/>
    </contour>
    <contour>
      <point x="562.0" y="600.0" type="line"/>
      <point x="628.0" y="600.0" type="line"/>
      <point x="628.0" y="826.0" type="line"/>
      <point x="756.0" y="826.0" type="line" smooth="yes"/>
      <point x="918.0" y="826.0"/>
      <point x="1000.0" y="892.0"/>
      <point x="1000.0" y="1008.0" type="curve" smooth="yes"/>
      <point x="1000.0" y="1124.0"/>
      <point x="916.0" y="1192.0"/>
      <point x="756.0" y="1192.0" type="curve" smooth="yes"/>
      <point x="562.0" y="1192.0" type="line"/>
    </contour>
    <contour>
      <point x="628.0" y="888.0" type="line"/>
      <point x="628.0" y="1130.0" type="line"/>
      <point x="768.0" y="1130.0" type="line" smooth="yes"/>
      <point x="880.0" y="1130.0"/>
      <point x="934.0" y="1090.0"/>
      <point x="934.0" y="1008.0" type="curve" smooth="yes"/>
      <point x="934.0" y="926.0"/>
      <point x="882.0" y="888.0"/>
      <point x="768.0" y="888.0" type="curve" smooth="yes"/>
    </contour>
  </outline>
</glyph>
<glyph name="macron" format="2">
  <advance width="1000.0"/>
  <unicode hex="00AF"/>
  <anchor x="500.0" y="1200.0" name="_top"/>
  <anchor x="500.0" y="1556.0" name="top"/>
  <outline>
    <contour>
      <point x="217.0" y="1394.0" type="line"/>
      <point x="783.0" y="1394.0" type="line"/>
      <point x="783.0" y="1453.0" type="line"/>
      <point x="217.0" y="1453.0" type="line"/>
    </contour>
  </outline>
</glyph>
<glyph name="plusminus" format="2">
  <advance width="1062.0"/>
  <unicode hex="00B1"/>
  <outline>
    <contour>
      <point x="497.0" y="316.0" type="line"/>
      <point x="565.0" y="316.0" type="line"/>
      <point x="565.0" y="666.0" type="line"/>
      <point x="895.0" y="666.0" type="line"/>
      <point x="895.0" y="730.0" type="line"/>
      <point x="565.0" y="730.0" type="line"/>
      <point x="565.0" y="1080.0" type="line"/>
      <point x="497.0" y="1080.0" type="line"/>
      <point x="497.0" y="730.0" type="line"/>
      <point x="167.0" y="730.0" type="line"/>
      <point x="167.0" y="666.0" type="line"/>
      <point x="497.0" y="666.0" type="line"/>
    </contour>
    <contour>
      <point x="167.0" y="0.0" type="line"/>
      <point x="895.0" y="0.0" type="line"/>
      <point x="895.0" y="64.0" type="line"/>
      <point x="167.0" y="64.0" type="line"/>
    </contour>
  </outline>
</glyph>
<glyph name="acute" format="2">
  <advance width="1000.0"/>
  <unicode hex="00B4"/>
  <anchor x="500.0" y="1200.0" name="_top"/>
  <anchor x="500.0" y="1556.0" name="top"/>
  <outline>
    <contour>
      <point x="468.0" y="1264.0" type="line"/>
      <point x="532.0" y="1264.0" type="line"/>
      <point x="754.0" y="1616.0" type="line"/>
      <point x="676.0" y="1616.0" type="line"/>
    </contour>
  </outline>
</glyph>
<glyph name="micro" format="2">
  <advance width="1077.0"/>
  <unicode hex="00B5"/>
  <outline>
    <contour>
      <point x="486.0" y="-18.0" type="curve" smooth="yes"/>
      <point x="614.0" y="-18.0"/>
      <point x="739.0" y="29.0"/>
      <point x="833.0" y="124.0" type="curve"/>
      <point x="841.0" y="124.0" type="line"/>
      <point x="847.0" y="0.0" type="line"/>
      <point x="907.0" y="0.0" type="line"/>
      <point x="907.0" y="1080.0" type="line"/>
      <point x="839.0" y="1080.0" type="line"/>
      <point x="839.0" y="225.0" type="line"/>
      <point x="746.0" y="97.0"/>
      <point x="602.0" y="48.0"/>
      <point x="488.0" y="48.0" type="curve" smooth="yes"/>
      <point x="332.0" y="48.0"/>
      <point x="224.0" y="121.0"/>
      <point x="224.0" y="338.0" type="curve" smooth="yes"/>
      <point x="224.0" y="470.0" type="line"/>
      <point x="176.0" y="470.0" type="line"/>
      <point x="176.0" y="339.0" type="line" smooth="yes"/>
      <point x="176.0" y="74.0"/>
      <point x="294.0" y="-18.0"/>
    </contour>
    <contour>
      <point x="156.0" y="-440.0" type="line"/>
      <point x="224.0" y="-440.0" type="line"/>
      <point x="224.0" y="1080.0" type="line"/>
      <point x="156.0" y="1080.0" type="line"/>
    </contour>
  </outline>
</glyph>
<glyph name="periodcentered" format="2">
  <advance width="406.0"/>
  <unicode hex="00B7"/>
  <anchor x="203.0" y="560.0" name="_periodcentered"/>
  <outline>
    <contour>
      <point x="203.0" y="496.0" type="curve" smooth="yes"/>
      <point x="239.0" y="496.0"/>
      <point x="265.0" y="520.0"/>
      <point x="265.0" y="558.0" type="curve" smooth="yes"/>
      <point x="265.0" y="596.0"/>
      <point x="239.0" y="622.0"/>
      <point x="203.0" y="622.0" type="curve" smooth="yes"/>
      <point x="167.0" y="622.0"/>
      <point x="141.0" y="596.0"/>
      <point x="141.0" y="558.0" type="curve" smooth="yes"/>
      <point x="141.0" y="520.0"/>
      <point x="167.0" y="496.0"/>
    </contour>
  </outline>
</glyph>
<glyph name="onesuperior" format="2">
  <advance width="749.0"/>
  <unicode hex="00B9"/>
  <outline>
    <contour>
      <point x="385.0" y="-116.0" type="line"/>
      <point x="449.0" y="-116.0" type="line"/>
      <point x="449.0" y="868.0" type="line"/>
      <point x="408.0" y="868.0" type="line"/>
      <point x="140.0" y="669.0" type="line"/>
      <point x="140.0" y="597.0" type="line"/>
      <point x="408.0" y="796.0" type="line"/>
      <point x="385.0" y="807.0" type="line"/>
    </contour>
    <contour>
      <point x="145.0" y="-136.0" type="line"/>
      <point x="677.0" y="-136.0" type="line"/>
      <point x="677.0" y="-74.0" type="line"/>
      <point x="145.0" y="-74.0" type="line"/>
    </contour>
  </outline>
</glyph>
<glyph name="guillemetright" format="2">
  <advance width="881.0"/>
  <unicode hex="00BB"/>
  <outline>
    <contour>
      <point x="88.0" y="140.0" type="line"/>
      <point x="162.0" y="140.0" type="line"/>
      <point x="418.0" y="560.0" type="line"/>
      <point x="162.0" y="980.0" type="line"/>
      <point x="88.0" y="980.0" type="line"/>
      <point x="344.0" y="560.0" type="line"/>
    </contour>
    <contour>
      <point x="423.0" y="140.0" type="line"/>
      <point x="497.0" y="140.0" type="line"/>
      <point x="753.0" y="560.0" type="line"/>
      <point x="497.0" y="980.0" type="line"/>
      <point x="423.0" y="980.0" type="line"/>
      <point x="679.0" y="560.0" type="line"/>
    </contour>
  </outline>
</glyph>
<glyph name="onequarter" format="2">
  <advance width="1721.0"/>
  <unicode hex="00BC"/>
  <outline>
    <contour>
      <point x="385.0" y="636.0" type="line"/>
      <point x="449.0" y="636.0" type="line"/>
      <point x="449.0" y="1620.0" type="line"/>
      <point x="408.0" y="1620.0" type="line"/>
      <point x="140.0" y="1421.0" type="line"/>
      <point x="140.0" y="1349.0" type="line"/>
      <point x="408.0" y="1548.0" type="line"/>
      <point x="385.0" y="1559.0" type="line"/>
    </contour>
    <contour>
      <point x="145.0" y="616.0" type="line"/>
      <point x="677.0" y="616.0" type="line"/>
      <point x="677.0" y="678.0" type="line"/>
      <point x="145.0" y="678.0" type="line"/>
    </contour>
    <contour>
      <point x="434.0" y="-136.0" type="line"/>
      <point x="500.0" y="-136.0" type="line"/>
      <point x="1287.0" y="1616.0" type="line"/>
      <point x="1221.0" y="1616.0" type="line"/>
    </contour>
    <contour>
      <point x="1005.0" y="116.0" type="line"/>
      <point x="1694.0" y="116.0" type="line"/>
      <point x="1694.0" y="176.0" type="line"/>
      <point x="1059.0" y="176.0" type="line"/>
      <point x="1073.0" y="155.0" type="line"/>
      <point x="1461.0" y="864.0" type="line"/>
      <point x="1393.0" y="864.0" type="line"/>
      <point x="1005.0" y="156.0" type="line"/>
    </contour>
    <contour>
      <point x="1486.0" y="-136.0" type="line"/>
      <point x="1548.0" y="-136.0" type="line"/>
      <point x="1548.0" y="526.0" type="line"/>
      <point x="1498.0" y="526.0" type="line"/>
      <point x="1486.0" y="176.0" type="line"/>
    </contour>
  </outline>
</glyph>
<glyph name="onehalf" format="2">
  <advance width="1721.0"/>
  <unicode hex="00BD"/>
  <outline>
    <contour>
      <point x="385.0" y="636.0" type="line"/>
      <point x="449.0" y="636.0" type="line"/>
      <point x="449.0" y="1620.0" type="line"/>
      <point x="408.0" y="1620.0" type="line"/>
      <point x="140.0" y="1421.0" type="line"/>
      <point x="140.0" y="1349.0" type="line"/>
      <point x="408.0" y="1548.0" type="line"/>
      <point x="385.0" y="1559.0" type="line"/>
    </contour>
    <contour>
      <point x="145.0" y="616.0" type="line"/>
      <point x="677.0" y="616.0" type="line"/>
      <point x="677.0" y="678.0" type="line"/>
      <point x="145.0" y="678.0" type="line"/>
    </contour>
    <contour>
      <point x="434.0" y="-136.0" type="line"/>
      <point x="500.0" y="-136.0" type="line"/>
      <point x="1287.0" y="1616.0" type="line"/>
      <point x="1221.0" y="1616.0" type="line"/>
    </contour>
    <contour>
      <point x="1066.0" y="-136.0" type="line"/>
      <point x="1629.0" y="-136.0" type="line"/>
      <point x="1629.0" y="-74.0" type="line"/>
      <point x="1131.0" y="-74.0" type="line"/>
      <point x="1141.0" y="-95.0" type="line"/>
      <point x="1416.0" y="263.0" type="line" smooth="yes"/>
      <point x="1535.0" y="417.0"/>
      <point x="1580.0" y="509.0"/>
      <point x="1581.0" y="618.0" type="curve" smooth="yes"/>
      <point x="1582.0" y="798.0"/>
      <point x="1470.0" y="876.0"/>
      <point x="1282.0" y="876.0" type="curve" smooth="yes"/>
      <point x="1195.0" y="876.0"/>
      <point x="1114.0" y="863.0"/>
      <point x="1054.0" y="838.0" type="curve"/>
      <point x="1054.0" y="774.0" type="line"/>
      <point x="1123.0" y="801.0"/>
      <point x="1195.0" y="814.0"/>
      <point x="1279.0" y="814.0" type="curve" smooth="yes"/>
      <point x="1432.0" y="814.0"/>
      <point x="1515.0" y="756.0"/>
      <point x="1515.0" y="614.0" type="curve" smooth="yes"/>
      <point x="1515.0" y="522.0"/>
      <point x="1472.0" y="436.0"/>
      <point x="1366.0" y="299.0" type="curve" smooth="yes"/>
      <point x="1066.0" y="-97.0" type="line"/>
    </contour>
  </outline>
</glyph>
<glyph name="threequarters" format="2">
  <advance width="1721.0"/>
  <unicode hex="00BE"/>
  <outline>
    <contour>
      <point x="314.0" y="604.0" type="curve" smooth="yes"/>
      <point x="545.0" y="604.0"/>
      <point x="667.0" y="706.0"/>
      <point x="667.0" y="883.0" type="curve" smooth="yes"/>
      <point x="667.0" y="1030.0"/>
      <point x="572.0" y="1124.0"/>
      <point x="398.0" y="1145.0" type="curve"/>
      <point x="398.0" y="1128.0" type="line"/>
      <point x="542.0" y="1158.0"/>
      <point x="633.0" y="1248.0"/>
      <point x="633.0" y="1380.0" type="curve" smooth="yes"/>
      <point x="633.0" y="1538.0"/>
      <point x="523.0" y="1628.0"/>
      <point x="326.0" y="1628.0" type="curve" smooth="yes"/>
      <point x="246.0" y="1628.0"/>
      <point x="162.0" y="1616.0"/>
      <point x="99.0" y="1592.0" type="curve"/>
      <point x="99.0" y="1528.0" type="line"/>
      <point x="173.0" y="1556.0"/>
      <point x="247.0" y="1567.0"/>
      <point x="323.0" y="1567.0" type="curve" smooth="yes"/>
      <point x="483.0" y="1567.0"/>
      <point x="569.0" y="1501.0"/>
      <point x="569.0" y="1377.0" type="curve" smooth="yes"/>
      <point x="569.0" y="1238.0"/>
      <point x="460.0" y="1161.0"/>
      <point x="258.0" y="1161.0" type="curve" smooth="yes"/>
      <point x="210.0" y="1161.0" type="line"/>
      <point x="210.0" y="1099.0" type="line"/>
      <point x="323.0" y="1099.0" type="line" smooth="yes"/>
      <point x="514.0" y="1099.0"/>
      <point x="603.0" y="1019.0"/>
      <point x="603.0" y="886.0" type="curve" smooth="yes"/>
      <point x="603.0" y="742.0"/>
      <point x="504.0" y="665.0"/>
      <point x="314.0" y="665.0" type="curve" smooth="yes"/>
      <point x="237.0" y="665.0"/>
      <point x="152.0" y="678.0"/>
      <point x="72.0" y="707.0" type="curve"/>
      <point x="72.0" y="643.0" type="line"/>
      <point x="146.0" y="617.0"/>
      <point x="231.0" y="604.0"/>
    </contour>
    <contour>
      <point x="434.0" y="-136.0" type="line"/>
      <point x="500.0" y="-136.0" type="line"/>
      <point x="1287.0" y="1616.0" type="line"/>
      <point x="1221.0" y="1616.0" type="line"/>
    </contour>
    <contour>
      <point x="1005.0" y="116.0" type="line"/>
      <point x="1694.0" y="116.0" type="line"/>
      <point x="1694.0" y="176.0" type="line"/>
      <point x="1059.0" y="176.0" type="line"/>
      <point x="1073.0" y="155.0" type="line"/>
      <point x="1461.0" y="864.0" type="line"/>
      <point x="1393.0" y="864.0" type="line"/>
      <point x="1005.0" y="156.0" type="line"/>
    </contour>
    <contour>
      <point x="1486.0" y="-136.0" type="line"/>
      <point x="1548.0" y="-136.0" type="line"/>
      <point x="1548.0" y="526.0" type="line"/>
      <point x="1498.0" y="526.0" type="line"/>
      <point x="1486.0" y="176.0" type="line"/>
    </contour>
  </outline>
</glyph>
<glyph name="questiondown" format="2">
  <advance width="853.0"/>
  <unicode hex="00BF"/>
  <outline>
    <contour>
      <point x="493.0" y="780.0" type="line"/>
      <point x="445.0" y="780.0" type="line"/>
      <point x="435.0" y="395.0" type="line"/>
      <point x="154.0" y="280.0"/>
      <point x="64.0" y="155.0"/>
      <point x="64.0" y="-47.0" type="curve" smooth="yes"/>
      <point x="64.0" y="-267.0"/>
      <point x="217.0" y="-400.0"/>
      <point x="490.0" y="-400.0" type="curve" smooth="yes"/>
      <point x="603.0" y="-400.0"/>
      <point x="717.0" y="-381.0"/>
      <point x="809.0" y="-346.0" type="curve"/>
      <point x="809.0" y="-278.0" type="line"/>
      <point x="703.0" y="-317.0"/>
      <point x="600.0" y="-334.0"/>
      <point x="491.0" y="-334.0" type="curve" smooth="yes"/>
      <point x="259.0" y="-334.0"/>
      <point x="134.0" y="-230.0"/>
      <point x="134.0" y="-47.0" type="curve" smooth="yes"/>
      <point x="134.0" y="136.0"/>
      <point x="227.0" y="249.0"/>
      <point x="505.0" y="350.0" type="curve"/>
    </contour>
    <contour>
      <point x="469.0" y="1090.0" type="curve" smooth="yes"/>
      <point x="431.0" y="1090.0"/>
      <point x="407.0" y="1064.0"/>
      <point x="407.0" y="1028.0" type="curve" smooth="yes"/>
      <point x="407.0" y="990.0"/>
      <point x="433.0" y="964.0"/>
      <point x="469.0" y="964.0" type="curve" smooth="yes"/>
      <point x="505.0" y="964.0"/>
      <point x="531.0" y="990.0"/>
      <point x="531.0" y="1028.0" type="curve" smooth="yes"/>
      <point x="531.0" y="1064.0"/>
      <point x="505.0" y="1090.0"/>
    </contour>
  </outline>
</glyph>
<glyph name="Atilde" format="2">
  <advance width="1286.0"/>
  <unicode hex="00C3"/>
  <anchor x="644.0" y="1520.0" name="_top"/>
  <anchor x="644.0" y="0.0" name="bottom"/>
  <anchor x="1249.0" y="0.0" name="ogonek"/>
  <anchor x="644.0" y="1520.0" name="top"/>
  <outline>
    <contour>
      <point x="37.0" y="0.0" type="line"/>
      <point x="110.0" y="0.0" type="line"/>
      <point x="654.0" y="1440.0" type="line"/>
      <point x="630.0" y="1440.0" type="line"/>
      <point x="1174.0" y="0.0" type="line"/>
      <point x="1249.0" y="0.0" type="line"/>
      <point x="686.0" y="1480.0" type="line"/>
      <point x="600.0" y="1480.0" type="line"/>
    </contour>
    <contour>
      <point x="284.0" y="528.0" type="line"/>
      <point x="1002.0" y="528.0" type="line"/>
      <point x="982.0" y="594.0" type="line"/>
      <point x="304.0" y="594.0" type="line"/>
    </contour>
    <contour>
      <point x="788.0" y="1697.0" type="curve" smooth="yes"/>
      <point x="857.0" y="1697.0"/>
      <point x="908.0" y="1719.0"/>
      <point x="943.0" y="1758.0" type="curve"/>
      <point x="943.0" y="1825.0" type="line"/>
      <point x="900.0" y="1777.0"/>
      <point x="854.0" y="1754.0"/>
      <point x="788.0" y="1754.0" type="curve" smooth="yes"/>
      <point x="696.0" y="1754.0"/>
      <point x="612.0" y="1830.0"/>
      <point x="500.0" y="1830.0" type="curve" smooth="yes"/>
      <point x="431.0" y="1830.0"/>
      <point x="380.0" y="1808.0"/>
      <point x="345.0" y="1769.0" type="curve"/>
      <point x="345.0" y="1702.0" type="line"/>
      <point x="388.0" y="1750.0"/>
      <point x="434.0" y="1773.0"/>
      <point x="500.0" y="1773.0" type="curve" smooth="yes"/>
      <point x="592.0" y="1773.0"/>
      <point x="676.0" y="1697.0"/>
    </contour>
  </outline>
</glyph>
<glyph name="Adieresis" format="2">
  <advance width="1286.0"/>
  <unicode hex="00C4"/>
  <anchor x="644.0" y="1520.0" name="_top"/>
  <anchor x="644.0" y="0.0" name="bottom"/>
  <anchor x="1249.0" y="0.0" name="ogonek"/>
  <anchor x="644.0" y="1520.0" name="top"/>
  <outline>
    <contour>
      <point x="37.0" y="0.0" type="line"/>
      <point x="110.0" y="0.0" type="line"/>
      <point x="654.0" y="1440.0" type="line"/>
      <point x="630.0" y="1440.0" type="line"/>
      <point x="1174.0" y="0.0" type="line"/>
      <point x="1249.0" y="0.0" type="line"/>
      <point x="686.0" y="1480.0" type="line"/>
      <point x="600.0" y="1480.0" type="line"/>
    </contour>
    <contour>
      <point x="284.0" y="528.0" type="line"/>
      <point x="1002.0" y="528.0" type="line"/>
      <point x="982.0" y="594.0" type="line"/>
      <point x="304.0" y="594.0" type="line"/>
    </contour>
    <contour>
      <point x="864.0" y="1690.0" type="curve" smooth="yes"/>
      <point x="900.0" y="1690.0"/>
      <point x="926.0" y="1714.0"/>
      <point x="926.0" y="1752.0" type="curve" smooth="yes"/>
      <point x="926.0" y="1790.0"/>
      <point x="900.0" y="1816.0"/>
      <point x="864.0" y="1816.0" type="curve" smooth="yes"/>
      <point x="828.0" y="1816.0"/>
      <point x="802.0" y="1790.0"/>
      <point x="802.0" y="1752.0" type="curve" smooth="yes"/>
      <point x="802.0" y="1714.0"/>
      <point x="828.0" y="1690.0"/>
    </contour>
    <contour>
      <point x="424.0" y="1690.0" type="curve" smooth="yes"/>
      <point x="460.0" y="1690.0"/>
      <point x="486.0" y="1714.0"/>
      <point x="486.0" y="1752.0" type="curve" smooth="yes"/>
      <point x="486.0" y="1790.0"/>
      <point x="460.0" y="1816.0"/>
      <point x="424.0" y="1816.0" type="curve" smooth="yes"/>
      <point x="388.0" y="1816.0"/>
      <point x="362.0" y="1790.0"/>
      <point x="362.0" y="1752.0" type="curve" smooth="yes"/>
      <point x="362.0" y="1714.0"/>
      <point x="388.0" y="1690.0"/>
    </contour>
  </outline>
</glyph>
<glyph name="Aring" format="2">
  <advance width="1286.0"/>
  <unicode hex="00C5"/>
  <anchor x="647.0" y="1340.0" name="_top"/>
  <anchor x="644.0" y="0.0" name="bottom"/>
  <anchor x="1249.0" y="0.0" name="ogonek"/>
  <anchor x="644.0" y="1520.0" name="top"/>
  <outline>
    <contour>
      <point x="37.0" y="0.0" type="line"/>
      <point x="110.0" y="0.0" type="line"/>
      <point x="654.0" y="1440.0" type="line"/>
      <point x="630.0" y="1440.0" type="line"/>
      <point x="1174.0" y="0.0" type="line"/>
      <point x="1249.0" y="0.0" type="line"/>
      <point x="686.0" y="1480.0" type="line"/>
      <point x="600.0" y="1480.0" type="line"/>
    </contour>
    <contour>
      <point x="284.0" y="528.0" type="line"/>
      <point x="1002.0" y="528.0" type="line"/>
      <point x="982.0" y="594.0" type="line"/>
      <point x="304.0" y="594.0" type="line"/>
    </contour>
    <contour>
      <point x="647.0" y="1431.0" type="curve" smooth="yes"/>
      <point x="753.0" y="1431.0"/>
      <point x="831.0" y="1509.0"/>
      <point x="831.0" y="1615.0" type="curve" smooth="yes"/>
      <point x="831.0" y="1721.0"/>
      <point x="753.0" y="1799.0"/>
      <point x="647.0" y="1799.0" type="curve" smooth="yes"/>
      <point x="541.0" y="1799.0"/>
      <point x="463.0" y="1721.0"/>
      <point x="463.0" y="1615.0" type="curve" smooth="yes"/>
      <point x="463.0" y="1509.0"/>
      <point x="541.0" y="1431.0"/>
    </contour>
    <contour>
      <point x="647.0" y="1483.0" type="curve" smooth="yes"/>
      <point x="571.0" y="1483.0"/>
      <point x="517.0" y="1533.0"/>
      <point x="517.0" y="1615.0" type="curve" smooth="yes"/>
      <point x="517.0" y="1697.0"/>
      <point x="571.0" y="1747.0"/>
      <point x="647.0" y="1747.0" type="curve" smooth="yes"/>
      <point x="723.0" y="1747.0"/>
      <point x="777.0" y="1697.0"/>
      <point x="777.0" y="1615.0" type="curve" smooth="yes"/>
      <point x="777.0" y="1533.0"/>
      <point x="723.0" y="1483.0"/>
    </contour>
  </outline>
</glyph>
<glyph name="Edieresis" format="2">
  <advance width="1115.0"/>
  <unicode hex="00CB"/>
  <anchor x="634.0" y="1520.0" name="_top"/>
  <anchor x="636.0" y="0.0" name="bottom"/>
  <anchor x="964.0" y="0.0" name="ogonek"/>
  <anchor x="634.0" y="1520.0" name="top"/>
  <anchor x="41.0" y="1480.0" name="topleft"/>
  <outline>
    <contour>
      <point x="190.0" y="0.0" type="line"/>
      <point x="1044.0" y="0.0" type="line"/>
      <point x="1044.0" y="66.0" type="line"/>
      <point x="258.0" y="66.0" type="line"/>
      <point x="258.0" y="1414.0" type="line"/>
      <point x="1034.0" y="1414.0" type="line"/>
      <point x="1034.0" y="1480.0" type="line"/>
      <point x="190.0" y="1480.0" type="line"/>
    </contour>
    <contour>
      <point x="240.0" y="728.0" type="line"/>
      <point x="939.0" y="728.0" type="line"/>
      <point x="939.0" y="794.0" type="line"/>
      <point x="240.0" y="794.0" type="line"/>
    </contour>
    <contour>
      <point x="854.0" y="1690.0" type="curve" smooth="yes"/>
      <point x="890.0" y="1690.0"/>
      <point x="916.0" y="1714.0"/>
      <point x="916.0" y="1752.0" type="curve" smooth="yes"/>
      <point x="916.0" y="1790.0"/>
      <point x="890.0" y="1816.0"/>
      <point x="854.0" y="1816.0" type="curve" smooth="yes"/>
      <point x="818.0" y="1816.0"/>
      <point x="792.0" y="1790.0"/>
      <point x="792.0" y="1752.0" type="curve" smooth="yes"/>
      <point x="792.0" y="1714.0"/>
      <point x="818.0" y="1690.0"/>
    </contour>
    <contour>
      <point x="414.0" y="1690.0" type="curve" smooth="yes"/>
      <point x="450.0" y="1690.0"/>
      <point x="476.0" y="1714.0"/>
      <point x="476.0" y="1752.0" type="curve" smooth="yes"/>
      <point x="476.0" y="1790.0"/>
      <point x="450.0" y="1816.0"/>
      <point x="414.0" y="1816.0" type="curve" smooth="yes"/>
      <point x="378.0" y="1816.0"/>
      <point x="352.0" y="1790.0"/>
      <point x="352.0" y="1752.0" type="curve" smooth="yes"/>
      <point x="352.0" y="1714.0"/>
      <point x="378.0" y="1690.0"/>
    </contour>
  </outline>
</glyph>
<glyph name="Igrave" format="2">
  <advance width="448.0"/>
  <unicode hex="00CC"/>
  <anchor x="224.0" y="1520.0" name="_top"/>
  <anchor x="224.0" y="0.0" name="bottom"/>
  <anchor x="258.0" y="0.0" name="ogonek"/>
  <anchor x="224.0" y="1520.0" name="top"/>
  <outline>
    <contour>
      <point x="190.0" y="0.0" type="line"/>
      <point x="258.0" y="0.0" type="line"/>
      <point x="258.0" y="1480.0" type="line"/>
      <point x="190.0" y="1480.0" type="line"/>
    </contour>
    <contour>
      <point x="192.0" y="1616.0" type="line"/>
      <point x="256.0" y="1616.0" type="line"/>
      <point x="81.0" y="1888.0" type="line"/>
      <point x="2.0" y="1888.0" type="line"/>
    </contour>
  </outline>
</glyph>
<glyph name="Icircumflex" format="2">
  <advance width="448.0"/>
  <unicode hex="00CE"/>
  <anchor x="224.0" y="1520.0" name="_top"/>
  <anchor x="224.0" y="0.0" name="bottom"/>
  <anchor x="258.0" y="0.0" name="ogonek"/>
  <anchor x="224.0" y="1520.0" name="top"/>
  <outline>
    <contour>
      <point x="190.0" y="0.0" type="line"/>
      <point x="258.0" y="0.0" type="line"/>
      <point x="258.0" y="1480.0" type="line"/>
      <point x="190.0" y="1480.0" type="line"/>
    </contour>
    <contour>
      <point x="-54.0" y="1616.0" type="line"/>
      <point x="27.0" y="1616.0" type="line"/>
      <point x="237.0" y="1859.0" type="line"/>
      <point x="211.0" y="1859.0" type="line"/>
      <point x="421.0" y="1616.0" type="line"/>
      <point x="502.0" y="1616.0" type="line"/>
      <point x="262.0" y="1888.0" type="line"/>
      <point x="186.0" y="1888.0" type="line"/>
    </contour>
  </outline>
</glyph>
<glyph name="Idieresis" format="2">
  <advance width="448.0"/>
  <unicode hex="00CF"/>
  <anchor x="224.0" y="1520.0" name="_top"/>
  <anchor x="224.0" y="0.0" name="bottom"/>
  <anchor x="258.0" y="0.0" name="ogonek"/>
  <anchor x="224.0" y="1520.0" name="top"/>
  <outline>
    <contour>
      <point x="190.0" y="0.0" type="line"/>
      <point x="258.0" y="0.0" type="line"/>
      <point x="258.0" y="1480.0" type="line"/>
      <point x="190.0" y="1480.0" type="line"/>
    </contour>
    <contour>
      <point x="444.0" y="1690.0" type="curve" smooth="yes"/>
      <point x="480.0" y="1690.0"/>
      <point x="506.0" y="1714.0"/>
      <point x="506.0" y="1752.0" type="curve" smooth="yes"/>
      <point x="506.0" y="1790.0"/>
      <point x="480.0" y="1816.0"/>
      <point x="444.0" y="1816.0" type="curve" smooth="yes"/>
      <point x="408.0" y="1816.0"/>
      <point x="382.0" y="1790.0"/>
      <point x="382.0" y="1752.0" type="curve" smooth="yes"/>
      <point x="382.0" y="1714.0"/>
      <point x="408.0" y="1690.0"/>
    </contour>
    <contour>
      <point x="4.0" y="1690.0" type="curve" smooth="yes"/>
      <point x="40.0" y="1690.0"/>
      <point x="66.0" y="1714.0"/>
      <point x="66.0" y="1752.0" type="curve" smooth="yes"/>
      <point x="66.0" y="1790.0"/>
      <point x="40.0" y="1816.0"/>
      <point x="4.0" y="1816.0" type="curve" smooth="yes"/>
      <point x="-32.0" y="1816.0"/>
      <point x="-58.0" y="1790.0"/>
      <point x="-58.0" y="1752.0" type="curve" smooth="yes"/>
      <point x="-58.0" y="1714.0"/>
      <point x="-32.0" y="1690.0"/>
    </contour>
  </outline>
</glyph>
<glyph name="Ntilde" format="2">
  <advance width="1427.0"/>
  <unicode hex="00D1"/>
  <anchor x="714.0" y="1520.0" name="_top"/>
  <anchor x="714.0" y="0.0" name="bottom"/>
  <anchor x="714.0" y="1520.0" name="top"/>
  <outline>
    <contour>
      <point x="190.0" y="0.0" type="line"/>
      <point x="256.0" y="0.0" type="line"/>
      <point x="256.0" y="1420.0" type="line"/>
      <point x="225.0" y="1420.0" type="line"/>
      <point x="1162.0" y="0.0" type="line"/>
      <point x="1237.0" y="0.0" type="line"/>
      <point x="1237.0" y="1480.0" type="line"/>
      <point x="1171.0" y="1480.0" type="line"/>
      <point x="1171.0" y="60.0" type="line"/>
      <point x="1202.0" y="60.0" type="line"/>
      <point x="265.0" y="1480.0" type="line"/>
      <point x="190.0" y="1480.0" type="line"/>
    </contour>
    <contour>
      <point x="858.0" y="1697.0" type="curve" smooth="yes"/>
      <point x="927.0" y="1697.0"/>
      <point x="978.0" y="1719.0"/>
      <point x="1013.0" y="1758.0" type="curve"/>
      <point x="1013.0" y="1825.0" type="line"/>
      <point x="970.0" y="1777.0"/>
      <point x="924.0" y="1754.0"/>
      <point x="858.0" y="1754.0" type="curve" smooth="yes"/>
      <point x="766.0" y="1754.0"/>
      <point x="682.0" y="1830.0"/>
      <point x="570.0" y="1830.0" type="curve" smooth="yes"/>
      <point x="501.0" y="1830.0"/>
      <point x="450.0" y="1808.0"/>
      <point x="415.0" y="1769.0" type="curve"/>
      <point x="415.0" y="1702.0" type="line"/>
      <point x="458.0" y="1750.0"/>
      <point x="504.0" y="1773.0"/>
      <point x="570.0" y="1773.0" type="curve" smooth="yes"/>
      <point x="662.0" y="1773.0"/>
      <point x="746.0" y="1697.0"/>
    </contour>
  </outline>
</glyph>
<glyph name="Otilde" format="2">
  <advance width="1368.0"/>
  <unicode hex="00D5"/>
  <anchor x="684.0" y="1520.0" name="_top"/>
  <anchor x="684.0" y="0.0" name="bottom"/>
  <anchor x="684.0" y="740.0" name="center"/>
  <anchor x="844.0" y="0.0" name="ogonek"/>
  <anchor x="684.0" y="1520.0" name="top"/>
  <anchor x="44.0" y="1480.0" name="topleft"/>
  <anchor x="843.0" y="1480.0" name="topright"/>
  <outline>
    <contour>
      <point x="684.0" y="-18.0" type="curve" smooth="yes"/>
      <point x="1020.0" y="-18.0"/>
      <point x="1250.0" y="195.0"/>
      <point x="1250.0" y="740.0" type="curve" smooth="yes"/>
      <point x="1250.0" y="1285.0"/>
      <point x="1023.0" y="1498.0"/>
      <point x="684.0" y="1498.0" type="curve" smooth="yes"/>
      <point x="348.0" y="1498.0"/>
      <point x="118.0" y="1285.0"/>
      <point x="118.0" y="740.0" type="curve" smooth="yes"/>
      <point x="118.0" y="195.0"/>
      <point x="345.0" y="-18.0"/>
    </contour>
    <contour>
      <point x="684.0" y="49.0" type="curve" smooth="yes"/>
      <point x="390.0" y="49.0"/>
      <point x="190.0" y="224.0"/>
      <point x="190.0" y="744.0" type="curve" smooth="yes"/>
      <point x="190.0" y="1256.0"/>
      <point x="390.0" y="1431.0"/>
      <point x="684.0" y="1431.0" type="curve" smooth="yes"/>
      <point x="978.0" y="1431.0"/>
      <point x="1178.0" y="1256.0"/>
      <point x="1178.0" y="736.0" type="curve" smooth="yes"/>
      <point x="1178.0" y="224.0"/>
      <point x="978.0" y="49.0"/>
    </contour>
    <contour>
      <point x="828.0" y="1697.0" type="curve" smooth="yes"/>
      <point x="897.0" y="1697.0"/>
      <point x="948.0" y="1719.0"/>
      <point x="983.0" y="1758.0" type="curve"/>
      <point x="983.0" y="1825.0" type="line"/>
      <point x="940.0" y="1777.0"/>
      <point x="894.0" y="1754.0"/>
      <point x="828.0" y="1754.0" type="curve" smooth="yes"/>
      <point x="736.0" y="1754.0"/>
      <point x="652.0" y="1830.0"/>
      <point x="540.0" y="1830.0" type="curve" smooth="yes"/>
      <point x="471.0" y="1830.0"/>
      <point x="420.0" y="1808.0"/>
      <point x="385.0" y="1769.0" type="curve"/>
      <point x="385.0" y="1702.0" type="line"/>
      <point x="428.0" y="1750.0"/>
      <point x="474.0" y="1773.0"/>
      <point x="540.0" y="1773.0" type="curve" smooth="yes"/>
      <point x="632.0" y="1773.0"/>
      <point x="716.0" y="1697.0"/>
    </contour>
  </outline>
</glyph>
<glyph name="Odieresis" format="2">
  <advance width="1368.0"/>
  <unicode hex="00D6"/>
  <anchor x="684.0" y="1520.0" name="_top"/>
  <anchor x="684.0" y="0.0" name="bottom"/>
  <anchor x="684.0" y="740.0" name="center"/>
  <anchor x="844.0" y="0.0" name="ogonek"/>
  <anchor x="684.0" y="1520.0" name="top"/>
  <anchor x="44.0" y="1480.0" name="topleft"/>
  <anchor x="843.0" y="1480.0" name="topright"/>
  <outline>
    <contour>
      <point x="684.0" y="-18.0" type="curve" smooth="yes"/>
      <point x="1020.0" y="-18.0"/>
      <point x="1250.0" y="195.0"/>
      <point x="1250.0" y="740.0" type="curve" smooth="yes"/>
      <point x="1250.0" y="1285.0"/>
      <point x="1023.0" y="1498.0"/>
      <point x="684.0" y="1498.0" type="curve" smooth="yes"/>
      <point x="348.0" y="1498.0"/>
      <point x="118.0" y="1285.0"/>
      <point x="118.0" y="740.0" type="curve" smooth="yes"/>
      <point x="118.0" y="195.0"/>
      <point x="345.0" y="-18.0"/>
    </contour>
    <contour>
      <point x="684.0" y="49.0" type="curve" smooth="yes"/>
      <point x="390.0" y="49.0"/>
      <point x="190.0" y="224.0"/>
      <point x="190.0" y="744.0" type="curve" smooth="yes"/>
      <point x="190.0" y="1256.0"/>
      <point x="390.0" y="1431.0"/>
      <point x="684.0" y="1431.0" type="curve" smooth="yes"/>
      <point x="978.0" y="1431.0"/>
      <point x="1178.0" y="1256.0"/>
      <point x="1178.0" y="736.0" type="curve" smooth="yes"/>
      <point x="1178.0" y="224.0"/>
      <point x="978.0" y="49.0"/>
    </contour>
    <contour>
      <point x="904.0" y="1690.0" type="curve" smooth="yes"/>
      <point x="940.0" y="1690.0"/>
      <point x="966.0" y="1714.0"/>
      <point x="966.0" y="1752.0" type="curve" smooth="yes"/>
      <point x="966.0" y="1790.0"/>
      <point x="940.0" y="1816.0"/>
      <point x="904.0" y="1816.0" type="curve" smooth="yes"/>
      <point x="868.0" y="1816.0"/>
      <point x="842.0" y="1790.0"/>
      <point x="842.0" y="1752.0" type="curve" smooth="yes"/>
      <point x="842.0" y="1714.0"/>
      <point x="868.0" y="1690.0"/>
    </contour>
    <contour>
      <point x="464.0" y="1690.0" type="curve" smooth="yes"/>
      <point x="500.0" y="1690.0"/>
      <point x="526.0" y="1714.0"/>
      <point x="526.0" y="1752.0" type="curve" smooth="yes"/>
      <point x="526.0" y="1790.0"/>
      <point x="500.0" y="1816.0"/>
      <point x="464.0" y="1816.0" type="curve" smooth="yes"/>
      <point x="428.0" y="1816.0"/>
      <point x="402.0" y="1790.0"/>
      <point x="402.0" y="1752.0" type="curve" smooth="yes"/>
      <point x="402.0" y="1714.0"/>
      <point x="428.0" y="1690.0"/>
    </contour>
  </outline>
</glyph>
<glyph name="multiply" format="2">
  <advance width="976.0"/>
  <unicode hex="00D7"/>
  <outline>
    <contour>
      <point x="180.0" y="408.0" type="line"/>
      <point x="488.0" y="716.0" type="line"/>
      <point x="796.0" y="408.0" type="line"/>
      <point x="840.0" y="452.0" type="line"/>
      <point x="532.0" y="760.0" type="line"/>
      <point x="840.0" y="1068.0" type="line"/>
      <point x="796.0" y="1112.0" type="line"/>
      <point x="488.0" y="804.0" type="line"/>
      <point x="180.0" y="1112.0" type="line"/>
      <point x="136.0" y="1068.0" type="line"/>
      <point x="444.0" y="760.0" type="line"/>
      <point x="136.0" y="452.0" type="line"/>
    </contour>
  </outline>
</glyph>
<glyph name="Oslash" format="2">
  <advance width="1368.0"/>
  <unicode hex="00D8"/>
  <anchor x="684.0" y="740.0" name="_center"/>
  <anchor x="682.0" y="0.0" name="bottom"/>
  <anchor x="684.0" y="740.0" name="center"/>
  <anchor x="844.0" y="0.0" name="ogonek"/>
  <anchor x="680.0" y="1520.0" name="top"/>
  <anchor x="44.0" y="1480.0" name="topleft"/>
  <anchor x="843.0" y="1480.0" name="topright"/>
  <outline>
    <contour>
      <point x="684.0" y="-18.0" type="curve" smooth="yes"/>
      <point x="1020.0" y="-18.0"/>
      <point x="1250.0" y="195.0"/>
      <point x="1250.0" y="740.0" type="curve" smooth="yes"/>
      <point x="1250.0" y="1285.0"/>
      <point x="1023.0" y="1498.0"/>
      <point x="684.0" y="1498.0" type="curve" smooth="yes"/>
      <point x="348.0" y="1498.0"/>
      <point x="118.0" y="1285.0"/>
      <point x="118.0" y="740.0" type="curve" smooth="yes"/>
      <point x="118.0" y="195.0"/>
      <point x="345.0" y="-18.0"/>
    </contour>
    <contour>
      <point x="684.0" y="49.0" type="curve" smooth="yes"/>
      <point x="390.0" y="49.0"/>
      <point x="190.0" y="224.0"/>
      <point x="190.0" y="744.0" type="curve" smooth="yes"/>
      <point x="190.0" y="1256.0"/>
      <point x="390.0" y="1431.0"/>
      <point x="684.0" y="1431.0" type="curve" smooth="yes"/>
      <point x="978.0" y="1431.0"/>
      <point x="1178.0" y="1256.0"/>
      <point x="1178.0" y="736.0" type="curve" smooth="yes"/>
      <point x="1178.0" y="224.0"/>
      <point x="978.0" y="49.0"/>
    </contour>
    <contour>
      <point x="176.0" y="-16.0" type="line"/>
      <point x="1243.0" y="1460.0" type="line"/>
      <point x="1192.0" y="1496.0" type="line"/>
      <point x="125.0" y="20.0" type="line"/>
    </contour>
  </outline>
</glyph>
<glyph name="Ucircumflex" format="2">
  <advance width="1372.0"/>
  <unicode hex="00DB"/>
  <anchor x="687.0" y="1520.0" name="_top"/>
  <anchor x="687.0" y="0.0" name="bottom"/>
  <anchor x="822.0" y="2.0" name="ogonek"/>
  <anchor x="687.0" y="1520.0" name="top"/>
  <anchor x="1124.0" y="1480.0" name="topright"/>
  <outline>
    <contour>
      <point x="687.0" y="-18.0" type="curve" smooth="yes"/>
      <point x="1034.0" y="-18.0"/>
      <point x="1190.0" y="150.0"/>
      <point x="1190.0" y="529.0" type="curve" smooth="yes"/>
      <point x="1190.0" y="1480.0" type="line"/>
      <point x="1124.0" y="1480.0" type="line"/>
      <point x="1124.0" y="519.0" type="line" smooth="yes"/>
      <point x="1124.0" y="194.0"/>
      <point x="992.0" y="48.0"/>
      <point x="687.0" y="48.0" type="curve" smooth="yes"/>
      <point x="382.0" y="48.0"/>
      <point x="250.0" y="194.0"/>
      <point x="250.0" y="519.0" type="curve" smooth="yes"/>
      <point x="250.0" y="1480.0" type="line"/>
      <point x="182.0" y="1480.0" type="line"/>
      <point x="182.0" y="529.0" type="line" smooth="yes"/>
      <point x="182.0" y="150.0"/>
      <point x="340.0" y="-18.0"/>
    </contour>
    <contour>
      <point x="409.0" y="1616.0" type="line"/>
      <point x="490.0" y="1616.0" type="line"/>
      <point x="700.0" y="1859.0" type="line"/>
      <point x="674.0" y="1859.0" type="line"/>
      <point x="884.0" y="1616.0" type="line"/>
      <point x="965.0" y="1616.0" type="line"/>
      <point x="725.0" y="1888.0" type="line"/>
      <point x="649.0" y="1888.0" type="line"/>
    </contour>
  </outline>
</glyph>
<glyph name="Udieresis" format="2">
  <advance width="1372.0"/>
  <unicode hex="00DC"/>
  <anchor x="687.0" y="1520.0" name="_top"/>
  <anchor x="687.0" y="0.0" name="bottom"/>
  <anchor x="822.0" y="2.0" name="ogonek"/>
  <anchor x="687.0" y="1520.0" name="top"/>
  <anchor x="1124.0" y="1480.0" name="topright"/>
  <outline>
    <contour>
      <point x="687.0" y="-18.0" type="curve" smooth="yes"/>
      <point x="1034.0" y="-18.0"/>
      <point x="1190.0" y="150.0"/>
      <point x="1190.0" y="529.0" type="curve" smooth="yes"/>
      <point x="1190.0" y="1480.0" type="line"/>
      <point x="1124.0" y="1480.0" type="line"/>
      <point x="1124.0" y="519.0" type="line" smooth="yes"/>
      <point x="1124.0" y="194.0"/>
      <point x="992.0" y="48.0"/>
      <point x="687.0" y="48.0" type="curve" smooth="yes"/>
      <point x="382.0" y="48.0"/>
      <point x="250.0" y="194.0"/>
      <point x="250.0" y="519.0" type="curve" smooth="yes"/>
      <point x="250.0" y="1480.0" type="line"/>
      <point x="182.0" y="1480.0" type="line"/>
      <point x="182.0" y="529.0" type="line" smooth="yes"/>
      <point x="182.0" y="150.0"/>
      <point x="340.0" y="-18.0"/>
    </contour>
    <contour>
      <point x="907.0" y="1690.0" type="curve" smooth="yes"/>
      <point x="943.0" y="1690.0"/>
      <point x="969.0" y="1714.0"/>
      <point x="969.0" y="1752.0" type="curve" smooth="yes"/>
      <point x="969.0" y="1790.0"/>
      <point x="943.0" y="1816.0"/>
      <point x="907.0" y="1816.0" type="curve" smooth="yes"/>
      <point x="871.0" y="1816.0"/>
      <point x="845.0" y="1790.0"/>
      <point x="845.0" y="1752.0" type="curve" smooth="yes"/>
      <point x="845.0" y="1714.0"/>
      <point x="871.0" y="1690.0"/>
    </contour>
    <contour>
      <point x="467.0" y="1690.0" type="curve" smooth="yes"/>
      <point x="503.0" y="1690.0"/>
      <point x="529.0" y="1714.0"/>
      <point x="529.0" y="1752.0" type="curve" smooth="yes"/>
      <point x="529.0" y="1790.0"/>
      <point x="503.0" y="1816.0"/>
      <point x="467.0" y="1816.0" type="curve" smooth="yes"/>
      <point x="431.0" y="1816.0"/>
      <point x="405.0" y="1790.0"/>
      <point x="405.0" y="1752.0" type="curve" smooth="yes"/>
      <point x="405.0" y="1714.0"/>
      <point x="431.0" y="1690.0"/>
    </contour>
  </outline>
</glyph>
<glyph name="adieresis" format="2">
  <advance width="979.0"/>
  <unicode hex="00E4"/>
  <anchor x="485.0" y="1200.0" name="_top"/>
  <anchor x="499.0" y="0.0" name="bottom"/>
  <anchor x="823.0" y="0.0" name="ogonek"/>
  <anchor x="485.0" y="1200.0" name="top"/>
  <outline>
    <contour>
      <point x="422.0" y="-16.0" type="curve" smooth="yes"/>
      <point x="554.0" y="-16.0"/>
      <point x="675.0" y="38.0"/>
      <point x="749.0" y="128.0" type="curve"/>
      <point x="757.0" y="128.0" type="line"/>
      <point x="763.0" y="0.0" type="line"/>
      <point x="823.0" y="0.0" type="line"/>
      <point x="823.0" y="746.0" type="line" smooth="yes"/>
      <point x="823.0" y="1012.0"/>
      <point x="689.0" y="1096.0"/>
      <point x="457.0" y="1096.0" type="curve" smooth="yes"/>
      <point x="362.0" y="1096.0"/>
      <point x="249.0" y="1079.0"/>
      <point x="166.0" y="1047.0" type="curve"/>
      <point x="166.0" y="979.0" type="line"/>
      <point x="270.0" y="1016.0"/>
      <point x="375.0" y="1030.0"/>
      <point x="457.0" y="1030.0" type="curve" smooth="yes"/>
      <point x="647.0" y="1030.0"/>
      <point x="755.0" y="972.0"/>
      <point x="755.0" y="746.0" type="curve" smooth="yes"/>
      <point x="755.0" y="220.0" type="line"/>
      <point x="664.0" y="98.0"/>
      <point x="542.0" y="50.0"/>
      <point x="425.0" y="50.0" type="curve" smooth="yes"/>
      <point x="263.0" y="50.0"/>
      <point x="182.0" y="127.0"/>
      <point x="182.0" y="273.0" type="curve" smooth="yes"/>
      <point x="182.0" y="410.0"/>
      <point x="264.0" y="485.0"/>
      <point x="465.0" y="508.0" type="curve" smooth="yes"/>
      <point x="797.0" y="547.0" type="line"/>
      <point x="794.0" y="613.0" type="line"/>
      <point x="467.0" y="574.0" type="line" smooth="yes"/>
      <point x="217.0" y="545.0"/>
      <point x="108.0" y="447.0"/>
      <point x="108.0" y="267.0" type="curve" smooth="yes"/>
      <point x="108.0" y="86.0"/>
      <point x="229.0" y="-16.0"/>
    </contour>
    <contour>
      <point x="685.0" y="1360.0" type="curve" smooth="yes"/>
      <point x="721.0" y="1360.0"/>
      <point x="747.0" y="1384.0"/>
      <point x="747.0" y="1422.0" type="curve" smooth="yes"/>
      <point x="747.0" y="1460.0"/>
      <point x="721.0" y="1486.0"/>
      <point x="685.0" y="1486.0" type="curve" smooth="yes"/>
      <point x="649.0" y="1486.0"/>
      <point x="623.0" y="1460.0"/>
      <point x="623.0" y="1422.0" type="curve" smooth="yes"/>
      <point x="623.0" y="1384.0"/>
      <point x="649.0" y="1360.0"/>
    </contour>
    <contour>
      <point x="285.0" y="1360.0" type="curve" smooth="yes"/>
      <point x="321.0" y="1360.0"/>
      <point x="347.0" y="1384.0"/>
      <point x="347.0" y="1422.0" type="curve" smooth="yes"/>
      <point x="347.0" y="1460.0"/>
      <point x="321.0" y="1486.0"/>
      <point x="285.0" y="1486.0" type="curve" smooth="yes"/>
      <point x="249.0" y="1486.0"/>
      <point x="223.0" y="1460.0"/>
      <point x="223.0" y="1422.0" type="curve" smooth="yes"/>
      <point x="223.0" y="1384.0"/>
      <point x="249.0" y="1360.0"/>
    </contour>
  </outline>
</glyph>
<glyph name="ccedilla" format="2">
  <advance width="826.0"/>
  <unicode hex="00E7"/>
  <anchor x="497.0" y="0.0" name="_bottom"/>
  <anchor x="497.0" y="0.0" name="bottom"/>
  <anchor x="500.0" y="1200.0" name="top"/>
  <outline>
    <contour>
      <point x="538.0" y="-18.0" type="curve" smooth="yes"/>
      <point x="621.0" y="-18.0"/>
      <point x="706.0" y="-3.0"/>
      <point x="793.0" y="29.0" type="curve"/>
      <point x="793.0" y="97.0" type="line"/>
      <point x="695.0" y="62.0"/>
      <point x="615.0" y="48.0"/>
      <point x="545.0" y="48.0" type="curve" smooth="yes"/>
      <point x="307.0" y="48.0"/>
      <point x="180.0" y="177.0"/>
      <point x="180.0" y="544.0" type="curve" smooth="yes"/>
      <point x="180.0" y="905.0"/>
      <point x="315.0" y="1030.0"/>
      <point x="585.0" y="1030.0" type="curve" smooth="yes"/>
      <point x="650.0" y="1030.0"/>
      <point x="721.0" y="1020.0"/>
      <point x="793.0" y="999.0" type="curve"/>
      <point x="793.0" y="1067.0" type="line"/>
      <point x="727.0" y="1087.0"/>
      <point x="651.0" y="1096.0"/>
      <point x="583.0" y="1096.0" type="curve" smooth="yes"/>
      <point x="275.0" y="1096.0"/>
      <point x="108.0" y="938.0"/>
      <point x="108.0" y="540.0" type="curve" smooth="yes"/>
      <point x="108.0" y="141.0"/>
      <point x="264.0" y="-18.0"/>
    </contour>
    <contour>
      <point x="502.0" y="-400.0" type="curve" smooth="yes"/>
      <point x="613.0" y="-400.0"/>
      <point x="678.0" y="-346.0"/>
      <point x="678.0" y="-257.0" type="curve" smooth="yes"/>
      <point x="678.0" y="-166.0"/>
      <point x="616.0" y="-113.0"/>
      <point x="504.0" y="-113.0" type="curve"/>
      <point x="527.0" y="-142.0" type="line"/>
      <point x="527.0" y="20.0" type="line"/>
      <point x="471.0" y="20.0" type="line"/>
      <point x="471.0" y="-164.0" type="line"/>
      <point x="503.0" y="-164.0" type="line" smooth="yes"/>
      <point x="582.0" y="-164.0"/>
      <point x="623.0" y="-193.0"/>
      <point x="623.0" y="-257.0" type="curve" smooth="yes"/>
      <point x="623.0" y="-318.0"/>
      <point x="584.0" y="-348.0"/>
      <point x="505.0" y="-348.0" type="curve" smooth="yes"/>
      <point x="453.0" y="-348.0"/>
      <point x="398.0" y="-338.0"/>
      <point x="339.0" y="-307.0" type="curve"/>
      <point x="339.0" y="-363.0" type="line"/>
      <point x="381.0" y="-387.0"/>
      <point x="447.0" y="-400.0"/>
    </contour>
  </outline>
</glyph>
<glyph name="egrave" format="2">
  <advance width="984.0"/>
  <unicode hex="00E8"/>
  <anchor x="508.0" y="1200.0" name="_top"/>
  <anchor x="508.0" y="0.0" name="bottom"/>
  <anchor x="740.0" y="0.0" name="ogonek"/>
  <anchor x="508.0" y="1200.0" name="top"/>
  <outline>
    <contour>
      <point x="572.0" y="-18.0" type="curve" smooth="yes"/>
      <point x="659.0" y="-18.0"/>
      <point x="745.0" y="-4.0"/>
      <point x="843.0" y="29.0" type="curve"/>
      <point x="843.0" y="97.0" type="line"/>
      <point x="740.0" y="64.0"/>
      <point x="656.0" y="48.0"/>
      <point x="576.0" y="48.0" type="curve" smooth="yes"/>
      <point x="323.0" y="48.0"/>
      <point x="180.0" y="178.0"/>
      <point x="180.0" y="535.0" type="curve" smooth="yes"/>
      <point x="180.0" y="550.0" type="line" smooth="yes"/>
      <point x="180.0" y="905.0"/>
      <point x="309.0" y="1030.0"/>
      <point x="507.0" y="1030.0" type="curve" smooth="yes"/>
      <point x="704.0" y="1030.0"/>
      <point x="822.0" y="904.0"/>
      <point x="822.0" y="550.0" type="curve"/>
      <point x="849.0" y="576.0" type="line"/>
      <point x="141.0" y="576.0" type="line"/>
      <point x="141.0" y="510.0" type="line"/>
      <point x="893.0" y="510.0" type="line"/>
      <point x="893.0" y="540.0" type="line" smooth="yes"/>
      <point x="893.0" y="934.0"/>
      <point x="747.0" y="1096.0"/>
      <point x="507.0" y="1096.0" type="curve" smooth="yes"/>
      <point x="269.0" y="1096.0"/>
      <point x="108.0" y="933.0"/>
      <point x="108.0" y="540.0" type="curve" smooth="yes"/>
      <point x="108.0" y="141.0"/>
      <point x="277.0" y="-18.0"/>
    </contour>
    <contour>
      <point x="476.0" y="1264.0" type="line"/>
      <point x="540.0" y="1264.0" type="line"/>
      <point x="332.0" y="1616.0" type="line"/>
      <point x="254.0" y="1616.0" type="line"/>
    </contour>
  </outline>
</glyph>
<glyph name="igrave" format="2">
  <advance width="408.0"/>
  <unicode hex="00EC"/>
  <anchor x="204.0" y="1200.0" name="_top"/>
  <anchor x="204.0" y="0.0" name="bottom"/>
  <anchor x="238.0" y="0.0" name="ogonek"/>
  <anchor x="204.0" y="1200.0" name="top"/>
  <outline>
    <contour>
      <point x="170.0" y="0.0" type="line"/>
      <point x="238.0" y="0.0" type="line"/>
      <point x="238.0" y="1080.0" type="line"/>
      <point x="170.0" y="1080.0" type="line"/>
    </contour>
    <contour>
      <point x="172.0" y="1264.0" type="line"/>
      <point x="236.0" y="1264.0" type="line"/>
      <point x="28.0" y="1616.0" type="line"/>
      <point x="-50.0" y="1616.0" type="line"/>
    </contour>
  </outline>
</glyph>
<glyph name="icircumflex" format="2">
  <advance width="408.0"/>
  <unicode hex="00EE"/>
  <anchor x="204.0" y="1200.0" name="_top"/>
  <anchor x="204.0" y="0.0" name="bottom"/>
  <anchor x="238.0" y="0.0" name="ogonek"/>
  <anchor x="204.0" y="1200.0" name="top"/>
  <outline>
    <contour>
      <point x="170.0" y="0.0" type="line"/>
      <point x="238.0" y="0.0" type="line"/>
      <point x="238.0" y="1080.0" type="line"/>
      <point x="170.0" y="1080.0" type="line"/>
    </contour>
    <contour>
      <point x="-52.0" y="1264.0" type="line"/>
      <point x="19.0" y="1264.0" type="line"/>
      <point x="217.0" y="1591.0" type="line"/>
      <point x="191.0" y="1591.0" type="line"/>
      <point x="389.0" y="1264.0" type="line"/>
      <point x="460.0" y="1264.0" type="line"/>
      <point x="242.0" y="1616.0" type="line"/>
      <point x="166.0" y="1616.0" type="line"/>
    </contour>
  </outline>
</glyph>
<glyph name="idieresis" format="2">
  <advance width="408.0"/>
  <unicode hex="00EF"/>
  <anchor x="204.0" y="1200.0" name="_top"/>
  <anchor x="204.0" y="0.0" name="bottom"/>
  <anchor x="238.0" y="0.0" name="ogonek"/>
  <anchor x="204.0" y="1200.0" name="top"/>
  <outline>
    <contour>
      <point x="170.0" y="0.0" type="line"/>
      <point x="238.0" y="0.0" type="line"/>
      <point x="238.0" y="1080.0" type="line"/>
      <point x="170.0" y="1080.0" type="line"/>
    </contour>
    <contour>
      <point x="404.0" y="1360.0" type="curve" smooth="yes"/>
      <point x="440.0" y="1360.0"/>
      <point x="466.0" y="1384.0"/>
      <point x="466.0" y="1422.0" type="curve" smooth="yes"/>
      <point x="466.0" y="1460.0"/>
      <point x="440.0" y="1486.0"/>
      <point x="404.0" y="1486.0" type="curve" smooth="yes"/>
      <point x="368.0" y="1486.0"/>
      <point x="342.0" y="1460.0"/>
      <point x="342.0" y="1422.0" type="curve" smooth="yes"/>
      <point x="342.0" y="1384.0"/>
      <point x="368.0" y="1360.0"/>
    </contour>
    <contour>
      <point x="4.0" y="1360.0" type="curve" smooth="yes"/>
      <point x="40.0" y="1360.0"/>
      <point x="66.0" y="1384.0"/>
      <point x="66.0" y="1422.0" type="curve" smooth="yes"/>
      <point x="66.0" y="1460.0"/>
      <point x="40.0" y="1486.0"/>
      <point x="4.0" y="1486.0" type="curve" smooth="yes"/>
      <point x="-32.0" y="1486.0"/>
      <point x="-58.0" y="1460.0"/>
      <point x="-58.0" y="1422.0" type="curve" smooth="yes"/>
      <point x="-58.0" y="1384.0"/>
      <point x="-32.0" y="1360.0"/>
    </contour>
  </outline>
</glyph>
<glyph name="ntilde" format="2">
  <advance width="1087.0"/>
  <unicode hex="00F1"/>
  <anchor x="551.0" y="1200.0" name="_top"/>
  <anchor x="13.0" y="1200.0" name="apostrophe"/>
  <anchor x="551.0" y="0.0" name="bottom"/>
  <anchor x="551.0" y="1200.0" name="top"/>
  <outline>
    <contour>
      <point x="170.0" y="0.0" type="line"/>
      <point x="238.0" y="0.0" type="line"/>
      <point x="238.0" y="853.0" type="line"/>
      <point x="334.0" y="985.0"/>
      <point x="482.0" y="1030.0"/>
      <point x="594.0" y="1030.0" type="curve" smooth="yes"/>
      <point x="758.0" y="1030.0"/>
      <point x="863.0" y="955.0"/>
      <point x="863.0" y="738.0" type="curve" smooth="yes"/>
      <point x="863.0" y="0.0" type="line"/>
      <point x="931.0" y="0.0" type="line"/>
      <point x="931.0" y="738.0" type="line" smooth="yes"/>
      <point x="931.0" y="1003.0"/>
      <point x="793.0" y="1096.0"/>
      <point x="596.0" y="1096.0" type="curve" smooth="yes"/>
      <point x="462.0" y="1096.0"/>
      <point x="337.0" y="1044.0"/>
      <point x="244.0" y="951.0" type="curve"/>
      <point x="236.0" y="951.0" type="line"/>
      <point x="230.0" y="1080.0" type="line"/>
      <point x="170.0" y="1080.0" type="line"/>
    </contour>
    <contour>
      <point x="685.0" y="1380.0" type="curve" smooth="yes"/>
      <point x="748.0" y="1380.0"/>
      <point x="799.0" y="1402.0"/>
      <point x="834.0" y="1441.0" type="curve"/>
      <point x="834.0" y="1508.0" type="line"/>
      <point x="791.0" y="1460.0"/>
      <point x="745.0" y="1437.0"/>
      <point x="685.0" y="1437.0" type="curve" smooth="yes"/>
      <point x="603.0" y="1437.0"/>
      <point x="519.0" y="1513.0"/>
      <point x="417.0" y="1513.0" type="curve" smooth="yes"/>
      <point x="354.0" y="1513.0"/>
      <point x="303.0" y="1491.0"/>
      <point x="268.0" y="1452.0" type="curve"/>
      <point x="268.0" y="1385.0" type="line"/>
      <point x="311.0" y="1433.0"/>
      <point x="357.0" y="1456.0"/>
      <point x="417.0" y="1456.0" type="curve" smooth="yes"/>
      <point x="499.0" y="1456.0"/>
      <point x="583.0" y="1380.0"/>
    </contour>
  </outline>
</glyph>
<glyph name="otilde" format="2">
  <advance width="1058.0"/>
  <unicode hex="00F5"/>
  <anchor x="529.0" y="1200.0" name="_top"/>
  <anchor x="529.0" y="0.0" name="bottom"/>
  <anchor x="529.0" y="540.0" name="center"/>
  <anchor x="663.0" y="0.0" name="ogonek"/>
  <anchor x="529.0" y="1200.0" name="top"/>
  <anchor x="655.0" y="1080.0" name="topright"/>
  <outline>
    <contour>
      <point x="529.0" y="-18.0" type="curve" smooth="yes"/>
      <point x="781.0" y="-18.0"/>
      <point x="950.0" y="143.0"/>
      <point x="950.0" y="540.0" type="curve" smooth="yes"/>
      <point x="950.0" y="941.0"/>
      <point x="781.0" y="1096.0"/>
      <point x="529.0" y="1096.0" type="curve" smooth="yes"/>
      <point x="277.0" y="1096.0"/>
      <point x="108.0" y="937.0"/>
      <point x="108.0" y="540.0" type="curve" smooth="yes"/>
      <point x="108.0" y="139.0"/>
      <point x="277.0" y="-18.0"/>
    </contour>
    <contour>
      <point x="529.0" y="48.0" type="curve" smooth="yes"/>
      <point x="317.0" y="48.0"/>
      <point x="180.0" y="172.0"/>
      <point x="180.0" y="543.0" type="curve" smooth="yes"/>
      <point x="180.0" y="908.0"/>
      <point x="317.0" y="1030.0"/>
      <point x="529.0" y="1030.0" type="curve" smooth="yes"/>
      <point x="741.0" y="1030.0"/>
      <point x="878.0" y="908.0"/>
      <point x="878.0" y="537.0" type="curve" smooth="yes"/>
      <point x="878.0" y="172.0"/>
      <point x="741.0" y="48.0"/>
    </contour>
    <contour>
      <point x="663.0" y="1380.0" type="curve" smooth="yes"/>
      <point x="726.0" y="1380.0"/>
      <point x="777.0" y="1402.0"/>
      <point x="812.0" y="1441.0" type="curve"/>
      <point x="812.0" y="1508.0" type="line"/>
      <point x="769.0" y="1460.0"/>
      <point x="723.0" y="1437.0"/>
      <point x="663.0" y="1437.0" type="curve" smooth="yes"/>
      <point x="581.0" y="1437.0"/>
      <point x="497.0" y="1513.0"/>
      <point x="395.0" y="1513.0" type="curve" smooth="yes"/>
      <point x="332.0" y="1513.0"/>
      <point x="281.0" y="1491.0"/>
      <point x="246.0" y="1452.0" type="curve"/>
      <point x="246.0" y="1385.0" type="line"/>
      <point x="289.0" y="1433.0"/>
      <point x="335.0" y="1456.0"/>
      <point x="395.0" y="1456.0" type="curve" smooth="yes"/>
      <point x="477.0" y="1456.0"/>
      <point x="561.0" y="1380.0"/>
    </contour>
  </outline>
</glyph>
<glyph name="odieresis" format="2">
  <advance width="1058.0"/>
  <unicode hex="00F6"/>
  <anchor x="529.0" y="1200.0" name="_top"/>
  <anchor x="529.0" y="0.0" name="bottom"/>
  <anchor x="529.0" y="540.0" name="center"/>
  <anchor x="663.0" y="0.0" name="ogonek"/>
  <anchor x="529.0" y="1200.0" name="top"/>
  <anchor x="655.0" y="1080.0" name="topright"/>
  <outline>
    <contour>
      <point x="529.0" y="-18.0" type="curve" smooth="yes"/>
      <point x="781.0" y="-18.0"/>
      <point x="950.0" y="143.0"/>
      <point x="950.0" y="540.0" type="curve" smooth="yes"/>
      <point x="950.0" y="941.0"/>
      <point x="781.0" y="1096.0"/>
      <point x="529.0" y="1096.0" type="curve" smooth="yes"/>
      <point x="277.0" y="1096.0"/>
      <point x="108.0" y="937.0"/>
      <point x="108.0" y="540.0" type="curve" smooth="yes"/>
      <point x="108.0" y="139.0"/>
      <point x="277.0" y="-18.0"/>
    </contour>
    <contour>
      <point x="529.0" y="48.0" type="curve" smooth="yes"/>
      <point x="317.0" y="48.0"/>
      <point x="180.0" y="172.0"/>
      <point x="180.0" y="543.0" type="curve" smooth="yes"/>
      <point x="180.0" y="908.0"/>
      <point x="317.0" y="1030.0"/>
      <point x="529.0" y="1030.0" type="curve" smooth="yes"/>
      <point x="741.0" y="1030.0"/>
      <point x="878.0" y="908.0"/>
      <point x="878.0" y="537.0" type="curve" smooth="yes"/>
      <point x="878.0" y="172.0"/>
      <point x="741.0" y="48.0"/>
    </contour>
    <contour>
      <point x="729.0" y="1360.0" type="curve" smooth="yes"/>
      <point x="765.0" y="1360.0"/>
      <point x="791.0" y="1384.0"/>
      <point x="791.0" y="1422.0" type="curve" smooth="yes"/>
      <point x="791.0" y="1460.0"/>
      <point x="765.0" y="1486.0"/>
      <point x="729.0" y="1486.0" type="curve" smooth="yes"/>
      <point x="693.0" y="1486.0"/>
      <point x="667.0" y="1460.0"/>
      <point x="667.0" y="1422.0" type="curve" smooth="yes"/>
      <point x="667.0" y="1384.0"/>
      <point x="693.0" y="1360.0"/>
    </contour>
    <contour>
      <point x="329.0" y="1360.0" type="curve" smooth="yes"/>
      <point x="365.0" y="1360.0"/>
      <point x="391.0" y="1384.0"/>
      <point x="391.0" y="1422.0" type="curve" smooth="yes"/>
      <point x="391.0" y="1460.0"/>
      <point x="365.0" y="1486.0"/>
      <point x="329.0" y="1486.0" type="curve" smooth="yes"/>
      <point x="293.0" y="1486.0"/>
      <point x="267.0" y="1460.0"/>
      <point x="267.0" y="1422.0" type="curve" smooth="yes"/>
      <point x="267.0" y="1384.0"/>
      <point x="293.0" y="1360.0"/>
    </contour>
  </outline>
</glyph>
<glyph name="ugrave" format="2">
  <advance width="1077.0"/>
  <unicode hex="00F9"/>
  <anchor x="532.0" y="1200.0" name="_top"/>
  <anchor x="532.0" y="0.0" name="bottom"/>
  <anchor x="907.0" y="0.0" name="ogonek"/>
  <anchor x="532.0" y="1200.0" name="top"/>
  <anchor x="839.0" y="1080.0" name="topright"/>
  <outline>
    <contour>
      <point x="486.0" y="-18.0" type="curve" smooth="yes"/>
      <point x="614.0" y="-18.0"/>
      <point x="739.0" y="29.0"/>
      <point x="833.0" y="124.0" type="curve"/>
      <point x="841.0" y="124.0" type="line"/>
      <point x="847.0" y="0.0" type="line"/>
      <point x="907.0" y="0.0" type="line"/>
      <point x="907.0" y="1080.0" type="line"/>
      <point x="839.0" y="1080.0" type="line"/>
      <point x="839.0" y="225.0" type="line"/>
      <point x="746.0" y="97.0"/>
      <point x="602.0" y="48.0"/>
      <point x="488.0" y="48.0" type="curve" smooth="yes"/>
      <point x="332.0" y="48.0"/>
      <point x="224.0" y="121.0"/>
      <point x="224.0" y="338.0" type="curve" smooth="yes"/>
      <point x="224.0" y="1080.0" type="line"/>
      <point x="156.0" y="1080.0" type="line"/>
      <point x="156.0" y="339.0" type="line" smooth="yes"/>
      <point x="156.0" y="74.0"/>
      <point x="294.0" y="-18.0"/>
    </contour>
    <contour>
      <point x="500.0" y="1264.0" type="line"/>
      <point x="564.0" y="1264.0" type="line"/>
      <point x="356.0" y="1616.0" type="line"/>
      <point x="278.0" y="1616.0" type="line"/>
    </contour>
  </outline>
</glyph>
<glyph name="ucircumflex" format="2">
  <advance width="1077.0"/>
  <unicode hex="00FB"/>
  <anchor x="532.0" y="1200.0" name="_top"/>
  <anchor x="532.0" y="0.0" name="bottom"/>
  <anchor x="907.0" y="0.0" name="ogonek"/>
  <anchor x="532.0" y="1200.0" name="top"/>
  <anchor x="839.0" y="1080.0" name="topright"/>
  <outline>
    <contour>
      <point x="486.0" y="-18.0" type="curve" smooth="yes"/>
      <point x="614.0" y="-18.0"/>
      <point x="739.0" y="29.0"/>
      <point x="833.0" y="124.0" type="curve"/>
      <point x="841.0" y="124.0" type="line"/>
      <point x="847.0" y="0.0" type="line"/>
      <point x="907.0" y="0.0" type="line"/>
      <point x="907.0" y="1080.0" type="line"/>
      <point x="839.0" y="1080.0" type="line"/>
      <point x="839.0" y="225.0" type="line"/>
      <point x="746.0" y="97.0"/>
      <point x="602.0" y="48.0"/>
      <point x="488.0" y="48.0" type="curve" smooth="yes"/>
      <point x="332.0" y="48.0"/>
      <point x="224.0" y="121.0"/>
      <point x="224.0" y="338.0" type="curve" smooth="yes"/>
      <point x="224.0" y="1080.0" type="line"/>
      <point x="156.0" y="1080.0" type="line"/>
      <point x="156.0" y="339.0" type="line" smooth="yes"/>
      <point x="156.0" y="74.0"/>
      <point x="294.0" y="-18.0"/>
    </contour>
    <contour>
      <point x="276.0" y="1264.0" type="line"/>
      <point x="347.0" y="1264.0" type="line"/>
      <point x="545.0" y="1591.0" type="line"/>
      <point x="519.0" y="1591.0" type="line"/>
      <point x="717.0" y="1264.0" type="line"/>
      <point x="788.0" y="1264.0" type="line"/>
      <point x="570.0" y="1616.0" type="line"/>
      <point x="494.0" y="1616.0" type="line"/>
    </contour>
  </outline>
</glyph>
<glyph name="udieresis" format="2">
  <advance width="1077.0"/>
  <unicode hex="00FC"/>
  <anchor x="532.0" y="1200.0" name="_top"/>
  <anchor x="532.0" y="0.0" name="bottom"/>
  <anchor x="907.0" y="0.0" name="ogonek"/>
  <anchor x="532.0" y="1200.0" name="top"/>
  <anchor x="839.0" y="1080.0" name="topright"/>
  <outline>
    <contour>
      <point x="486.0" y="-18.0" type="curve" smooth="yes"/>
      <point x="614.0" y="-18.0"/>
      <point x="739.0" y="29.0"/>
      <point x="833.0" y="124.0" type="curve"/>
      <point x="841.0" y="124.0" type="line"/>
      <point x="847.0" y="0.0" type="line"/>
      <point x="907.0" y="0.0" type="line"/>
      <point x="907.0" y="1080.0" type="line"/>
      <point x="839.0" y="1080.0" type="line"/>
      <point x="839.0" y="225.0" type="line"/>
      <point x="746.0" y="97.0"/>
      <point x="602.0" y="48.0"/>
      <point x="488.0" y="48.0" type="curve" smooth="yes"/>
      <point x="332.0" y="48.0"/>
      <point x="224.0" y="121.0"/>
      <point x="224.0" y="338.0" type="curve" smooth="yes"/>
      <point x="224.0" y="1080.0" type="line"/>
      <point x="156.0" y="1080.0" type="line"/>
      <point x="156.0" y="339.0" type="line" smooth="yes"/>
      <point x="156.0" y="74.0"/>
      <point x="294.0" y="-18.0"/>
    </contour>
    <contour>
      <point x="732.0" y="1360.0" type="curve" smooth="yes"/>
      <point x="768.0" y="1360.0"/>
      <point x="794.0" y="1384.0"/>
      <point x="794.0" y="1422.0" type="curve" smooth="yes"/>
      <point x="794.0" y="1460.0"/>
      <point x="768.0" y="1486.0"/>
      <point x="732.0" y="1486.0" type="curve" smooth="yes"/>
      <point x="696.0" y="1486.0"/>
      <point x="670.0" y="1460.0"/>
      <point x="670.0" y="1422.0" type="curve" smooth="yes"/>
      <point x="670.0" y="1384.0"/>
      <point x="696.0" y="1360.0"/>
    </contour>
    <contour>
      <point x="332.0" y="1360.0" type="curve" smooth="yes"/>
      <point x="368.0" y="1360.0"/>
      <point x="394.0" y="1384.0"/>
      <point x="394.0" y="1422.0" type="curve" smooth="yes"/>
      <point x="394.0" y="1460.0"/>
      <point x="368.0" y="1486.0"/>
      <point x="332.0" y="1486.0" type="curve" smooth="yes"/>
      <point x="296.0" y="1486.0"/>
      <point x="270.0" y="1460.0"/>
      <point x="270.0" y="1422.0" type="curve" smooth="yes"/>
      <point x="270.0" y="1384.0"/>
      <point x="296.0" y="1360.0"/>
    </contour>
  </outline>
</glyph>
<glyph name="ydieresis" format="2">
  <advance width="995.0"/>
  <unicode hex="00FF"/>
  <anchor x="499.0" y="1200.0" name="_top"/>
  <anchor x="723.0" y="0.0" name="bottom"/>
  <anchor x="499.0" y="1200.0" name="top"/>
  <outline>
    <contour>
      <point x="299.0" y="-440.0" type="line"/>
      <point x="371.0" y="-440.0" type="line"/>
      <point x="970.0" y="1080.0" type="line"/>
      <point x="897.0" y="1080.0" type="line"/>
      <point x="490.0" y="36.0" type="line"/>
      <point x="473.0" y="0.0" type="line"/>
    </contour>
    <contour>
      <point x="451.0" y="0.0" type="line"/>
      <point x="521.0" y="0.0" type="line"/>
      <point x="101.0" y="1080.0" type="line"/>
      <point x="25.0" y="1080.0" type="line"/>
    </contour>
    <contour>
      <point x="699.0" y="1360.0" type="curve" smooth="yes"/>
      <point x="735.0" y="1360.0"/>
      <point x="761.0" y="1384.0"/>
      <point x="761.0" y="1422.0" type="curve" smooth="yes"/>
      <point x="761.0" y="1460.0"/>
      <point x="735.0" y="1486.0"/>
      <point x="699.0" y="1486.0" type="curve" smooth="yes"/>
      <point x="663.0" y="1486.0"/>
      <point x="637.0" y="1460.0"/>
      <point x="637.0" y="1422.0" type="curve" smooth="yes"/>
      <point x="637.0" y="1384.0"/>
      <point x="663.0" y="1360.0"/>
    </contour>
    <contour>
      <point x="299.0" y="1360.0" type="curve" smooth="yes"/>
      <point x="335.0" y="1360.0"/>
      <point x="361.0" y="1384.0"/>
      <point x="361.0" y="1422.0" type="curve" smooth="yes"/>
      <point x="361.0" y="1460.0"/>
      <point x="335.0" y="1486.0"/>
      <point x="299.0" y="1486.0" type="curve" smooth="yes"/>
      <point x="263.0" y="1486.0"/>
      <point x="237.0" y="1460.0"/>
      <point x="237.0" y="1422.0" type="curve" smooth="yes"/>
      <point x="237.0" y="1384.0"/>
      <point x="263.0" y="1360.0"/>
    </contour>
  </outline>
</glyph>
<glyph name="Amacron" format="2">
  <advance width="1286.0"/>
  <unicode hex="0100"/>
  <anchor x="644.0" y="1520.0" name="_top"/>
  <anchor x="644.0" y="0.0" name="bottom"/>
  <anchor x="1249.0" y="0.0" name="ogonek"/>
  <anchor x="644.0" y="1520.0" name="top"/>
  <outline>
    <contour>
      <point x="37.0" y="0.0" type="line"/>
      <point x="110.0" y="0.0" type="line"/>
      <point x="654.0" y="1440.0" type="line"/>
      <point x="630.0" y="1440.0" type="line"/>
      <point x="1174.0" y="0.0" type="line"/>
      <point x="1249.0" y="0.0" type="line"/>
      <point x="686.0" y="1480.0" type="line"/>
      <point x="600.0" y="1480.0" type="line"/>
    </contour>
    <contour>
      <point x="284.0" y="528.0" type="line"/>
      <point x="1002.0" y="528.0" type="line"/>
      <point x="982.0" y="594.0" type="line"/>
      <point x="304.0" y="594.0" type="line"/>
    </contour>
    <contour>
      <point x="374.0" y="1723.0" type="line"/>
      <point x="914.0" y="1723.0" type="line"/>
      <point x="914.0" y="1782.0" type="line"/>
      <point x="374.0" y="1782.0" type="line"/>
    </contour>
  </outline>
</glyph>
<glyph name="Aogonek" format="2">
  <advance width="1286.0"/>
  <unicode hex="0104"/>
  <anchor x="1249.0" y="0.0" name="_ogonek"/>
  <anchor x="644.0" y="0.0" name="bottom"/>
  <anchor x="1249.0" y="0.0" name="ogonek"/>
  <anchor x="644.0" y="1520.0" name="top"/>
  <outline>
    <contour>
      <point x="37.0" y="0.0" type="line"/>
      <point x="110.0" y="0.0" type="line"/>
      <point x="654.0" y="1440.0" type="line"/>
      <point x="630.0" y="1440.0" type="line"/>
      <point x="1174.0" y="0.0" type="line"/>
      <point x="1249.0" y="0.0" type="line"/>
      <point x="686.0" y="1480.0" type="line"/>
      <point x="600.0" y="1480.0" type="line"/>
    </contour>
    <contour>
      <point x="284.0" y="528.0" type="line"/>
      <point x="1002.0" y="528.0" type="line"/>
      <point x="982.0" y="594.0" type="line"/>
      <point x="304.0" y="594.0" type="line"/>
    </contour>
    <contour>
      <point x="1207.0" y="-400.0" type="curve" smooth="yes"/>
      <point x="1262.0" y="-400.0"/>
      <point x="1318.0" y="-387.0"/>
      <point x="1374.0" y="-361.0" type="curve"/>
      <point x="1374.0" y="-307.0" type="line"/>
      <point x="1304.0" y="-336.0"/>
      <point x="1256.0" y="-348.0"/>
      <point x="1204.0" y="-348.0" type="curve" smooth="yes"/>
      <point x="1106.0" y="-348.0"/>
      <point x="1054.0" y="-307.0"/>
      <point x="1054.0" y="-228.0" type="curve" smooth="yes"/>
      <point x="1054.0" y="-148.0"/>
      <point x="1099.0" y="-80.0"/>
      <point x="1249.0" y="0.0" type="curve"/>
      <point x="1223.0" y="47.0" type="line"/>
      <point x="1058.0" y="-41.0"/>
      <point x="998.0" y="-128.0"/>
      <point x="998.0" y="-231.0" type="curve" smooth="yes"/>
      <point x="998.0" y="-339.0"/>
      <point x="1073.0" y="-400.0"/>
    </contour>
  </outline>
</glyph>
<glyph name="Cacute" format="2">
  <advance width="1101.0"/>
  <unicode hex="0106"/>
  <anchor x="674.0" y="1520.0" name="_top"/>
  <anchor x="689.0" y="0.0" name="bottom"/>
  <anchor x="674.0" y="1520.0" name="top"/>
  <outline>
    <contour>
      <point x="729.0" y="-18.0" type="curve" smooth="yes"/>
      <point x="855.0" y="-18.0"/>
      <point x="964.0" y="3.0"/>
      <point x="1065.0" y="40.0" type="curve"/>
      <point x="1065.0" y="108.0" type="line"/>
      <point x="940.0" y="64.0"/>
      <point x="843.0" y="48.0"/>
      <point x="729.0" y="48.0" type="curve" smooth="yes"/>
      <point x="403.0" y="48.0"/>
      <point x="190.0" y="209.0"/>
      <point x="190.0" y="742.0" type="curve" smooth="yes"/>
      <point x="190.0" y="1254.0"/>
      <point x="393.0" y="1432.0"/>
      <point x="740.0" y="1432.0" type="curve" smooth="yes"/>
      <point x="850.0" y="1432.0"/>
      <point x="955.0" y="1418.0"/>
      <point x="1065.0" y="1383.0" type="curve"/>
      <point x="1065.0" y="1451.0" type="line"/>
      <point x="961.0" y="1482.0"/>
      <point x="859.0" y="1498.0"/>
      <point x="745.0" y="1498.0" type="curve" smooth="yes"/>
      <point x="358.0" y="1498.0"/>
      <point x="118.0" y="1288.0"/>
      <point x="118.0" y="738.0" type="curve" smooth="yes"/>
      <point x="118.0" y="170.0"/>
      <point x="368.0" y="-18.0"/>
    </contour>
    <contour>
      <point x="642.0" y="1616.0" type="line"/>
      <point x="706.0" y="1616.0" type="line"/>
      <point x="896.0" y="1888.0" type="line"/>
      <point x="817.0" y="1888.0" type="line"/>
    </contour>
  </outline>
</glyph>
<glyph name="cacute" format="2">
  <advance width="826.0"/>
  <unicode hex="0107"/>
  <anchor x="500.0" y="1200.0" name="_top"/>
  <anchor x="497.0" y="0.0" name="bottom"/>
  <anchor x="500.0" y="1200.0" name="top"/>
  <outline>
    <contour>
      <point x="538.0" y="-18.0" type="curve" smooth="yes"/>
      <point x="621.0" y="-18.0"/>
      <point x="706.0" y="-3.0"/>
      <point x="793.0" y="29.0" type="curve"/>
      <point x="793.0" y="97.0" type="line"/>
      <point x="695.0" y="62.0"/>
      <point x="615.0" y="48.0"/>
      <point x="545.0" y="48.0" type="curve" smooth="yes"/>
      <point x="307.0" y="48.0"/>
      <point x="180.0" y="177.0"/>
      <point x="180.0" y="544.0" type="curve" smooth="yes"/>
      <point x="180.0" y="905.0"/>
      <point x="315.0" y="1030.0"/>
      <point x="585.0" y="1030.0" type="curve" smooth="yes"/>
      <point x="650.0" y="1030.0"/>
      <point x="721.0" y="1020.0"/>
      <point x="793.0" y="999.0" type="curve"/>
      <point x="793.0" y="1067.0" type="line"/>
      <point x="727.0" y="1087.0"/>
      <point x="651.0" y="1096.0"/>
      <point x="583.0" y="1096.0" type="curve" smooth="yes"/>
      <point x="275.0" y="1096.0"/>
      <point x="108.0" y="938.0"/>
      <point x="108.0" y="540.0" type="curve" smooth="yes"/>
      <point x="108.0" y="141.0"/>
      <point x="264.0" y="-18.0"/>
    </contour>
    <contour>
      <point x="468.0" y="1264.0" type="line"/>
      <point x="532.0" y="1264.0" type="line"/>
      <point x="754.0" y="1616.0" type="line"/>
      <point x="676.0" y="1616.0" type="line"/>
    </contour>
  </outline>
</glyph>
<glyph name="dcaron" format="2">
  <advance width="1071.0"/>
  <unicode hex="010F"/>
  <anchor x="1021.0" y="1616.0" name="_caronalt"/>
  <anchor x="533.0" y="0.0" name="bottom"/>
  <anchor x="1021.0" y="1616.0" name="caronalt"/>
  <anchor x="533.0" y="540.0" name="center"/>
  <anchor x="901.0" y="1356.0" name="stroke"/>
  <anchor x="533.0" y="1200.0" name="top"/>
  <anchor x="1020.0" y="1080.0" name="topright"/>
  <outline>
    <contour>
      <point x="523.0" y="-18.0" type="curve" smooth="yes"/>
      <point x="653.0" y="-18.0"/>
      <point x="761.0" y="39.0"/>
      <point x="827.0" y="119.0" type="curve"/>
      <point x="835.0" y="119.0" type="line"/>
      <point x="841.0" y="0.0" type="line"/>
      <point x="901.0" y="0.0" type="line"/>
      <point x="901.0" y="1616.0" type="line"/>
      <point x="833.0" y="1616.0" type="line"/>
      <point x="833.0" y="1078.0" type="line"/>
      <point x="773.0" y="1088.0"/>
      <point x="698.0" y="1096.0"/>
      <point x="627.0" y="1096.0" type="curve" smooth="yes"/>
      <point x="289.0" y="1096.0"/>
      <point x="108.0" y="915.0"/>
      <point x="108.0" y="518.0" type="curve" smooth="yes"/>
      <point x="108.0" y="123.0"/>
      <point x="289.0" y="-18.0"/>
    </contour>
    <contour>
      <point x="526.0" y="48.0" type="curve" smooth="yes"/>
      <point x="324.0" y="48.0"/>
      <point x="180.0" y="157.0"/>
      <point x="180.0" y="526.0" type="curve" smooth="yes"/>
      <point x="180.0" y="882.0"/>
      <point x="331.0" y="1030.0"/>
      <point x="624.0" y="1030.0" type="curve" smooth="yes"/>
      <point x="696.0" y="1030.0"/>
      <point x="777.0" y="1021.0"/>
      <point x="833.0" y="1007.0" type="curve"/>
      <point x="833.0" y="217.0" type="line"/>
      <point x="759.0" y="99.0"/>
      <point x="641.0" y="48.0"/>
    </contour>
    <contour>
      <point x="1003.0" y="1180.0" type="curve"/>
      <point x="1049.0" y="1180.0" type="line"/>
      <point x="1077.0" y="1322.0"/>
      <point x="1085.0" y="1486.0"/>
      <point x="1085.0" y="1616.0" type="curve"/>
      <point x="1021.0" y="1616.0" type="line"/>
      <point x="1021.0" y="1492.0"/>
      <point x="1019.0" y="1320.0"/>
    </contour>
  </outline>
</glyph>
<glyph name="Emacron" format="2">
  <advance width="1115.0"/>
  <unicode hex="0112"/>
  <anchor x="634.0" y="1520.0" name="_top"/>
  <anchor x="636.0" y="0.0" name="bottom"/>
  <anchor x="964.0" y="0.0" name="ogonek"/>
  <anchor x="634.0" y="1520.0" name="top"/>
  <anchor x="41.0" y="1480.0" name="topleft"/>
  <outline>
    <contour>
      <point x="190.0" y="0.0" type="line"/>
      <point x="1044.0" y="0.0" type="line"/>
      <point x="1044.0" y="66.0" type="line"/>
      <point x="258.0" y="66.0" type="line"/>
      <point x="258.0" y="1414.0" type="line"/>
      <point x="1034.0" y="1414.0" type="line"/>
      <point x="1034.0" y="1480.0" type="line"/>
      <point x="190.0" y="1480.0" type="line"/>
    </contour>
    <contour>
      <point x="240.0" y="728.0" type="line"/>
      <point x="939.0" y="728.0" type="line"/>
      <point x="939.0" y="794.0" type="line"/>
      <point x="240.0" y="794.0" type="line"/>
    </contour>
    <contour>
      <point x="364.0" y="1723.0" type="line"/>
      <point x="904.0" y="1723.0" type="line"/>
      <point x="904.0" y="1782.0" type="line"/>
      <point x="364.0" y="1782.0" type="line"/>
    </contour>
  </outline>
</glyph>
<glyph name="Ebreve" format="2">
  <advance width="1115.0"/>
  <unicode hex="0114"/>
  <anchor x="634.0" y="1520.0" name="_top"/>
  <anchor x="636.0" y="0.0" name="bottom"/>
  <anchor x="964.0" y="0.0" name="ogonek"/>
  <anchor x="634.0" y="1520.0" name="top"/>
  <anchor x="41.0" y="1480.0" name="topleft"/>
  <outline>
    <contour>
      <point x="190.0" y="0.0" type="line"/>
      <point x="1044.0" y="0.0" type="line"/>
      <point x="1044.0" y="66.0" type="line"/>
      <point x="258.0" y="66.0" type="line"/>
      <point x="258.0" y="1414.0" type="line"/>
      <point x="1034.0" y="1414.0" type="line"/>
      <point x="1034.0" y="1480.0" type="line"/>
      <point x="190.0" y="1480.0" type="line"/>
    </contour>
    <contour>
      <point x="240.0" y="728.0" type="line"/>
      <point x="939.0" y="728.0" type="line"/>
      <point x="939.0" y="794.0" type="line"/>
      <point x="240.0" y="794.0" type="line"/>
    </contour>
    <contour>
      <point x="636.0" y="1628.0" type="curve" smooth="yes"/>
      <point x="815.0" y="1628.0"/>
      <point x="904.0" y="1717.0"/>
      <point x="916.0" y="1860.0" type="curve"/>
      <point x="858.0" y="1860.0" type="line"/>
      <point x="845.0" y="1747.0"/>
      <point x="787.0" y="1687.0"/>
      <point x="636.0" y="1687.0" type="curve" smooth="yes"/>
      <point x="485.0" y="1687.0"/>
      <point x="425.0" y="1747.0"/>
      <point x="410.0" y="1860.0" type="curve"/>
      <point x="352.0" y="1860.0" type="line"/>
      <point x="364.0" y="1719.0"/>
      <point x="457.0" y="1628.0"/>
    </contour>
  </outline>
</glyph>
<glyph name="ebreve" format="2">
  <advance width="984.0"/>
  <unicode hex="0115"/>
  <anchor x="508.0" y="1200.0" name="_top"/>
  <anchor x="508.0" y="0.0" name="bottom"/>
  <anchor x="740.0" y="0.0" name="ogonek"/>
  <anchor x="508.0" y="1200.0" name="top"/>
  <outline>
    <contour>
      <point x="572.0" y="-18.0" type="curve" smooth="yes"/>
      <point x="659.0" y="-18.0"/>
      <point x="745.0" y="-4.0"/>
      <point x="843.0" y="29.0" type="curve"/>
      <point x="843.0" y="97.0" type="line"/>
      <point x="740.0" y="64.0"/>
      <point x="656.0" y="48.0"/>
      <point x="576.0" y="48.0" type="curve" smooth="yes"/>
      <point x="323.0" y="48.0"/>
      <point x="180.0" y="178.0"/>
      <point x="180.0" y="535.0" type="curve" smooth="yes"/>
      <point x="180.0" y="550.0" type="line" smooth="yes"/>
      <point x="180.0" y="905.0"/>
      <point x="309.0" y="1030.0"/>
      <point x="507.0" y="1030.0" type="curve" smooth="yes"/>
      <point x="704.0" y="1030.0"/>
      <point x="822.0" y="904.0"/>
      <point x="822.0" y="550.0" type="curve"/>
      <point x="849.0" y="576.0" type="line"/>
      <point x="141.0" y="576.0" type="line"/>
      <point x="141.0" y="510.0" type="line"/>
      <point x="893.0" y="510.0" type="line"/>
      <point x="893.0" y="540.0" type="line" smooth="yes"/>
      <point x="893.0" y="934.0"/>
      <point x="747.0" y="1096.0"/>
      <point x="507.0" y="1096.0" type="curve" smooth="yes"/>
      <point x="269.0" y="1096.0"/>
      <point x="108.0" y="933.0"/>
      <point x="108.0" y="540.0" type="curve" smooth="yes"/>
      <point x="108.0" y="141.0"/>
      <point x="277.0" y="-18.0"/>
    </contour>
    <contour>
      <point x="510.0" y="1276.0" type="curve" smooth="yes"/>
      <point x="671.0" y="1276.0"/>
      <point x="763.0" y="1390.0"/>
      <point x="770.0" y="1588.0" type="curve"/>
      <point x="712.0" y="1588.0" type="line"/>
      <point x="704.0" y="1422.0"/>
      <point x="643.0" y="1333.0"/>
      <point x="510.0" y="1333.0" type="curve" smooth="yes"/>
      <point x="377.0" y="1333.0"/>
      <point x="314.0" y="1422.0"/>
      <point x="304.0" y="1588.0" type="curve"/>
      <point x="246.0" y="1588.0" type="line"/>
      <point x="253.0" y="1392.0"/>
      <point x="348.0" y="1276.0"/>
    </contour>
  </outline>
</glyph>
<glyph name="Edotaccent" format="2">
  <advance width="1115.0"/>
  <unicode hex="0116"/>
  <anchor x="634.0" y="1520.0" name="_top"/>
  <anchor x="636.0" y="0.0" name="bottom"/>
  <anchor x="964.0" y="0.0" name="ogonek"/>
  <anchor x="634.0" y="1520.0" name="top"/>
  <anchor x="41.0" y="1480.0" name="topleft"/>
  <outline>
    <contour>
      <point x="190.0" y="0.0" type="line"/>
      <point x="1044.0" y="0.0" type="line"/>
      <point x="1044.0" y="66.0" type="line"/>
      <point x="258.0" y="66.0" type="line"/>
      <point x="258.0" y="1414.0" type="line"/>
      <point x="1034.0" y="1414.0" type="line"/>
      <point x="1034.0" y="1480.0" type="line"/>
      <point x="190.0" y="1480.0" type="line"/>
    </contour>
    <contour>
      <point x="240.0" y="728.0" type="line"/>
      <point x="939.0" y="728.0" type="line"/>
      <point x="939.0" y="794.0" type="line"/>
      <point x="240.0" y="794.0" type="line"/>
    </contour>
    <contour>
      <point x="634.0" y="1690.0" type="curve" smooth="yes"/>
      <point x="670.0" y="1690.0"/>
      <point x="696.0" y="1714.0"/>
      <point x="696.0" y="1752.0" type="curve" smooth="yes"/>
      <point x="696.0" y="1790.0"/>
      <point x="670.0" y="1816.0"/>
      <point x="634.0" y="1816.0" type="curve" smooth="yes"/>
      <point x="598.0" y="1816.0"/>
      <point x="572.0" y="1790.0"/>
      <point x="572.0" y="1752.0" type="curve" smooth="yes"/>
      <point x="572.0" y="1714.0"/>
      <point x="598.0" y="1690.0"/>
    </contour>
  </outline>
</glyph>
<glyph name="Eogonek" format="2">
  <advance width="1115.0"/>
  <unicode hex="0118"/>
  <anchor x="964.0" y="0.0" name="_ogonek"/>
  <anchor x="636.0" y="0.0" name="bottom"/>
  <anchor x="964.0" y="0.0" name="ogonek"/>
  <anchor x="634.0" y="1520.0" name="top"/>
  <anchor x="41.0" y="1480.0" name="topleft"/>
  <outline>
    <contour>
      <point x="190.0" y="0.0" type="line"/>
      <point x="1044.0" y="0.0" type="line"/>
      <point x="1044.0" y="66.0" type="line"/>
      <point x="258.0" y="66.0" type="line"/>
      <point x="258.0" y="1414.0" type="line"/>
      <point x="1034.0" y="1414.0" type="line"/>
      <point x="1034.0" y="1480.0" type="line"/>
      <point x="190.0" y="1480.0" type="line"/>
    </contour>
    <contour>
      <point x="240.0" y="728.0" type="line"/>
      <point x="939.0" y="728.0" type="line"/>
      <point x="939.0" y="794.0" type="line"/>
      <point x="240.0" y="794.0" type="line"/>
    </contour>
    <contour>
      <point x="922.0" y="-400.0" type="curve" smooth="yes"/>
      <point x="977.0" y="-400.0"/>
      <point x="1033.0" y="-387.0"/>
      <point x="1089.0" y="-361.0" type="curve"/>
      <point x="1089.0" y="-307.0" type="line"/>
      <point x="1019.0" y="-336.0"/>
      <point x="971.0" y="-348.0"/>
      <point x="919.0" y="-348.0" type="curve" smooth="yes"/>
      <point x="821.0" y="-348.0"/>
      <point x="769.0" y="-307.0"/>
      <point x="769.0" y="-228.0" type="curve" smooth="yes"/>
      <point x="769.0" y="-148.0"/>
      <point x="814.0" y="-80.0"/>
      <point x="964.0" y="0.0" type="curve"/>
      <point x="938.0" y="47.0" type="line"/>
      <point x="773.0" y="-41.0"/>
      <point x="713.0" y="-128.0"/>
      <point x="713.0" y="-231.0" type="curve" smooth="yes"/>
      <point x="713.0" y="-339.0"/>
      <point x="788.0" y="-400.0"/>
    </contour>
  </outline>
</glyph>
<glyph name="eogonek" format="2">
  <advance width="984.0"/>
  <unicode hex="0119"/>
  <outline>
    <contour>
      <point x="693.0" y="-400.0" type="curve" smooth="yes"/>
      <point x="742.0" y="-400.0"/>
      <point x="800.0" y="-385.0"/>
      <point x="843.0" y="-359.0" type="curve"/>
      <point x="843.0" y="-303.0" type="line"/>
      <point x="793.0" y="-333.0"/>
      <point x="742.0" y="-348.0"/>
      <point x="690.0" y="-348.0" type="curve" smooth="yes"/>
      <point x="609.0" y="-348.0"/>
      <point x="560.0" y="-304.0"/>
      <point x="560.0" y="-227.0" type="curve" smooth="yes"/>
      <point x="560.0" y="-144.0"/>
      <point x="612.0" y="-45.0"/>
      <point x="843.0" y="29.0" type="curve"/>
      <point x="843.0" y="97.0" type="line"/>
      <point x="740.0" y="64.0"/>
      <point x="656.0" y="48.0"/>
      <point x="576.0" y="48.0" type="curve" smooth="yes"/>
      <point x="323.0" y="48.0"/>
      <point x="180.0" y="178.0"/>
      <point x="180.0" y="535.0" type="curve" smooth="yes"/>
      <point x="180.0" y="550.0" type="line" smooth="yes"/>
      <point x="180.0" y="905.0"/>
      <point x="309.0" y="1030.0"/>
      <point x="507.0" y="1030.0" type="curve" smooth="yes"/>
      <point x="704.0" y="1030.0"/>
      <point x="822.0" y="904.0"/>
      <point x="822.0" y="550.0" type="curve"/>
      <point x="849.0" y="576.0" type="line"/>
      <point x="141.0" y="576.0" type="line"/>
      <point x="141.0" y="510.0" type="line"/>
      <point x="893.0" y="510.0" type="line"/>
      <point x="893.0" y="540.0" type="line" smooth="yes"/>
      <point x="893.0" y="934.0"/>
      <point x="747.0" y="1096.0"/>
      <point x="507.0" y="1096.0" type="curve" smooth="yes"/>
      <point x="269.0" y="1096.0"/>
      <point x="108.0" y="933.0"/>
      <point x="108.0" y="540.0" type="curve" smooth="yes"/>
      <point x="108.0" y="141.0"/>
      <point x="277.0" y="-18.0"/>
      <point x="572.0" y="-18.0" type="curve" smooth="yes"/>
      <point x="600.0" y="-18.0"/>
      <point x="630.0" y="-16.0"/>
      <point x="657.0" y="-12.0" type="curve"/>
      <point x="654.0" y="-1.0" type="line"/>
      <point x="557.0" y="-56.0"/>
      <point x="504.0" y="-138.0"/>
      <point x="504.0" y="-231.0" type="curve" smooth="yes"/>
      <point x="504.0" y="-336.0"/>
      <point x="575.0" y="-400.0"/>
    </contour>
  </outline>
</glyph>
<glyph name="Ecaron" format="2">
  <advance width="1115.0"/>
  <unicode hex="011A"/>
  <anchor x="634.0" y="1520.0" name="_top"/>
  <anchor x="636.0" y="0.0" name="bottom"/>
  <anchor x="964.0" y="0.0" name="ogonek"/>
  <anchor x="634.0" y="1520.0" name="top"/>
  <anchor x="41.0" y="1480.0" name="topleft"/>
  <outline>
    <contour>
      <point x="190.0" y="0.0" type="line"/>
      <point x="1044.0" y="0.0" type="line"/>
      <point x="1044.0" y="66.0" type="line"/>
      <point x="258.0" y="66.0" type="line"/>
      <point x="258.0" y="1414.0" type="line"/>
      <point x="1034.0" y="1414.0" type="line"/>
      <point x="1034.0" y="1480.0" type="line"/>
      <point x="190.0" y="1480.0" type="line"/>
    </contour>
    <contour>
      <point x="240.0" y="728.0" type="line"/>
      <point x="939.0" y="728.0" type="line"/>
      <point x="939.0" y="794.0" type="line"/>
      <point x="240.0" y="794.0" type="line"/>
    </contour>
    <contour>
      <point x="596.0" y="1616.0" type="line"/>
      <point x="672.0" y="1616.0" type="line"/>
      <point x="912.0" y="1888.0" type="line"/>
      <point x="831.0" y="1888.0" type="line"/>
      <point x="621.0" y="1645.0" type="line"/>
      <point x="647.0" y="1645.0" type="line"/>
      <point x="437.0" y="1888.0" type="line"/>
      <point x="356.0" y="1888.0" type="line"/>
    </contour>
  </outline>
</glyph>
<glyph name="Gbreve" format="2">
  <advance width="1301.0"/>
  <unicode hex="011E"/>
  <anchor x="709.0" y="1520.0" name="_top"/>
  <anchor x="709.0" y="0.0" name="bottom"/>
  <anchor x="709.0" y="1520.0" name="top"/>
  <outline>
    <contour>
      <point x="827.0" y="-10.0" type="curve" smooth="yes"/>
      <point x="928.0" y="-10.0"/>
      <point x="1012.0" y="-4.0"/>
      <point x="1136.0" y="17.0" type="curve"/>
      <point x="1136.0" y="720.0" type="line"/>
      <point x="1068.0" y="720.0" type="line"/>
      <point x="1068.0" y="45.0" type="line"/>
      <point x="1090.0" y="80.0" type="line"/>
      <point x="1013.0" y="64.0"/>
      <point x="930.0" y="56.0"/>
      <point x="827.0" y="56.0" type="curve" smooth="yes"/>
      <point x="406.0" y="56.0"/>
      <point x="191.0" y="248.0"/>
      <point x="190.0" y="740.0" type="curve" smooth="yes"/>
      <point x="189.0" y="1255.0"/>
      <point x="428.0" y="1432.0"/>
      <point x="776.0" y="1432.0" type="curve" smooth="yes"/>
      <point x="876.0" y="1432.0"/>
      <point x="978.0" y="1421.0"/>
      <point x="1107.0" y="1383.0" type="curve"/>
      <point x="1107.0" y="1451.0" type="line"/>
      <point x="995.0" y="1482.0"/>
      <point x="888.0" y="1498.0"/>
      <point x="777.0" y="1498.0" type="curve" smooth="yes"/>
      <point x="390.0" y="1498.0"/>
      <point x="117.0" y="1291.0"/>
      <point x="118.0" y="738.0" type="curve" smooth="yes"/>
      <point x="119.0" y="209.0"/>
      <point x="365.0" y="-10.0"/>
    </contour>
    <contour>
      <point x="711.0" y="1628.0" type="curve" smooth="yes"/>
      <point x="890.0" y="1628.0"/>
      <point x="979.0" y="1717.0"/>
      <point x="991.0" y="1860.0" type="curve"/>
      <point x="933.0" y="1860.0" type="line"/>
      <point x="920.0" y="1747.0"/>
      <point x="862.0" y="1687.0"/>
      <point x="711.0" y="1687.0" type="curve" smooth="yes"/>
      <point x="560.0" y="1687.0"/>
      <point x="500.0" y="1747.0"/>
      <point x="485.0" y="1860.0" type="curve"/>
      <point x="427.0" y="1860.0" type="line"/>
      <point x="439.0" y="1719.0"/>
      <point x="532.0" y="1628.0"/>
    </contour>
  </outline>
</glyph>
<glyph name="gbreve" format="2">
  <advance width="1071.0"/>
  <unicode hex="011F"/>
  <anchor x="553.0" y="1200.0" name="_top"/>
  <anchor x="553.0" y="-440.0" name="bottom"/>
  <anchor x="553.0" y="1200.0" name="top"/>
  <outline>
    <contour>
      <point x="466.0" y="-460.0" type="curve" smooth="yes"/>
      <point x="752.0" y="-460.0"/>
      <point x="901.0" y="-334.0"/>
      <point x="901.0" y="-7.0" type="curve" smooth="yes"/>
      <point x="901.0" y="1054.0" type="line"/>
      <point x="817.0" y="1080.0"/>
      <point x="714.0" y="1096.0"/>
      <point x="617.0" y="1096.0" type="curve" smooth="yes"/>
      <point x="289.0" y="1096.0"/>
      <point x="108.0" y="915.0"/>
      <point x="108.0" y="518.0" type="curve" smooth="yes"/>
      <point x="108.0" y="116.0"/>
      <point x="292.0" y="-18.0"/>
      <point x="517.0" y="-18.0" type="curve" smooth="yes"/>
      <point x="653.0" y="-18.0"/>
      <point x="760.0" y="39.0"/>
      <point x="827.0" y="113.0" type="curve"/>
      <point x="833.0" y="113.0" type="line"/>
      <point x="833.0" y="-12.0" type="line" smooth="yes"/>
      <point x="833.0" y="-296.0"/>
      <point x="713.0" y="-394.0"/>
      <point x="467.0" y="-394.0" type="curve" smooth="yes"/>
      <point x="375.0" y="-394.0"/>
      <point x="280.0" y="-378.0"/>
      <point x="173.0" y="-341.0" type="curve"/>
      <point x="173.0" y="-409.0" type="line"/>
      <point x="259.0" y="-442.0"/>
      <point x="376.0" y="-460.0"/>
    </contour>
    <contour>
      <point x="521.0" y="48.0" type="curve" smooth="yes"/>
      <point x="329.0" y="48.0"/>
      <point x="180.0" y="153.0"/>
      <point x="180.0" y="526.0" type="curve" smooth="yes"/>
      <point x="180.0" y="882.0"/>
      <point x="331.0" y="1030.0"/>
      <point x="613.0" y="1030.0" type="curve" smooth="yes"/>
      <point x="696.0" y="1030.0"/>
      <point x="777.0" y="1018.0"/>
      <point x="833.0" y="1003.0" type="curve"/>
      <point x="833.0" y="209.0" type="line"/>
      <point x="759.0" y="99.0"/>
      <point x="638.0" y="48.0"/>
    </contour>
    <contour>
      <point x="555.0" y="1276.0" type="curve" smooth="yes"/>
      <point x="716.0" y="1276.0"/>
      <point x="808.0" y="1390.0"/>
      <point x="815.0" y="1588.0" type="curve"/>
      <point x="757.0" y="1588.0" type="line"/>
      <point x="749.0" y="1422.0"/>
      <point x="688.0" y="1333.0"/>
      <point x="555.0" y="1333.0" type="curve" smooth="yes"/>
      <point x="422.0" y="1333.0"/>
      <point x="359.0" y="1422.0"/>
      <point x="349.0" y="1588.0" type="curve"/>
      <point x="291.0" y="1588.0" type="line"/>
      <point x="298.0" y="1392.0"/>
      <point x="393.0" y="1276.0"/>
    </contour>
  </outline>
</glyph>
<glyph name="Gcommaaccent" format="2">
  <advance width="1301.0"/>
  <unicode hex="0122"/>
  <anchor x="709.0" y="0.0" name="_bottom"/>
  <anchor x="709.0" y="0.0" name="bottom"/>
  <anchor x="709.0" y="1520.0" name="top"/>
  <outline>
    <contour>
      <point x="827.0" y="-10.0" type="curve" smooth="yes"/>
      <point x="928.0" y="-10.0"/>
      <point x="1012.0" y="-4.0"/>
      <point x="1136.0" y="17.0" type="curve"/>
      <point x="1136.0" y="720.0" type="line"/>
      <point x="1068.0" y="720.0" type="line"/>
      <point x="1068.0" y="45.0" type="line"/>
      <point x="1090.0" y="80.0" type="line"/>
      <point x="1013.0" y="64.0"/>
      <point x="930.0" y="56.0"/>
      <point x="827.0" y="56.0" type="curve" smooth="yes"/>
      <point x="406.0" y="56.0"/>
      <point x="191.0" y="248.0"/>
      <point x="190.0" y="740.0" type="curve" smooth="yes"/>
      <point x="189.0" y="1255.0"/>
      <point x="428.0" y="1432.0"/>
      <point x="776.0" y="1432.0" type="curve" smooth="yes"/>
      <point x="876.0" y="1432.0"/>
      <point x="978.0" y="1421.0"/>
      <point x="1107.0" y="1383.0" type="curve"/>
      <point x="1107.0" y="1451.0" type="line"/>
      <point x="995.0" y="1482.0"/>
      <point x="888.0" y="1498.0"/>
      <point x="777.0" y="1498.0" type="curve" smooth="yes"/>
      <point x="390.0" y="1498.0"/>
      <point x="117.0" y="1291.0"/>
      <point x="118.0" y="738.0" type="curve" smooth="yes"/>
      <point x="119.0" y="209.0"/>
      <point x="365.0" y="-10.0"/>
    </contour>
    <contour>
      <point x="683.0" y="-448.0" type="curve"/>
      <point x="727.0" y="-448.0" type="line"/>
      <point x="757.0" y="-386.0"/>
      <point x="771.0" y="-318.0"/>
      <point x="771.0" y="-270.0" type="curve" smooth="yes"/>
      <point x="771.0" y="-212.0"/>
      <point x="745.0" y="-184.0"/>
      <point x="705.0" y="-184.0" type="curve" smooth="yes"/>
      <point x="671.0" y="-184.0"/>
      <point x="647.0" y="-210.0"/>
      <point x="647.0" y="-246.0" type="curve" smooth="yes"/>
      <point x="647.0" y="-284.0"/>
      <point x="673.0" y="-310.0"/>
      <point x="709.0" y="-310.0" type="curve" smooth="yes"/>
      <point x="721.0" y="-310.0" type="line"/>
      <point x="717.0" y="-278.0" type="line"/>
      <point x="717.0" y="-326.0"/>
      <point x="711.0" y="-376.0"/>
    </contour>
  </outline>
</glyph>
<glyph name="Hcircumflex" format="2">
  <advance width="1398.0"/>
  <unicode hex="0124"/>
  <anchor x="699.0" y="1520.0" name="_top"/>
  <anchor x="699.0" y="0.0" name="bottom"/>
  <anchor x="699.0" y="1140.0" name="center"/>
  <anchor x="699.0" y="1520.0" name="top"/>
  <anchor x="41.0" y="1480.0" name="topleft"/>
  <outline>
    <contour>
      <point x="190.0" y="0.0" type="line"/>
      <point x="258.0" y="0.0" type="line"/>
      <point x="258.0" y="728.0" type="line"/>
      <point x="1140.0" y="728.0" type="line"/>
      <point x="1140.0" y="0.0" type="line"/>
      <point x="1208.0" y="0.0" type="line"/>
      <point x="1208.0" y="1480.0" type="line"/>
      <point x="1140.0" y="1480.0" type="line"/>
      <point x="1140.0" y="794.0" type="line"/>
      <point x="258.0" y="794.0" type="line"/>
      <point x="258.0" y="1480.0" type="line"/>
      <point x="190.0" y="1480.0" type="line"/>
    </contour>
    <contour>
      <point x="421.0" y="1616.0" type="line"/>
      <point x="502.0" y="1616.0" type="line"/>
      <point x="712.0" y="1859.0" type="line"/>
      <point x="686.0" y="1859.0" type="line"/>
      <point x="896.0" y="1616.0" type="line"/>
      <point x="977.0" y="1616.0" type="line"/>
      <point x="737.0" y="1888.0" type="line"/>
      <point x="661.0" y="1888.0" type="line"/>
    </contour>
  </outline>
</glyph>
<glyph name="Hbar" format="2">
  <advance width="1398.0"/>
  <unicode hex="0126"/>
  <anchor x="699.0" y="1140.0" name="_center"/>
  <anchor x="699.0" y="0.0" name="bottom"/>
  <anchor x="699.0" y="1140.0" name="center"/>
  <anchor x="699.0" y="1520.0" name="top"/>
  <anchor x="41.0" y="1480.0" name="topleft"/>
  <outline>
    <contour>
      <point x="190.0" y="0.0" type="line"/>
      <point x="258.0" y="0.0" type="line"/>
      <point x="258.0" y="728.0" type="line"/>
      <point x="1140.0" y="728.0" type="line"/>
      <point x="1140.0" y="0.0" type="line"/>
      <point x="1208.0" y="0.0" type="line"/>
      <point x="1208.0" y="1480.0" type="line"/>
      <point x="1140.0" y="1480.0" type="line"/>
      <point x="1140.0" y="794.0" type="line"/>
      <point x="258.0" y="794.0" type="line"/>
      <point x="258.0" y="1480.0" type="line"/>
      <point x="190.0" y="1480.0" type="line"/>
    </contour>
    <contour>
      <point x="2.0" y="1110.0" type="line"/>
      <point x="1396.0" y="1110.0" type="line"/>
      <point x="1396.0" y="1170.0" type="line"/>
      <point x="2.0" y="1170.0" type="line"/>
    </contour>
  </outline>
</glyph>
<glyph name="Itilde" format="2">
  <advance width="448.0"/>
  <unicode hex="0128"/>
  <anchor x="224.0" y="1520.0" name="_top"/>
  <anchor x="224.0" y="0.0" name="bottom"/>
  <anchor x="258.0" y="0.0" name="ogonek"/>
  <anchor x="224.0" y="1520.0" name="top"/>
  <outline>
    <contour>
      <point x="190.0" y="0.0" type="line"/>
      <point x="258.0" y="0.0" type="line"/>
      <point x="258.0" y="1480.0" type="line"/>
      <point x="190.0" y="1480.0" type="line"/>
    </contour>
    <contour>
      <point x="368.0" y="1697.0" type="curve" smooth="yes"/>
      <point x="437.0" y="1697.0"/>
      <point x="488.0" y="1719.0"/>
      <point x="523.0" y="1758.0" type="curve"/>
      <point x="523.0" y="1825.0" type="line"/>
      <point x="480.0" y="1777.0"/>
      <point x="434.0" y="1754.0"/>
      <point x="368.0" y="1754.0" type="curve" smooth="yes"/>
      <point x="276.0" y="1754.0"/>
      <point x="192.0" y="1830.0"/>
      <point x="80.0" y="1830.0" type="curve" smooth="yes"/>
      <point x="11.0" y="1830.0"/>
      <point x="-40.0" y="1808.0"/>
      <point x="-75.0" y="1769.0" type="curve"/>
      <point x="-75.0" y="1702.0" type="line"/>
      <point x="-32.0" y="1750.0"/>
      <point x="14.0" y="1773.0"/>
      <point x="80.0" y="1773.0" type="curve" smooth="yes"/>
      <point x="172.0" y="1773.0"/>
      <point x="256.0" y="1697.0"/>
    </contour>
  </outline>
</glyph>
<glyph name="itilde" format="2">
  <advance width="408.0"/>
  <unicode hex="0129"/>
  <anchor x="204.0" y="1200.0" name="_top"/>
  <anchor x="204.0" y="0.0" name="bottom"/>
  <anchor x="238.0" y="0.0" name="ogonek"/>
  <anchor x="204.0" y="1200.0" name="top"/>
  <outline>
    <contour>
      <point x="170.0" y="0.0" type="line"/>
      <point x="238.0" y="0.0" type="line"/>
      <point x="238.0" y="1080.0" type="line"/>
      <point x="170.0" y="1080.0" type="line"/>
    </contour>
    <contour>
      <point x="338.0" y="1380.0" type="curve" smooth="yes"/>
      <point x="401.0" y="1380.0"/>
      <point x="452.0" y="1402.0"/>
      <point x="487.0" y="1441.0" type="curve"/>
      <point x="487.0" y="1508.0" type="line"/>
      <point x="444.0" y="1460.0"/>
      <point x="398.0" y="1437.0"/>
      <point x="338.0" y="1437.0" type="curve" smooth="yes"/>
      <point x="256.0" y="1437.0"/>
      <point x="172.0" y="1513.0"/>
      <point x="70.0" y="1513.0" type="curve" smooth="yes"/>
      <point x="7.0" y="1513.0"/>
      <point x="-44.0" y="1491.0"/>
      <point x="-79.0" y="1452.0" type="curve"/>
      <point x="-79.0" y="1385.0" type="line"/>
      <point x="-36.0" y="1433.0"/>
      <point x="10.0" y="1456.0"/>
      <point x="70.0" y="1456.0" type="curve" smooth="yes"/>
      <point x="152.0" y="1456.0"/>
      <point x="236.0" y="1380.0"/>
    </contour>
  </outline>
</glyph>
<glyph name="Imacron" format="2">
  <advance width="448.0"/>
  <unicode hex="012A"/>
  <anchor x="224.0" y="1520.0" name="_top"/>
  <anchor x="224.0" y="0.0" name="bottom"/>
  <anchor x="258.0" y="0.0" name="ogonek"/>
  <anchor x="224.0" y="1520.0" name="top"/>
  <outline>
    <contour>
      <point x="190.0" y="0.0" type="line"/>
      <point x="258.0" y="0.0" type="line"/>
      <point x="258.0" y="1480.0" type="line"/>
      <point x="190.0" y="1480.0" type="line"/>
    </contour>
    <contour>
      <point x="-46.0" y="1723.0" type="line"/>
      <point x="494.0" y="1723.0" type="line"/>
      <point x="494.0" y="1782.0" type="line"/>
      <point x="-46.0" y="1782.0" type="line"/>
    </contour>
  </outline>
</glyph>
<glyph name="imacron" format="2">
  <advance width="408.0"/>
  <unicode hex="012B"/>
  <anchor x="204.0" y="1200.0" name="_top"/>
  <anchor x="204.0" y="0.0" name="bottom"/>
  <anchor x="238.0" y="0.0" name="ogonek"/>
  <anchor x="204.0" y="1200.0" name="top"/>
  <outline>
    <contour>
      <point x="170.0" y="0.0" type="line"/>
      <point x="238.0" y="0.0" type="line"/>
      <point x="238.0" y="1080.0" type="line"/>
      <point x="170.0" y="1080.0" type="line"/>
    </contour>
    <contour>
      <point x="-79.0" y="1394.0" type="line"/>
      <point x="487.0" y="1394.0" type="line"/>
      <point x="487.0" y="1453.0" type="line"/>
      <point x="-79.0" y="1453.0" type="line"/>
    </contour>
  </outline>
</glyph>
<glyph name="Ibreve" format="2">
  <advance width="448.0"/>
  <unicode hex="012C"/>
  <anchor x="224.0" y="1520.0" name="_top"/>
  <anchor x="224.0" y="0.0" name="bottom"/>
  <anchor x="258.0" y="0.0" name="ogonek"/>
  <anchor x="224.0" y="1520.0" name="top"/>
  <outline>
    <contour>
      <point x="190.0" y="0.0" type="line"/>
      <point x="258.0" y="0.0" type="line"/>
      <point x="258.0" y="1480.0" type="line"/>
      <point x="190.0" y="1480.0" type="line"/>
    </contour>
    <contour>
      <point x="226.0" y="1628.0" type="curve" smooth="yes"/>
      <point x="405.0" y="1628.0"/>
      <point x="494.0" y="1717.0"/>
      <point x="506.0" y="1860.0" type="curve"/>
      <point x="448.0" y="1860.0" type="line"/>
      <point x="435.0" y="1747.0"/>
      <point x="377.0" y="1687.0"/>
      <point x="226.0" y="1687.0" type="curve" smooth="yes"/>
      <point x="75.0" y="1687.0"/>
      <point x="15.0" y="1747.0"/>
      <point x="0.0" y="1860.0" type="curve"/>
      <point x="-58.0" y="1860.0" type="line"/>
      <point x="-46.0" y="1719.0"/>
      <point x="47.0" y="1628.0"/>
    </contour>
  </outline>
</glyph>
<glyph name="ibreve" format="2">
  <advance width="408.0"/>
  <unicode hex="012D"/>
  <anchor x="204.0" y="1200.0" name="_top"/>
  <anchor x="204.0" y="0.0" name="bottom"/>
  <anchor x="238.0" y="0.0" name="ogonek"/>
  <anchor x="204.0" y="1200.0" name="top"/>
  <outline>
    <contour>
      <point x="170.0" y="0.0" type="line"/>
      <point x="238.0" y="0.0" type="line"/>
      <point x="238.0" y="1080.0" type="line"/>
      <point x="170.0" y="1080.0" type="line"/>
    </contour>
    <contour>
      <point x="206.0" y="1276.0" type="curve" smooth="yes"/>
      <point x="367.0" y="1276.0"/>
      <point x="459.0" y="1390.0"/>
      <point x="466.0" y="1588.0" type="curve"/>
      <point x="408.0" y="1588.0" type="line"/>
      <point x="400.0" y="1422.0"/>
      <point x="339.0" y="1333.0"/>
      <point x="206.0" y="1333.0" type="curve" smooth="yes"/>
      <point x="73.0" y="1333.0"/>
      <point x="10.0" y="1422.0"/>
      <point x="0.0" y="1588.0" type="curve"/>
      <point x="-58.0" y="1588.0" type="line"/>
      <point x="-51.0" y="1392.0"/>
      <point x="44.0" y="1276.0"/>
    </contour>
  </outline>
</glyph>
<glyph name="Iogonek" format="2">
  <advance width="448.0"/>
  <unicode hex="012E"/>
  <anchor x="258.0" y="0.0" name="_ogonek"/>
  <anchor x="224.0" y="0.0" name="bottom"/>
  <anchor x="258.0" y="0.0" name="ogonek"/>
  <anchor x="224.0" y="1520.0" name="top"/>
  <outline>
    <contour>
      <point x="190.0" y="0.0" type="line"/>
      <point x="258.0" y="0.0" type="line"/>
      <point x="258.0" y="1480.0" type="line"/>
      <point x="190.0" y="1480.0" type="line"/>
    </contour>
    <contour>
      <point x="216.0" y="-400.0" type="curve" smooth="yes"/>
      <point x="271.0" y="-400.0"/>
      <point x="327.0" y="-387.0"/>
      <point x="383.0" y="-361.0" type="curve"/>
      <point x="383.0" y="-307.0" type="line"/>
      <point x="313.0" y="-336.0"/>
      <point x="265.0" y="-348.0"/>
      <point x="213.0" y="-348.0" type="curve" smooth="yes"/>
      <point x="115.0" y="-348.0"/>
      <point x="63.0" y="-307.0"/>
      <point x="63.0" y="-228.0" type="curve" smooth="yes"/>
      <point x="63.0" y="-148.0"/>
      <point x="108.0" y="-80.0"/>
      <point x="258.0" y="0.0" type="curve"/>
      <point x="232.0" y="47.0" type="line"/>
      <point x="67.0" y="-41.0"/>
      <point x="7.0" y="-128.0"/>
      <point x="7.0" y="-231.0" type="curve" smooth="yes"/>
      <point x="7.0" y="-339.0"/>
      <point x="82.0" y="-400.0"/>
    </contour>
  </outline>
</glyph>
<glyph name="iogonek" format="2">
  <advance width="408.0"/>
  <unicode hex="012F"/>
  <anchor x="204.0" y="1200.0" name="_top"/>
  <anchor x="204.0" y="0.0" name="bottom"/>
  <anchor x="238.0" y="0.0" name="ogonek"/>
  <anchor x="204.0" y="1200.0" name="top"/>
  <outline>
    <contour>
      <point x="170.0" y="0.0" type="line"/>
      <point x="238.0" y="0.0" type="line"/>
      <point x="238.0" y="1080.0" type="line"/>
      <point x="170.0" y="1080.0" type="line"/>
    </contour>
    <contour>
      <point x="204.0" y="1360.0" type="curve" smooth="yes"/>
      <point x="240.0" y="1360.0"/>
      <point x="266.0" y="1384.0"/>
      <point x="266.0" y="1422.0" type="curve" smooth="yes"/>
      <point x="266.0" y="1460.0"/>
      <point x="240.0" y="1486.0"/>
      <point x="204.0" y="1486.0" type="curve" smooth="yes"/>
      <point x="168.0" y="1486.0"/>
      <point x="142.0" y="1460.0"/>
      <point x="142.0" y="1422.0" type="curve" smooth="yes"/>
      <point x="142.0" y="1384.0"/>
      <point x="168.0" y="1360.0"/>
    </contour>
    <contour>
      <point x="196.0" y="-400.0" type="curve" smooth="yes"/>
      <point x="245.0" y="-400.0"/>
      <point x="303.0" y="-385.0"/>
      <point x="346.0" y="-359.0" type="curve"/>
      <point x="346.0" y="-303.0" type="line"/>
      <point x="296.0" y="-333.0"/>
      <point x="245.0" y="-348.0"/>
      <point x="193.0" y="-348.0" type="curve" smooth="yes"/>
      <point x="112.0" y="-348.0"/>
      <point x="63.0" y="-304.0"/>
      <point x="63.0" y="-228.0" type="curve" smooth="yes"/>
      <point x="63.0" y="-144.0"/>
      <point x="114.0" y="-77.0"/>
      <point x="238.0" y="0.0" type="curve"/>
      <point x="212.0" y="47.0" type="line"/>
      <point x="70.0" y="-40.0"/>
      <point x="7.0" y="-126.0"/>
      <point x="7.0" y="-231.0" type="curve" smooth="yes"/>
      <point x="7.0" y="-336.0"/>
      <point x="78.0" y="-400.0"/>
    </contour>
  </outline>
</glyph>
<glyph name="Idotaccent" format="2">
  <advance width="448.0"/>
  <unicode hex="0130"/>
  <anchor x="224.0" y="1520.0" name="_top"/>
  <anchor x="224.0" y="0.0" name="bottom"/>
  <anchor x="258.0" y="0.0" name="ogonek"/>
  <anchor x="224.0" y="1520.0" name="top"/>
  <outline>
    <contour>
      <point x="190.0" y="0.0" type="line"/>
      <point x="258.0" y="0.0" type="line"/>
      <point x="258.0" y="1480.0" type="line"/>
      <point x="190.0" y="1480.0" type="line"/>
    </contour>
    <contour>
      <point x="224.0" y="1690.0" type="curve" smooth="yes"/>
      <point x="260.0" y="1690.0"/>
      <point x="286.0" y="1714.0"/>
      <point x="286.0" y="1752.0" type="curve" smooth="yes"/>
      <point x="286.0" y="1790.0"/>
      <point x="260.0" y="1816.0"/>
      <point x="224.0" y="1816.0" type="curve" smooth="yes"/>
      <point x="188.0" y="1816.0"/>
      <point x="162.0" y="1790.0"/>
      <point x="162.0" y="1752.0" type="curve" smooth="yes"/>
      <point x="162.0" y="1714.0"/>
      <point x="188.0" y="1690.0"/>
    </contour>
  </outline>
</glyph>
<glyph name="Jcircumflex" format="2">
  <advance width="448.0"/>
  <unicode hex="0134"/>
  <anchor x="224.0" y="1520.0" name="_top"/>
  <anchor x="310.0" y="0.0" name="bottom"/>
  <anchor x="224.0" y="1520.0" name="top"/>
  <outline>
    <contour>
      <point x="48.0" y="-340.0" type="line"/>
      <point x="193.0" y="-142.0"/>
      <point x="247.0" y="22.0"/>
      <point x="258.0" y="253.0" type="curve"/>
      <point x="258.0" y="1480.0" type="line"/>
      <point x="190.0" y="1480.0" type="line"/>
      <point x="190.0" y="286.0" type="line" smooth="yes"/>
      <point x="190.0" y="46.0"/>
      <point x="132.0" y="-122.0"/>
      <point x="-1.0" y="-305.0" type="curve"/>
    </contour>
    <contour>
      <point x="-54.0" y="1616.0" type="line"/>
      <point x="27.0" y="1616.0" type="line"/>
      <point x="237.0" y="1859.0" type="line"/>
      <point x="211.0" y="1859.0" type="line"/>
      <point x="421.0" y="1616.0" type="line"/>
      <point x="502.0" y="1616.0" type="line"/>
      <point x="262.0" y="1888.0" type="line"/>
      <point x="186.0" y="1888.0" type="line"/>
    </contour>
  </outline>
</glyph>
<glyph name="jcircumflex" format="2">
  <advance width="408.0"/>
  <unicode hex="0135"/>
  <anchor x="204.0" y="1206.0" name="_top"/>
  <anchor x="204.0" y="1206.0" name="top"/>
  <outline>
    <contour>
      <point x="28.0" y="-460.0" type="line"/>
      <point x="173.0" y="-262.0"/>
      <point x="238.0" y="-88.0"/>
      <point x="238.0" y="173.0" type="curve" smooth="yes"/>
      <point x="238.0" y="1080.0" type="line"/>
      <point x="170.0" y="1080.0" type="line"/>
      <point x="170.0" y="166.0" type="line" smooth="yes"/>
      <point x="170.0" y="-74.0"/>
      <point x="112.0" y="-242.0"/>
      <point x="-21.0" y="-425.0" type="curve"/>
    </contour>
    <contour>
      <point x="-52.0" y="1270.0" type="line"/>
      <point x="19.0" y="1270.0" type="line"/>
      <point x="217.0" y="1597.0" type="line"/>
      <point x="191.0" y="1597.0" type="line"/>
      <point x="389.0" y="1270.0" type="line"/>
      <point x="460.0" y="1270.0" type="line"/>
      <point x="242.0" y="1622.0" type="line"/>
      <point x="166.0" y="1622.0" type="line"/>
    </contour>
  </outline>
</glyph>
<glyph name="Kcommaaccent" format="2">
  <advance width="1183.0"/>
  <unicode hex="0136"/>
  <anchor x="616.0" y="0.0" name="_bottom"/>
  <anchor x="616.0" y="0.0" name="bottom"/>
  <anchor x="616.0" y="1480.0" name="top"/>
  <outline>
    <contour>
      <point x="1108.0" y="0.0" type="line"/>
      <point x="1193.0" y="0.0" type="line"/>
      <point x="561.0" y="774.0" type="line"/>
      <point x="561.0" y="750.0" type="line"/>
      <point x="1151.0" y="1480.0" type="line"/>
      <point x="1068.0" y="1480.0" type="line"/>
      <point x="488.0" y="758.0" type="line"/>
    </contour>
    <contour>
      <point x="190.0" y="0.0" type="line"/>
      <point x="258.0" y="0.0" type="line"/>
      <point x="258.0" y="1480.0" type="line"/>
      <point x="190.0" y="1480.0" type="line"/>
    </contour>
    <contour>
      <point x="242.0" y="728.0" type="line"/>
      <point x="532.0" y="728.0" type="line"/>
      <point x="532.0" y="793.0" type="line"/>
      <point x="242.0" y="793.0" type="line"/>
    </contour>
    <contour>
      <point x="590.0" y="-448.0" type="curve"/>
      <point x="634.0" y="-448.0" type="line"/>
      <point x="664.0" y="-386.0"/>
      <point x="678.0" y="-318.0"/>
      <point x="678.0" y="-270.0" type="curve" smooth="yes"/>
      <point x="678.0" y="-212.0"/>
      <point x="652.0" y="-184.0"/>
      <point x="612.0" y="-184.0" type="curve" smooth="yes"/>
      <point x="578.0" y="-184.0"/>
      <point x="554.0" y="-210.0"/>
      <point x="554.0" y="-246.0" type="curve" smooth="yes"/>
      <point x="554.0" y="-284.0"/>
      <point x="580.0" y="-310.0"/>
      <point x="616.0" y="-310.0" type="curve" smooth="yes"/>
      <point x="628.0" y="-310.0" type="line"/>
      <point x="624.0" y="-278.0" type="line"/>
      <point x="624.0" y="-326.0"/>
      <point x="618.0" y="-376.0"/>
    </contour>
  </outline>
</glyph>
<glyph name="kcommaaccent" format="2">
  <advance width="957.0"/>
  <unicode hex="0137"/>
  <anchor x="519.0" y="0.0" name="_bottom"/>
  <anchor x="519.0" y="0.0" name="bottom"/>
  <anchor x="204.0" y="1616.0" name="top"/>
  <outline>
    <contour>
      <point x="887.0" y="0.0" type="line"/>
      <point x="972.0" y="0.0" type="line"/>
      <point x="500.0" y="563.0" type="line"/>
      <point x="500.0" y="541.0" type="line"/>
      <point x="940.0" y="1080.0" type="line"/>
      <point x="856.0" y="1080.0" type="line"/>
      <point x="423.0" y="552.0" type="line"/>
    </contour>
    <contour>
      <point x="222.0" y="520.0" type="line"/>
      <point x="466.0" y="520.0" type="line"/>
      <point x="466.0" y="584.0" type="line"/>
      <point x="222.0" y="584.0" type="line"/>
    </contour>
    <contour>
      <point x="170.0" y="0.0" type="line"/>
      <point x="238.0" y="0.0" type="line"/>
      <point x="238.0" y="1616.0" type="line"/>
      <point x="170.0" y="1616.0" type="line"/>
    </contour>
    <contour>
      <point x="493.0" y="-448.0" type="curve"/>
      <point x="537.0" y="-448.0" type="line"/>
      <point x="567.0" y="-386.0"/>
      <point x="581.0" y="-318.0"/>
      <point x="581.0" y="-270.0" type="curve" smooth="yes"/>
      <point x="581.0" y="-212.0"/>
      <point x="555.0" y="-184.0"/>
      <point x="515.0" y="-184.0" type="curve" smooth="yes"/>
      <point x="481.0" y="-184.0"/>
      <point x="457.0" y="-210.0"/>
      <point x="457.0" y="-246.0" type="curve" smooth="yes"/>
      <point x="457.0" y="-284.0"/>
      <point x="483.0" y="-310.0"/>
      <point x="519.0" y="-310.0" type="curve" smooth="yes"/>
      <point x="531.0" y="-310.0" type="line"/>
      <point x="527.0" y="-278.0" type="line"/>
      <point x="527.0" y="-326.0"/>
      <point x="521.0" y="-376.0"/>
    </contour>
  </outline>
</glyph>
<glyph name="Lcommaaccent" format="2">
  <advance width="1027.0"/>
  <unicode hex="013B"/>
  <anchor x="603.0" y="0.0" name="_bottom"/>
  <anchor x="603.0" y="0.0" name="bottom"/>
  <anchor x="666.0" y="1616.0" name="caronalt"/>
  <anchor x="727.0" y="774.0" name="periodcentered"/>
  <anchor x="224.0" y="774.0" name="slash"/>
  <anchor x="224.0" y="1520.0" name="top"/>
  <outline>
    <contour>
      <point x="190.0" y="0.0" type="line"/>
      <point x="1014.0" y="0.0" type="line"/>
      <point x="1014.0" y="66.0" type="line"/>
      <point x="258.0" y="66.0" type="line"/>
      <point x="258.0" y="1480.0" type="line"/>
      <point x="190.0" y="1480.0" type="line"/>
    </contour>
    <contour>
      <point x="577.0" y="-448.0" type="curve"/>
      <point x="621.0" y="-448.0" type="line"/>
      <point x="651.0" y="-386.0"/>
      <point x="665.0" y="-318.0"/>
      <point x="665.0" y="-270.0" type="curve" smooth="yes"/>
      <point x="665.0" y="-212.0"/>
      <point x="639.0" y="-184.0"/>
      <point x="599.0" y="-184.0" type="curve" smooth="yes"/>
      <point x="565.0" y="-184.0"/>
      <point x="541.0" y="-210.0"/>
      <point x="541.0" y="-246.0" type="curve" smooth="yes"/>
      <point x="541.0" y="-284.0"/>
      <point x="567.0" y="-310.0"/>
      <point x="603.0" y="-310.0" type="curve" smooth="yes"/>
      <point x="615.0" y="-310.0" type="line"/>
      <point x="611.0" y="-278.0" type="line"/>
      <point x="611.0" y="-326.0"/>
      <point x="605.0" y="-376.0"/>
    </contour>
  </outline>
</glyph>
<glyph name="lcommaaccent" format="2">
  <advance width="408.0"/>
  <unicode hex="013C"/>
  <anchor x="204.0" y="0.0" name="_bottom"/>
  <anchor x="204.0" y="0.0" name="bottom"/>
  <anchor x="358.0" y="1616.0" name="caronalt"/>
  <anchor x="397.0" y="794.0" name="periodcentered"/>
  <anchor x="204.0" y="714.0" name="slash"/>
  <anchor x="204.0" y="1616.0" name="top"/>
  <outline>
    <contour>
      <point x="170.0" y="0.0" type="line"/>
      <point x="238.0" y="0.0" type="line"/>
      <point x="238.0" y="1616.0" type="line"/>
      <point x="170.0" y="1616.0" type="line"/>
    </contour>
    <contour>
      <point x="178.0" y="-448.0" type="curve"/>
      <point x="222.0" y="-448.0" type="line"/>
      <point x="252.0" y="-386.0"/>
      <point x="266.0" y="-318.0"/>
      <point x="266.0" y="-270.0" type="curve" smooth="yes"/>
      <point x="266.0" y="-212.0"/>
      <point x="240.0" y="-184.0"/>
      <point x="200.0" y="-184.0" type="curve" smooth="yes"/>
      <point x="166.0" y="-184.0"/>
      <point x="142.0" y="-210.0"/>
      <point x="142.0" y="-246.0" type="curve" smooth="yes"/>
      <point x="142.0" y="-284.0"/>
      <point x="168.0" y="-310.0"/>
      <point x="204.0" y="-310.0" type="curve" smooth="yes"/>
      <point x="216.0" y="-310.0" type="line"/>
      <point x="212.0" y="-278.0" type="line"/>
      <point x="212.0" y="-326.0"/>
      <point x="206.0" y="-376.0"/>
    </contour>
  </outline>
</glyph>
<glyph name="Lcaron" format="2">
  <advance width="1027.0"/>
  <unicode hex="013D"/>
  <anchor x="666.0" y="1616.0" name="_caronalt"/>
  <anchor x="603.0" y="0.0" name="bottom"/>
  <anchor x="666.0" y="1616.0" name="caronalt"/>
  <anchor x="727.0" y="774.0" name="periodcentered"/>
  <anchor x="224.0" y="774.0" name="slash"/>
  <anchor x="224.0" y="1520.0" name="top"/>
  <outline>
    <contour>
      <point x="190.0" y="0.0" type="line"/>
      <point x="1014.0" y="0.0" type="line"/>
      <point x="1014.0" y="66.0" type="line"/>
      <point x="258.0" y="66.0" type="line"/>
      <point x="258.0" y="1480.0" type="line"/>
      <point x="190.0" y="1480.0" type="line"/>
    </contour>
    <contour>
      <point x="648.0" y="1140.0" type="curve"/>
      <point x="694.0" y="1140.0" type="line"/>
      <point x="722.0" y="1282.0"/>
      <point x="730.0" y="1446.0"/>
      <point x="730.0" y="1616.0" type="curve"/>
      <point x="666.0" y="1616.0" type="line"/>
      <point x="666.0" y="1452.0"/>
      <point x="664.0" y="1280.0"/>
    </contour>
  </outline>
</glyph>
<glyph name="lcaron" format="2">
  <advance width="408.0"/>
  <unicode hex="013E"/>
  <anchor x="358.0" y="1616.0" name="_caronalt"/>
  <anchor x="204.0" y="0.0" name="bottom"/>
  <anchor x="358.0" y="1616.0" name="caronalt"/>
  <anchor x="397.0" y="794.0" name="periodcentered"/>
  <anchor x="204.0" y="714.0" name="slash"/>
  <anchor x="204.0" y="1616.0" name="top"/>
  <outline>
    <contour>
      <point x="170.0" y="0.0" type="line"/>
      <point x="238.0" y="0.0" type="line"/>
      <point x="238.0" y="1616.0" type="line"/>
      <point x="170.0" y="1616.0" type="line"/>
    </contour>
    <contour>
      <point x="340.0" y="1180.0" type="curve"/>
      <point x="386.0" y="1180.0" type="line"/>
      <point x="414.0" y="1322.0"/>
      <point x="422.0" y="1486.0"/>
      <point x="422.0" y="1616.0" type="curve"/>
      <point x="358.0" y="1616.0" type="line"/>
      <point x="358.0" y="1492.0"/>
      <point x="356.0" y="1320.0"/>
    </contour>
  </outline>
</glyph>
<glyph name="Ldot" format="2">
  <advance width="1027.0"/>
  <unicode hex="013F"/>
  <anchor x="727.0" y="774.0" name="_periodcentered"/>
  <anchor x="603.0" y="0.0" name="bottom"/>
  <anchor x="666.0" y="1616.0" name="caronalt"/>
  <anchor x="727.0" y="774.0" name="periodcentered"/>
  <anchor x="224.0" y="774.0" name="slash"/>
  <anchor x="224.0" y="1520.0" name="top"/>
  <outline>
    <contour>
      <point x="190.0" y="0.0" type="line"/>
      <point x="1014.0" y="0.0" type="line"/>
      <point x="1014.0" y="66.0" type="line"/>
      <point x="258.0" y="66.0" type="line"/>
      <point x="258.0" y="1480.0" type="line"/>
      <point x="190.0" y="1480.0" type="line"/>
    </contour>
    <contour>
      <point x="727.0" y="710.0" type="curve" smooth="yes"/>
      <point x="763.0" y="710.0"/>
      <point x="789.0" y="734.0"/>
      <point x="789.0" y="772.0" type="curve" smooth="yes"/>
      <point x="789.0" y="810.0"/>
      <point x="763.0" y="836.0"/>
      <point x="727.0" y="836.0" type="curve" smooth="yes"/>
      <point x="691.0" y="836.0"/>
      <point x="665.0" y="810.0"/>
      <point x="665.0" y="772.0" type="curve" smooth="yes"/>
      <point x="665.0" y="734.0"/>
      <point x="691.0" y="710.0"/>
    </contour>
  </outline>
</glyph>
<glyph name="Lslash" format="2">
  <advance width="1027.0"/>
  <unicode hex="0141"/>
  <anchor x="224.0" y="774.0" name="_slash"/>
  <anchor x="603.0" y="0.0" name="bottom"/>
  <anchor x="666.0" y="1616.0" name="caronalt"/>
  <anchor x="727.0" y="774.0" name="periodcentered"/>
  <anchor x="224.0" y="774.0" name="slash"/>
  <anchor x="224.0" y="1520.0" name="top"/>
  <outline>
    <contour>
      <point x="190.0" y="0.0" type="line"/>
      <point x="1014.0" y="0.0" type="line"/>
      <point x="1014.0" y="66.0" type="line"/>
      <point x="258.0" y="66.0" type="line"/>
      <point x="258.0" y="1480.0" type="line"/>
      <point x="190.0" y="1480.0" type="line"/>
    </contour>
    <contour>
      <point x="40.0" y="568.0" type="line"/>
      <point x="573.0" y="1035.0" type="line"/>
      <point x="534.0" y="1080.0" type="line"/>
      <point x="1.0" y="613.0" type="line"/>
    </contour>
  </outline>
</glyph>
<glyph name="lslash" format="2">
  <advance width="408.0"/>
  <unicode hex="0142"/>
  <anchor x="204.0" y="714.0" name="_slash"/>
  <anchor x="204.0" y="0.0" name="bottom"/>
  <anchor x="358.0" y="1616.0" name="caronalt"/>
  <anchor x="397.0" y="794.0" name="periodcentered"/>
  <anchor x="204.0" y="714.0" name="slash"/>
  <anchor x="204.0" y="1616.0" name="top"/>
  <outline>
    <contour>
      <point x="170.0" y="0.0" type="line"/>
      <point x="238.0" y="0.0" type="line"/>
      <point x="238.0" y="1616.0" type="line"/>
      <point x="170.0" y="1616.0" type="line"/>
    </contour>
    <contour>
      <point x="51.0" y="540.0" type="line"/>
      <point x="398.0" y="844.0" type="line"/>
      <point x="359.0" y="888.0" type="line"/>
      <point x="12.0" y="584.0" type="line"/>
    </contour>
  </outline>
</glyph>
<glyph name="Nacute" format="2">
  <advance width="1427.0"/>
  <unicode hex="0143"/>
  <anchor x="714.0" y="1520.0" name="_top"/>
  <anchor x="714.0" y="0.0" name="bottom"/>
  <anchor x="714.0" y="1520.0" name="top"/>
  <outline>
    <contour>
      <point x="190.0" y="0.0" type="line"/>
      <point x="256.0" y="0.0" type="line"/>
      <point x="256.0" y="1420.0" type="line"/>
      <point x="225.0" y="1420.0" type="line"/>
      <point x="1162.0" y="0.0" type="line"/>
      <point x="1237.0" y="0.0" type="line"/>
      <point x="1237.0" y="1480.0" type="line"/>
      <point x="1171.0" y="1480.0" type="line"/>
      <point x="1171.0" y="60.0" type="line"/>
      <point x="1202.0" y="60.0" type="line"/>
      <point x="265.0" y="1480.0" type="line"/>
      <point x="190.0" y="1480.0" type="line"/>
    </contour>
    <contour>
      <point x="682.0" y="1616.0" type="line"/>
      <point x="746.0" y="1616.0" type="line"/>
      <point x="936.0" y="1888.0" type="line"/>
      <point x="857.0" y="1888.0" type="line"/>
    </contour>
  </outline>
</glyph>
<glyph name="nacute" format="2">
  <advance width="1087.0"/>
  <unicode hex="0144"/>
  <anchor x="551.0" y="1200.0" name="_top"/>
  <anchor x="13.0" y="1200.0" name="apostrophe"/>
  <anchor x="551.0" y="0.0" name="bottom"/>
  <anchor x="551.0" y="1200.0" name="top"/>
  <outline>
    <contour>
      <point x="170.0" y="0.0" type="line"/>
      <point x="238.0" y="0.0" type="line"/>
      <point x="238.0" y="853.0" type="line"/>
      <point x="334.0" y="985.0"/>
      <point x="482.0" y="1030.0"/>
      <point x="594.0" y="1030.0" type="curve" smooth="yes"/>
      <point x="758.0" y="1030.0"/>
      <point x="863.0" y="955.0"/>
      <point x="863.0" y="738.0" type="curve" smooth="yes"/>
      <point x="863.0" y="0.0" type="line"/>
      <point x="931.0" y="0.0" type="line"/>
      <point x="931.0" y="738.0" type="line" smooth="yes"/>
      <point x="931.0" y="1003.0"/>
      <point x="793.0" y="1096.0"/>
      <point x="596.0" y="1096.0" type="curve" smooth="yes"/>
      <point x="462.0" y="1096.0"/>
      <point x="337.0" y="1044.0"/>
      <point x="244.0" y="951.0" type="curve"/>
      <point x="236.0" y="951.0" type="line"/>
      <point x="230.0" y="1080.0" type="line"/>
      <point x="170.0" y="1080.0" type="line"/>
    </contour>
    <contour>
      <point x="519.0" y="1264.0" type="line"/>
      <point x="583.0" y="1264.0" type="line"/>
      <point x="805.0" y="1616.0" type="line"/>
      <point x="727.0" y="1616.0" type="line"/>
    </contour>
  </outline>
</glyph>
<glyph name="Ncommaaccent" format="2">
  <advance width="1427.0"/>
  <unicode hex="0145"/>
  <anchor x="714.0" y="0.0" name="_bottom"/>
  <anchor x="714.0" y="0.0" name="bottom"/>
  <anchor x="714.0" y="1520.0" name="top"/>
  <outline>
    <contour>
      <point x="190.0" y="0.0" type="line"/>
      <point x="256.0" y="0.0" type="line"/>
      <point x="256.0" y="1420.0" type="line"/>
      <point x="225.0" y="1420.0" type="line"/>
      <point x="1162.0" y="0.0" type="line"/>
      <point x="1237.0" y="0.0" type="line"/>
      <point x="1237.0" y="1480.0" type="line"/>
      <point x="1171.0" y="1480.0" type="line"/>
      <point x="1171.0" y="60.0" type="line"/>
      <point x="1202.0" y="60.0" type="line"/>
      <point x="265.0" y="1480.0" type="line"/>
      <point x="190.0" y="1480.0" type="line"/>
    </contour>
    <contour>
      <point x="688.0" y="-448.0" type="curve"/>
      <point x="732.0" y="-448.0" type="line"/>
      <point x="762.0" y="-386.0"/>
      <point x="776.0" y="-318.0"/>
      <point x="776.0" y="-270.0" type="curve" smooth="yes"/>
      <point x="776.0" y="-212.0"/>
      <point x="750.0" y="-184.0"/>
      <point x="710.0" y="-184.0" type="curve" smooth="yes"/>
      <point x="676.0" y="-184.0"/>
      <point x="652.0" y="-210.0"/>
      <point x="652.0" y="-246.0" type="curve" smooth="yes"/>
      <point x="652.0" y="-284.0"/>
      <point x="678.0" y="-310.0"/>
      <point x="714.0" y="-310.0" type="curve" smooth="yes"/>
      <point x="726.0" y="-310.0" type="line"/>
      <point x="722.0" y="-278.0" type="line"/>
      <point x="722.0" y="-326.0"/>
      <point x="716.0" y="-376.0"/>
    </contour>
  </outline>
</glyph>
<glyph name="Ncaron" format="2">
  <advance width="1427.0"/>
  <unicode hex="0147"/>
  <anchor x="714.0" y="1520.0" name="_top"/>
  <anchor x="714.0" y="0.0" name="bottom"/>
  <anchor x="714.0" y="1520.0" name="top"/>
  <outline>
    <contour>
      <point x="190.0" y="0.0" type="line"/>
      <point x="256.0" y="0.0" type="line"/>
      <point x="256.0" y="1420.0" type="line"/>
      <point x="225.0" y="1420.0" type="line"/>
      <point x="1162.0" y="0.0" type="line"/>
      <point x="1237.0" y="0.0" type="line"/>
      <point x="1237.0" y="1480.0" type="line"/>
      <point x="1171.0" y="1480.0" type="line"/>
      <point x="1171.0" y="60.0" type="line"/>
      <point x="1202.0" y="60.0" type="line"/>
      <point x="265.0" y="1480.0" type="line"/>
      <point x="190.0" y="1480.0" type="line"/>
    </contour>
    <contour>
      <point x="676.0" y="1616.0" type="line"/>
      <point x="752.0" y="1616.0" type="line"/>
      <point x="992.0" y="1888.0" type="line"/>
      <point x="911.0" y="1888.0" type="line"/>
      <point x="701.0" y="1645.0" type="line"/>
      <point x="727.0" y="1645.0" type="line"/>
      <point x="517.0" y="1888.0" type="line"/>
      <point x="436.0" y="1888.0" type="line"/>
    </contour>
  </outline>
</glyph>
<glyph name="napostrophe" format="2">
  <advance width="1087.0"/>
  <unicode hex="0149"/>
  <anchor x="13.0" y="1200.0" name="_apostrophe"/>
  <anchor x="13.0" y="1200.0" name="apostrophe"/>
  <anchor x="551.0" y="0.0" name="bottom"/>
  <anchor x="551.0" y="1200.0" name="top"/>
  <outline>
    <contour>
      <point x="170.0" y="0.0" type="line"/>
      <point x="238.0" y="0.0" type="line"/>
      <point x="238.0" y="853.0" type="line"/>
      <point x="334.0" y="985.0"/>
      <point x="482.0" y="1030.0"/>
      <point x="594.0" y="1030.0" type="curve" smooth="yes"/>
      <point x="758.0" y="1030.0"/>
      <point x="863.0" y="955.0"/>
      <point x="863.0" y="738.0" type="curve" smooth="yes"/>
      <point x="863.0" y="0.0" type="line"/>
      <point x="931.0" y="0.0" type="line"/>
      <point x="931.0" y="738.0" type="line" smooth="yes"/>
      <point x="931.0" y="1003.0"/>
      <point x="793.0" y="1096.0"/>
      <point x="596.0" y="1096.0" type="curve" smooth="yes"/>
      <point x="462.0" y="1096.0"/>
      <point x="337.0" y="1044.0"/>
      <point x="244.0" y="951.0" type="curve"/>
      <point x="236.0" y="951.0" type="line"/>
      <point x="230.0" y="1080.0" type="line"/>
      <point x="170.0" y="1080.0" type="line"/>
    </contour>
    <contour>
      <point x="49.0" y="1360.0" type="curve"/>
      <point x="93.0" y="1360.0" type="line"/>
      <point x="123.0" y="1422.0"/>
      <point x="137.0" y="1490.0"/>
      <point x="137.0" y="1538.0" type="curve" smooth="yes"/>
      <point x="137.0" y="1596.0"/>
      <point x="111.0" y="1624.0"/>
      <point x="71.0" y="1624.0" type="curve" smooth="yes"/>
      <point x="37.0" y="1624.0"/>
      <point x="13.0" y="1598.0"/>
      <point x="13.0" y="1562.0" type="curve" smooth="yes"/>
      <point x="13.0" y="1524.0"/>
      <point x="39.0" y="1498.0"/>
      <point x="75.0" y="1498.0" type="curve" smooth="yes"/>
      <point x="87.0" y="1498.0" type="line"/>
      <point x="83.0" y="1530.0" type="line"/>
      <point x="83.0" y="1482.0"/>
      <point x="77.0" y="1432.0"/>
    </contour>
  </outline>
</glyph>
<glyph name="Eng" format="2">
  <advance width="1427.0"/>
  <unicode hex="014A"/>
  <outline>
    <contour>
      <point x="1175.0" y="-21.0" type="line"/>
      <point x="1216.0" y="39.0" type="line"/>
      <point x="265.0" y="1480.0" type="line"/>
      <point x="190.0" y="1480.0" type="line"/>
      <point x="190.0" y="0.0" type="line"/>
      <point x="256.0" y="0.0" type="line"/>
      <point x="256.0" y="1420.0" type="line"/>
      <point x="224.0" y="1420.0" type="line"/>
    </contour>
    <contour>
      <point x="1027.0" y="-460.0" type="line"/>
      <point x="1172.0" y="-262.0"/>
      <point x="1237.0" y="-88.0"/>
      <point x="1237.0" y="173.0" type="curve" smooth="yes"/>
      <point x="1237.0" y="1480.0" type="line"/>
      <point x="1171.0" y="1480.0" type="line"/>
      <point x="1171.0" y="166.0" type="line" smooth="yes"/>
      <point x="1171.0" y="-74.0"/>
      <point x="1111.0" y="-242.0"/>
      <point x="978.0" y="-425.0" type="curve"/>
    </contour>
  </outline>
</glyph>
<glyph name="Obreve" format="2">
  <advance width="1368.0"/>
  <unicode hex="014E"/>
  <anchor x="684.0" y="1520.0" name="_top"/>
  <anchor x="684.0" y="0.0" name="bottom"/>
  <anchor x="684.0" y="740.0" name="center"/>
  <anchor x="844.0" y="0.0" name="ogonek"/>
  <anchor x="684.0" y="1520.0" name="top"/>
  <anchor x="44.0" y="1480.0" name="topleft"/>
  <anchor x="843.0" y="1480.0" name="topright"/>
  <outline>
    <contour>
      <point x="684.0" y="-18.0" type="curve" smooth="yes"/>
      <point x="1020.0" y="-18.0"/>
      <point x="1250.0" y="195.0"/>
      <point x="1250.0" y="740.0" type="curve" smooth="yes"/>
      <point x="1250.0" y="1285.0"/>
      <point x="1023.0" y="1498.0"/>
      <point x="684.0" y="1498.0" type="curve" smooth="yes"/>
      <point x="348.0" y="1498.0"/>
      <point x="118.0" y="1285.0"/>
      <point x="118.0" y="740.0" type="curve" smooth="yes"/>
      <point x="118.0" y="195.0"/>
      <point x="345.0" y="-18.0"/>
    </contour>
    <contour>
      <point x="684.0" y="49.0" type="curve" smooth="yes"/>
      <point x="390.0" y="49.0"/>
      <point x="190.0" y="224.0"/>
      <point x="190.0" y="744.0" type="curve" smooth="yes"/>
      <point x="190.0" y="1256.0"/>
      <point x="390.0" y="1431.0"/>
      <point x="684.0" y="1431.0" type="curve" smooth="yes"/>
      <point x="978.0" y="1431.0"/>
      <point x="1178.0" y="1256.0"/>
      <point x="1178.0" y="736.0" type="curve" smooth="yes"/>
      <point x="1178.0" y="224.0"/>
      <point x="978.0" y="49.0"/>
    </contour>
    <contour>
      <point x="686.0" y="1628.0" type="curve" smooth="yes"/>
      <point x="865.0" y="1628.0"/>
      <point x="954.0" y="1717.0"/>
      <point x="966.0" y="1860.0" type="curve"/>
      <point x="908.0" y="1860.0" type="line"/>
      <point x="895.0" y="1747.0"/>
      <point x="837.0" y="1687.0"/>
      <point x="686.0" y="1687.0" type="curve" smooth="yes"/>
      <point x="535.0" y="1687.0"/>
      <point x="475.0" y="1747.0"/>
      <point x="460.0" y="1860.0" type="curve"/>
      <point x="402.0" y="1860.0" type="line"/>
      <point x="414.0" y="1719.0"/>
      <point x="507.0" y="1628.0"/>
    </contour>
  </outline>
</glyph>
<glyph name="obreve" format="2">
  <advance width="1058.0"/>
  <unicode hex="014F"/>
  <anchor x="529.0" y="1200.0" name="_top"/>
  <anchor x="529.0" y="0.0" name="bottom"/>
  <anchor x="529.0" y="540.0" name="center"/>
  <anchor x="663.0" y="0.0" name="ogonek"/>
  <anchor x="529.0" y="1200.0" name="top"/>
  <anchor x="655.0" y="1080.0" name="topright"/>
  <outline>
    <contour>
      <point x="529.0" y="-18.0" type="curve" smooth="yes"/>
      <point x="781.0" y="-18.0"/>
      <point x="950.0" y="143.0"/>
      <point x="950.0" y="540.0" type="curve" smooth="yes"/>
      <point x="950.0" y="941.0"/>
      <point x="781.0" y="1096.0"/>
      <point x="529.0" y="1096.0" type="curve" smooth="yes"/>
      <point x="277.0" y="1096.0"/>
      <point x="108.0" y="937.0"/>
      <point x="108.0" y="540.0" type="curve" smooth="yes"/>
      <point x="108.0" y="139.0"/>
      <point x="277.0" y="-18.0"/>
    </contour>
    <contour>
      <point x="529.0" y="48.0" type="curve" smooth="yes"/>
      <point x="317.0" y="48.0"/>
      <point x="180.0" y="172.0"/>
      <point x="180.0" y="543.0" type="curve" smooth="yes"/>
      <point x="180.0" y="908.0"/>
      <point x="317.0" y="1030.0"/>
      <point x="529.0" y="1030.0" type="curve" smooth="yes"/>
      <point x="741.0" y="1030.0"/>
      <point x="878.0" y="908.0"/>
      <point x="878.0" y="537.0" type="curve" smooth="yes"/>
      <point x="878.0" y="172.0"/>
      <point x="741.0" y="48.0"/>
    </contour>
    <contour>
      <point x="531.0" y="1276.0" type="curve" smooth="yes"/>
      <point x="692.0" y="1276.0"/>
      <point x="784.0" y="1390.0"/>
      <point x="791.0" y="1588.0" type="curve"/>
      <point x="733.0" y="1588.0" type="line"/>
      <point x="725.0" y="1422.0"/>
      <point x="664.0" y="1333.0"/>
      <point x="531.0" y="1333.0" type="curve" smooth="yes"/>
      <point x="398.0" y="1333.0"/>
      <point x="335.0" y="1422.0"/>
      <point x="325.0" y="1588.0" type="curve"/>
      <point x="267.0" y="1588.0" type="line"/>
      <point x="274.0" y="1392.0"/>
      <point x="369.0" y="1276.0"/>
    </contour>
  </outline>
</glyph>
<glyph name="oe" format="2">
  <advance width="1738.0"/>
  <unicode hex="0153"/>
  <anchor x="906.0" y="0.0" name="bottom"/>
  <anchor x="906.0" y="1200.0" name="top"/>
  <outline>
    <contour>
      <point x="525.0" y="-18.0" type="curve" smooth="yes"/>
      <point x="772.0" y="-18.0"/>
      <point x="935.0" y="143.0"/>
      <point x="935.0" y="540.0" type="curve" smooth="yes"/>
      <point x="935.0" y="941.0"/>
      <point x="772.0" y="1096.0"/>
      <point x="525.0" y="1096.0" type="curve" smooth="yes"/>
      <point x="277.0" y="1096.0"/>
      <point x="108.0" y="937.0"/>
      <point x="108.0" y="540.0" type="curve" smooth="yes"/>
      <point x="108.0" y="139.0"/>
      <point x="277.0" y="-18.0"/>
    </contour>
    <contour>
      <point x="525.0" y="48.0" type="curve" smooth="yes"/>
      <point x="317.0" y="48.0"/>
      <point x="180.0" y="172.0"/>
      <point x="180.0" y="543.0" type="curve" smooth="yes"/>
      <point x="180.0" y="908.0"/>
      <point x="317.0" y="1030.0"/>
      <point x="525.0" y="1030.0" type="curve" smooth="yes"/>
      <point x="733.0" y="1030.0"/>
      <point x="870.0" y="908.0"/>
      <point x="870.0" y="537.0" type="curve" smooth="yes"/>
      <point x="870.0" y="172.0"/>
      <point x="733.0" y="48.0"/>
    </contour>
    <contour>
      <point x="1330.0" y="-18.0" type="curve" smooth="yes"/>
      <point x="1415.0" y="-18.0"/>
      <point x="1501.0" y="-4.0"/>
      <point x="1597.0" y="29.0" type="curve"/>
      <point x="1597.0" y="97.0" type="line"/>
      <point x="1496.0" y="64.0"/>
      <point x="1413.0" y="48.0"/>
      <point x="1334.0" y="48.0" type="curve" smooth="yes"/>
      <point x="1085.0" y="48.0"/>
      <point x="942.0" y="178.0"/>
      <point x="942.0" y="535.0" type="curve" smooth="yes"/>
      <point x="942.0" y="550.0" type="line" smooth="yes"/>
      <point x="942.0" y="905.0"/>
      <point x="1068.0" y="1031.0"/>
      <point x="1263.0" y="1031.0" type="curve" smooth="yes"/>
      <point x="1458.0" y="1031.0"/>
      <point x="1576.0" y="907.0"/>
      <point x="1576.0" y="544.0" type="curve"/>
      <point x="1603.0" y="576.0" type="line"/>
      <point x="915.0" y="576.0" type="line"/>
      <point x="915.0" y="510.0" type="line"/>
      <point x="1647.0" y="510.0" type="line"/>
      <point x="1647.0" y="542.0" type="line" smooth="yes"/>
      <point x="1647.0" y="936.0"/>
      <point x="1501.0" y="1097.0"/>
      <point x="1263.0" y="1097.0" type="curve" smooth="yes"/>
      <point x="1028.0" y="1097.0"/>
      <point x="880.0" y="938.0"/>
      <point x="880.0" y="551.0" type="curve"/>
      <point x="874.0" y="542.0" type="line"/>
      <point x="874.0" y="143.0"/>
      <point x="1038.0" y="-18.0"/>
    </contour>
  </outline>
</glyph>
<glyph name="Racute" format="2">
  <advance width="1266.0"/>
  <unicode hex="0154"/>
  <anchor x="602.0" y="1520.0" name="_top"/>
  <anchor x="660.0" y="0.0" name="bottom"/>
  <anchor x="602.0" y="1520.0" name="top"/>
  <outline>
    <contour>
      <point x="190.0" y="0.0" type="line"/>
      <point x="258.0" y="0.0" type="line"/>
      <point x="258.0" y="661.0" type="line"/>
      <point x="332.0" y="655.0"/>
      <point x="395.0" y="651.0"/>
      <point x="491.0" y="651.0" type="curve" smooth="yes"/>
      <point x="892.0" y="651.0"/>
      <point x="1089.0" y="794.0"/>
      <point x="1087.0" y="1078.0" type="curve" smooth="yes"/>
      <point x="1087.0" y="1364.0"/>
      <point x="914.0" y="1494.0"/>
      <point x="545.0" y="1494.0" type="curve" smooth="yes"/>
      <point x="397.0" y="1494.0"/>
      <point x="291.0" y="1479.0"/>
      <point x="190.0" y="1461.0" type="curve"/>
    </contour>
    <contour>
      <point x="1114.0" y="0.0" type="line"/>
      <point x="1197.0" y="0.0" type="line"/>
      <point x="646.0" y="703.0" type="line"/>
      <point x="565.0" y="703.0" type="line"/>
    </contour>
    <contour>
      <point x="489.0" y="716.0" type="curve" smooth="yes"/>
      <point x="395.0" y="716.0"/>
      <point x="346.0" y="719.0"/>
      <point x="258.0" y="726.0" type="curve"/>
      <point x="258.0" y="1404.0" type="line"/>
      <point x="346.0" y="1419.0"/>
      <point x="422.0" y="1428.0"/>
      <point x="541.0" y="1428.0" type="curve" smooth="yes"/>
      <point x="880.0" y="1428.0"/>
      <point x="1019.0" y="1327.0"/>
      <point x="1019.0" y="1075.0" type="curve" smooth="yes"/>
      <point x="1019.0" y="834.0"/>
      <point x="865.0" y="716.0"/>
    </contour>
    <contour>
      <point x="570.0" y="1616.0" type="line"/>
      <point x="634.0" y="1616.0" type="line"/>
      <point x="824.0" y="1888.0" type="line"/>
      <point x="745.0" y="1888.0" type="line"/>
    </contour>
  </outline>
</glyph>
<glyph name="racute" format="2">
  <advance width="673.0"/>
  <unicode hex="0155"/>
  <anchor x="402.0" y="1200.0" name="_top"/>
  <anchor x="204.0" y="0.0" name="bottom"/>
  <anchor x="402.0" y="1200.0" name="top"/>
  <outline>
    <contour>
      <point x="170.0" y="0.0" type="line"/>
      <point x="238.0" y="0.0" type="line"/>
      <point x="238.0" y="836.0" type="line"/>
      <point x="319.0" y="960.0"/>
      <point x="461.0" y="1018.0"/>
      <point x="575.0" y="1018.0" type="curve" smooth="yes"/>
      <point x="608.0" y="1018.0"/>
      <point x="632.0" y="1017.0"/>
      <point x="660.0" y="1013.0" type="curve"/>
      <point x="660.0" y="1081.0" type="line"/>
      <point x="633.0" y="1086.0"/>
      <point x="609.0" y="1088.0"/>
      <point x="576.0" y="1088.0" type="curve" smooth="yes"/>
      <point x="454.0" y="1088.0"/>
      <point x="325.0" y="1032.0"/>
      <point x="244.0" y="933.0" type="curve"/>
      <point x="236.0" y="933.0" type="line"/>
      <point x="230.0" y="1080.0" type="line"/>
      <point x="170.0" y="1080.0" type="line"/>
    </contour>
    <contour>
      <point x="370.0" y="1264.0" type="line"/>
      <point x="434.0" y="1264.0" type="line"/>
      <point x="656.0" y="1616.0" type="line"/>
      <point x="578.0" y="1616.0" type="line"/>
    </contour>
  </outline>
</glyph>
<glyph name="rcommaaccent" format="2">
  <advance width="673.0"/>
  <unicode hex="0157"/>
  <anchor x="204.0" y="0.0" name="_bottom"/>
  <anchor x="204.0" y="0.0" name="bottom"/>
  <anchor x="402.0" y="1200.0" name="top"/>
  <outline>
    <contour>
      <point x="170.0" y="0.0" type="line"/>
      <point x="238.0" y="0.0" type="line"/>
      <point x="238.0" y="836.0" type="line"/>
      <point x="319.0" y="960.0"/>
      <point x="461.0" y="1018.0"/>
      <point x="575.0" y="1018.0" type="curve" smooth="yes"/>
      <point x="608.0" y="1018.0"/>
      <point x="632.0" y="1017.0"/>
      <point x="660.0" y="1013.0" type="curve"/>
      <point x="660.0" y="1081.0" type="line"/>
      <point x="633.0" y="1086.0"/>
      <point x="609.0" y="1088.0"/>
      <point x="576.0" y="1088.0" type="curve" smooth="yes"/>
      <point x="454.0" y="1088.0"/>
      <point x="325.0" y="1032.0"/>
      <point x="244.0" y="933.0" type="curve"/>
      <point x="236.0" y="933.0" type="line"/>
      <point x="230.0" y="1080.0" type="line"/>
      <point x="170.0" y="1080.0" type="line"/>
    </contour>
    <contour>
      <point x="178.0" y="-448.0" type="curve"/>
      <point x="222.0" y="-448.0" type="line"/>
      <point x="252.0" y="-386.0"/>
      <point x="266.0" y="-318.0"/>
      <point x="266.0" y="-270.0" type="curve" smooth="yes"/>
      <point x="266.0" y="-212.0"/>
      <point x="240.0" y="-184.0"/>
      <point x="200.0" y="-184.0" type="curve" smooth="yes"/>
      <point x="166.0" y="-184.0"/>
      <point x="142.0" y="-210.0"/>
      <point x="142.0" y="-246.0" type="curve" smooth="yes"/>
      <point x="142.0" y="-284.0"/>
      <point x="168.0" y="-310.0"/>
      <point x="204.0" y="-310.0" type="curve" smooth="yes"/>
      <point x="216.0" y="-310.0" type="line"/>
      <point x="212.0" y="-278.0" type="line"/>
      <point x="212.0" y="-326.0"/>
      <point x="206.0" y="-376.0"/>
    </contour>
  </outline>
</glyph>
<glyph name="Scedilla" format="2">
  <advance width="1010.0"/>
  <unicode hex="015E"/>
  <anchor x="512.0" y="0.0" name="_bottom"/>
  <anchor x="512.0" y="0.0" name="bottom"/>
  <anchor x="512.0" y="1520.0" name="top"/>
  <outline>
    <contour>
      <point x="438.0" y="-18.0" type="curve" smooth="yes"/>
      <point x="750.0" y="-18.0"/>
      <point x="925.0" y="123.0"/>
      <point x="925.0" y="380.0" type="curve" smooth="yes"/>
      <point x="925.0" y="587.0"/>
      <point x="805.0" y="706.0"/>
      <point x="539.0" y="774.0" type="curve" smooth="yes"/>
      <point x="477.0" y="790.0" type="line" smooth="yes"/>
      <point x="245.0" y="851.0"/>
      <point x="157.0" y="937.0"/>
      <point x="157.0" y="1116.0" type="curve" smooth="yes"/>
      <point x="157.0" y="1319.0"/>
      <point x="290.0" y="1432.0"/>
      <point x="557.0" y="1432.0" type="curve" smooth="yes"/>
      <point x="661.0" y="1432.0"/>
      <point x="762.0" y="1418.0"/>
      <point x="867.0" y="1385.0" type="curve"/>
      <point x="867.0" y="1453.0" type="line"/>
      <point x="776.0" y="1483.0"/>
      <point x="663.0" y="1498.0"/>
      <point x="561.0" y="1498.0" type="curve" smooth="yes"/>
      <point x="247.0" y="1498.0"/>
      <point x="85.0" y="1350.0"/>
      <point x="85.0" y="1112.0" type="curve" smooth="yes"/>
      <point x="85.0" y="906.0"/>
      <point x="205.0" y="786.0"/>
      <point x="452.0" y="722.0" type="curve" smooth="yes"/>
      <point x="514.0" y="706.0" type="line" smooth="yes"/>
      <point x="754.0" y="643.0"/>
      <point x="853.0" y="561.0"/>
      <point x="853.0" y="377.0" type="curve" smooth="yes"/>
      <point x="853.0" y="160.0"/>
      <point x="714.0" y="48.0"/>
      <point x="442.0" y="48.0" type="curve" smooth="yes"/>
      <point x="339.0" y="48.0"/>
      <point x="225.0" y="65.0"/>
      <point x="101.0" y="107.0" type="curve"/>
      <point x="101.0" y="39.0" type="line"/>
      <point x="212.0" y="0.0"/>
      <point x="335.0" y="-18.0"/>
    </contour>
    <contour>
      <point x="524.0" y="-400.0" type="curve" smooth="yes"/>
      <point x="638.0" y="-400.0"/>
      <point x="715.0" y="-352.0"/>
      <point x="715.0" y="-256.0" type="curve" smooth="yes"/>
      <point x="715.0" y="-160.0"/>
      <point x="638.0" y="-112.0"/>
      <point x="527.0" y="-112.0" type="curve"/>
      <point x="540.0" y="-142.0" type="line"/>
      <point x="540.0" y="20.0" type="line"/>
      <point x="484.0" y="20.0" type="line"/>
      <point x="484.0" y="-164.0" type="line"/>
      <point x="522.0" y="-164.0" type="line" smooth="yes"/>
      <point x="608.0" y="-164.0"/>
      <point x="659.0" y="-192.0"/>
      <point x="659.0" y="-256.0" type="curve" smooth="yes"/>
      <point x="659.0" y="-320.0"/>
      <point x="608.0" y="-348.0"/>
      <point x="524.0" y="-348.0" type="curve" smooth="yes"/>
      <point x="466.0" y="-348.0"/>
      <point x="411.0" y="-337.0"/>
      <point x="337.0" y="-305.0" type="curve"/>
      <point x="337.0" y="-361.0" type="line"/>
      <point x="393.0" y="-387.0"/>
      <point x="463.0" y="-400.0"/>
    </contour>
  </outline>
</glyph>
<glyph name="scedilla" format="2">
  <advance width="856.0"/>
  <unicode hex="015F"/>
  <anchor x="434.0" y="0.0" name="_bottom"/>
  <anchor x="434.0" y="0.0" name="bottom"/>
  <anchor x="434.0" y="1200.0" name="top"/>
  <outline>
    <contour>
      <point x="392.0" y="-18.0" type="curve" smooth="yes"/>
      <point x="648.0" y="-18.0"/>
      <point x="776.0" y="96.0"/>
      <point x="776.0" y="280.0" type="curve" smooth="yes"/>
      <point x="776.0" y="426.0"/>
      <point x="706.0" y="518.0"/>
      <point x="503.0" y="564.0" type="curve" smooth="yes"/>
      <point x="374.0" y="592.0" type="line" smooth="yes"/>
      <point x="226.0" y="625.0"/>
      <point x="175.0" y="697.0"/>
      <point x="175.0" y="806.0" type="curve" smooth="yes"/>
      <point x="175.0" y="933.0"/>
      <point x="263.0" y="1030.0"/>
      <point x="485.0" y="1030.0" type="curve" smooth="yes"/>
      <point x="566.0" y="1030.0"/>
      <point x="631.0" y="1022.0"/>
      <point x="720.0" y="998.0" type="curve"/>
      <point x="720.0" y="1066.0" type="line"/>
      <point x="644.0" y="1086.0"/>
      <point x="570.0" y="1096.0"/>
      <point x="485.0" y="1096.0" type="curve" smooth="yes"/>
      <point x="226.0" y="1096.0"/>
      <point x="104.0" y="970.0"/>
      <point x="104.0" y="803.0" type="curve" smooth="yes"/>
      <point x="104.0" y="659.0"/>
      <point x="175.0" y="565.0"/>
      <point x="369.0" y="520.0" type="curve" smooth="yes"/>
      <point x="498.0" y="492.0" type="line" smooth="yes"/>
      <point x="646.0" y="459.0"/>
      <point x="705.0" y="399.0"/>
      <point x="705.0" y="274.0" type="curve" smooth="yes"/>
      <point x="705.0" y="130.0"/>
      <point x="608.0" y="48.0"/>
      <point x="395.0" y="48.0" type="curve" smooth="yes"/>
      <point x="306.0" y="48.0"/>
      <point x="226.0" y="59.0"/>
      <point x="120.0" y="91.0" type="curve"/>
      <point x="120.0" y="23.0" type="line"/>
      <point x="206.0" y="-5.0"/>
      <point x="293.0" y="-18.0"/>
    </contour>
    <contour>
      <point x="439.0" y="-400.0" type="curve" smooth="yes"/>
      <point x="550.0" y="-400.0"/>
      <point x="615.0" y="-346.0"/>
      <point x="615.0" y="-257.0" type="curve" smooth="yes"/>
      <point x="615.0" y="-166.0"/>
      <point x="553.0" y="-113.0"/>
      <point x="441.0" y="-113.0" type="curve"/>
      <point x="464.0" y="-142.0" type="line"/>
      <point x="464.0" y="20.0" type="line"/>
      <point x="408.0" y="20.0" type="line"/>
      <point x="408.0" y="-164.0" type="line"/>
      <point x="440.0" y="-164.0" type="line" smooth="yes"/>
      <point x="519.0" y="-164.0"/>
      <point x="560.0" y="-193.0"/>
      <point x="560.0" y="-257.0" type="curve" smooth="yes"/>
      <point x="560.0" y="-318.0"/>
      <point x="521.0" y="-348.0"/>
      <point x="442.0" y="-348.0" type="curve" smooth="yes"/>
      <point x="390.0" y="-348.0"/>
      <point x="335.0" y="-338.0"/>
      <point x="276.0" y="-307.0" type="curve"/>
      <point x="276.0" y="-363.0" type="line"/>
      <point x="318.0" y="-387.0"/>
      <point x="384.0" y="-400.0"/>
    </contour>
  </outline>
</glyph>
<glyph name="Tcedilla" format="2">
  <advance width="1112.0"/>
  <unicode hex="0162"/>
  <anchor x="556.0" y="0.0" name="_bottom"/>
  <anchor x="556.0" y="0.0" name="bottom"/>
  <anchor x="556.0" y="800.0" name="center"/>
  <anchor x="556.0" y="1520.0" name="top"/>
  <outline>
    <contour>
      <point x="522.0" y="0.0" type="line"/>
      <point x="590.0" y="0.0" type="line"/>
      <point x="590.0" y="1414.0" type="line"/>
      <point x="1098.0" y="1414.0" type="line"/>
      <point x="1098.0" y="1480.0" type="line"/>
      <point x="14.0" y="1480.0" type="line"/>
      <point x="14.0" y="1414.0" type="line"/>
      <point x="522.0" y="1414.0" type="line"/>
    </contour>
    <contour>
      <point x="568.0" y="-400.0" type="curve" smooth="yes"/>
      <point x="682.0" y="-400.0"/>
      <point x="759.0" y="-352.0"/>
      <point x="759.0" y="-256.0" type="curve" smooth="yes"/>
      <point x="759.0" y="-160.0"/>
      <point x="682.0" y="-112.0"/>
      <point x="571.0" y="-112.0" type="curve"/>
      <point x="584.0" y="-142.0" type="line"/>
      <point x="584.0" y="20.0" type="line"/>
      <point x="528.0" y="20.0" type="line"/>
      <point x="528.0" y="-164.0" type="line"/>
      <point x="566.0" y="-164.0" type="line" smooth="yes"/>
      <point x="652.0" y="-164.0"/>
      <point x="703.0" y="-192.0"/>
      <point x="703.0" y="-256.0" type="curve" smooth="yes"/>
      <point x="703.0" y="-320.0"/>
      <point x="652.0" y="-348.0"/>
      <point x="568.0" y="-348.0" type="curve" smooth="yes"/>
      <point x="510.0" y="-348.0"/>
      <point x="455.0" y="-337.0"/>
      <point x="381.0" y="-305.0" type="curve"/>
      <point x="381.0" y="-361.0" type="line"/>
      <point x="437.0" y="-387.0"/>
      <point x="507.0" y="-400.0"/>
    </contour>
  </outline>
</glyph>
<glyph name="tcedilla" format="2">
  <advance width="694.0"/>
  <unicode hex="0163"/>
  <anchor x="458.0" y="0.0" name="_bottom"/>
  <anchor x="458.0" y="0.0" name="bottom"/>
  <anchor x="496.0" y="1616.0" name="caronalt"/>
  <anchor x="227.0" y="660.0" name="stroke"/>
  <anchor x="261.0" y="1480.0" name="top"/>
  <anchor x="659.0" y="1616.0" name="topright"/>
  <outline>
    <contour>
      <point x="542.0" y="-18.0" type="curve" smooth="yes"/>
      <point x="591.0" y="-18.0"/>
      <point x="636.0" y="-13.0"/>
      <point x="688.0" y="-1.0" type="curve"/>
      <point x="688.0" y="67.0" type="line"/>
      <point x="633.0" y="54.0"/>
      <point x="590.0" y="48.0"/>
      <point x="546.0" y="48.0" type="curve" smooth="yes"/>
      <point x="383.0" y="48.0"/>
      <point x="295.0" y="121.0"/>
      <point x="295.0" y="322.0" type="curve" smooth="yes"/>
      <point x="295.0" y="1480.0" type="line"/>
      <point x="235.0" y="1480.0" type="line"/>
      <point x="227.0" y="1080.0" type="line"/>
      <point x="227.0" y="310.0" type="line" smooth="yes"/>
      <point x="227.0" y="79.0"/>
      <point x="345.0" y="-18.0"/>
    </contour>
    <contour>
      <point x="7.0" y="1016.0" type="line"/>
      <point x="666.0" y="1016.0" type="line"/>
      <point x="666.0" y="1080.0" type="line"/>
      <point x="7.0" y="1080.0" type="line"/>
    </contour>
    <contour>
      <point x="463.0" y="-400.0" type="curve" smooth="yes"/>
      <point x="574.0" y="-400.0"/>
      <point x="639.0" y="-346.0"/>
      <point x="639.0" y="-257.0" type="curve" smooth="yes"/>
      <point x="639.0" y="-166.0"/>
      <point x="577.0" y="-113.0"/>
      <point x="465.0" y="-113.0" type="curve"/>
      <point x="488.0" y="-142.0" type="line"/>
      <point x="488.0" y="20.0" type="line"/>
      <point x="432.0" y="20.0" type="line"/>
      <point x="432.0" y="-164.0" type="line"/>
      <point x="464.0" y="-164.0" type="line" smooth="yes"/>
      <point x="543.0" y="-164.0"/>
      <point x="584.0" y="-193.0"/>
      <point x="584.0" y="-257.0" type="curve" smooth="yes"/>
      <point x="584.0" y="-318.0"/>
      <point x="545.0" y="-348.0"/>
      <point x="466.0" y="-348.0" type="curve" smooth="yes"/>
      <point x="414.0" y="-348.0"/>
      <point x="359.0" y="-338.0"/>
      <point x="300.0" y="-307.0" type="curve"/>
      <point x="300.0" y="-363.0" type="line"/>
      <point x="342.0" y="-387.0"/>
      <point x="408.0" y="-400.0"/>
    </contour>
  </outline>
</glyph>
<glyph name="Tcaron" format="2">
  <advance width="1112.0"/>
  <unicode hex="0164"/>
  <anchor x="556.0" y="1520.0" name="_top"/>
  <anchor x="556.0" y="0.0" name="bottom"/>
  <anchor x="556.0" y="800.0" name="center"/>
  <anchor x="556.0" y="1520.0" name="top"/>
  <outline>
    <contour>
      <point x="522.0" y="0.0" type="line"/>
      <point x="590.0" y="0.0" type="line"/>
      <point x="590.0" y="1414.0" type="line"/>
      <point x="1098.0" y="1414.0" type="line"/>
      <point x="1098.0" y="1480.0" type="line"/>
      <point x="14.0" y="1480.0" type="line"/>
      <point x="14.0" y="1414.0" type="line"/>
      <point x="522.0" y="1414.0" type="line"/>
    </contour>
    <contour>
      <point x="518.0" y="1616.0" type="line"/>
      <point x="594.0" y="1616.0" type="line"/>
      <point x="834.0" y="1888.0" type="line"/>
      <point x="753.0" y="1888.0" type="line"/>
      <point x="543.0" y="1645.0" type="line"/>
      <point x="569.0" y="1645.0" type="line"/>
      <point x="359.0" y="1888.0" type="line"/>
      <point x="278.0" y="1888.0" type="line"/>
    </contour>
  </outline>
</glyph>
<glyph name="tcaron" format="2">
  <advance width="694.0"/>
  <unicode hex="0165"/>
  <anchor x="496.0" y="1616.0" name="_caronalt"/>
  <anchor x="458.0" y="0.0" name="bottom"/>
  <anchor x="496.0" y="1616.0" name="caronalt"/>
  <anchor x="227.0" y="660.0" name="stroke"/>
  <anchor x="261.0" y="1480.0" name="top"/>
  <anchor x="659.0" y="1616.0" name="topright"/>
  <outline>
    <contour>
      <point x="542.0" y="-18.0" type="curve" smooth="yes"/>
      <point x="591.0" y="-18.0"/>
      <point x="636.0" y="-13.0"/>
      <point x="688.0" y="-1.0" type="curve"/>
      <point x="688.0" y="67.0" type="line"/>
      <point x="633.0" y="54.0"/>
      <point x="590.0" y="48.0"/>
      <point x="546.0" y="48.0" type="curve" smooth="yes"/>
      <point x="383.0" y="48.0"/>
      <point x="295.0" y="121.0"/>
      <point x="295.0" y="322.0" type="curve" smooth="yes"/>
      <point x="295.0" y="1480.0" type="line"/>
      <point x="235.0" y="1480.0" type="line"/>
      <point x="227.0" y="1080.0" type="line"/>
      <point x="227.0" y="310.0" type="line" smooth="yes"/>
      <point x="227.0" y="79.0"/>
      <point x="345.0" y="-18.0"/>
    </contour>
    <contour>
      <point x="7.0" y="1016.0" type="line"/>
      <point x="666.0" y="1016.0" type="line"/>
      <point x="666.0" y="1080.0" type="line"/>
      <point x="7.0" y="1080.0" type="line"/>
    </contour>
    <contour>
      <point x="478.0" y="1180.0" type="curve"/>
      <point x="524.0" y="1180.0" type="line"/>
      <point x="552.0" y="1322.0"/>
      <point x="560.0" y="1486.0"/>
      <point x="560.0" y="1616.0" type="curve"/>
      <point x="496.0" y="1616.0" type="line"/>
      <point x="496.0" y="1492.0"/>
      <point x="494.0" y="1320.0"/>
    </contour>
  </outline>
</glyph>
<glyph name="Tbar" format="2">
  <advance width="1112.0"/>
  <unicode hex="0166"/>
  <anchor x="556.0" y="800.0" name="_center"/>
  <anchor x="556.0" y="0.0" name="bottom"/>
  <anchor x="556.0" y="800.0" name="center"/>
  <anchor x="556.0" y="1520.0" name="top"/>
  <outline>
    <contour>
      <point x="522.0" y="0.0" type="line"/>
      <point x="590.0" y="0.0" type="line"/>
      <point x="590.0" y="1414.0" type="line"/>
      <point x="1098.0" y="1414.0" type="line"/>
      <point x="1098.0" y="1480.0" type="line"/>
      <point x="14.0" y="1480.0" type="line"/>
      <point x="14.0" y="1414.0" type="line"/>
      <point x="522.0" y="1414.0" type="line"/>
    </contour>
    <contour>
      <point x="184.0" y="770.0" type="line"/>
      <point x="928.0" y="770.0" type="line"/>
      <point x="928.0" y="830.0" type="line"/>
      <point x="184.0" y="830.0" type="line"/>
    </contour>
  </outline>
</glyph>
